<?xml version="1.0" encoding="utf-8" standalone="no"?>
<!DOCTYPE svg PUBLIC "-//W3C//DTD SVG 1.1//EN"
  "http://www.w3.org/Graphics/SVG/1.1/DTD/svg11.dtd">
<!-- Created with matplotlib (https://matplotlib.org/) -->
<svg height="215.232073pt" version="1.1" viewBox="0 0 195.443127 215.232073" width="195.443127pt" xmlns="http://www.w3.org/2000/svg" xmlns:xlink="http://www.w3.org/1999/xlink">
 <metadata>
  <rdf:RDF xmlns:cc="http://creativecommons.org/ns#" xmlns:dc="http://purl.org/dc/elements/1.1/" xmlns:rdf="http://www.w3.org/1999/02/22-rdf-syntax-ns#">
   <cc:Work>
    <dc:type rdf:resource="http://purl.org/dc/dcmitype/StillImage"/>
    <dc:date>2022-07-19T14:50:03.510239</dc:date>
    <dc:format>image/svg+xml</dc:format>
    <dc:creator>
     <cc:Agent>
      <dc:title>Matplotlib v3.3.3, https://matplotlib.org/</dc:title>
     </cc:Agent>
    </dc:creator>
   </cc:Work>
  </rdf:RDF>
 </metadata>
 <defs>
  <style type="text/css">*{stroke-linecap:butt;stroke-linejoin:round;}</style>
 </defs>
 <g id="figure_1">
  <g id="patch_1">
   <path d="M 0 215.232073 
L 195.443127 215.232073 
L 195.443127 0 
L 0 0 
z
" style="fill:#ffffff;"/>
  </g>
  <g id="axes_1">
   <g id="patch_2">
    <path d="M 7.2 197.313981 
L 170.963127 197.313981 
L 170.963127 30.685 
L 7.2 30.685 
z
" style="fill:#ffffff;"/>
   </g>
   <g id="matplotlib.axis_1">
    <g id="xtick_1">
     <g id="line2d_1">
      <defs>
       <path d="M 0 0 
L 0 3.5 
" id="meecd9a2407" style="stroke:#000000;stroke-width:0.8;"/>
      </defs>
      <g>
       <use style="stroke:#000000;stroke-width:0.8;" x="49.715427" xlink:href="#meecd9a2407" y="191.353948"/>
      </g>
     </g>
     <g id="text_1">
      <!-- −1 -->
      <g transform="translate(42.344333 205.952386)scale(0.1 -0.1)">
       <defs>
        <path d="M 10.59375 35.5 
L 73.1875 35.5 
L 73.1875 27.203125 
L 10.59375 27.203125 
z
" id="DejaVuSans-8722"/>
        <path d="M 12.40625 8.296875 
L 28.515625 8.296875 
L 28.515625 63.921875 
L 10.984375 60.40625 
L 10.984375 69.390625 
L 28.421875 72.90625 
L 38.28125 72.90625 
L 38.28125 8.296875 
L 54.390625 8.296875 
L 54.390625 0 
L 12.40625 0 
z
" id="DejaVuSans-49"/>
       </defs>
       <use xlink:href="#DejaVuSans-8722"/>
       <use x="83.789062" xlink:href="#DejaVuSans-49"/>
      </g>
     </g>
    </g>
    <g id="xtick_2">
     <g id="line2d_2">
      <g>
       <use style="stroke:#000000;stroke-width:0.8;" x="128.447699" xlink:href="#meecd9a2407" y="191.353948"/>
      </g>
     </g>
     <g id="text_2">
      <!-- 1 -->
      <g transform="translate(125.266449 205.952386)scale(0.1 -0.1)">
       <use xlink:href="#DejaVuSans-49"/>
      </g>
     </g>
    </g>
    <g id="text_3">
     <!-- $x$ -->
     <g transform="translate(178.963127 191.353948)scale(0.16 -0.16)">
      <defs>
       <path d="M 7.8125 2.875 
Q 9.578125 1.515625 12.796875 1.515625 
Q 15.921875 1.515625 18.3125 4.515625 
Q 20.703125 7.515625 21.578125 11.078125 
L 26.125 28.8125 
Q 27.203125 33.640625 27.203125 35.40625 
Q 27.203125 37.890625 25.8125 39.75 
Q 24.421875 41.609375 21.921875 41.609375 
Q 18.75 41.609375 15.96875 39.625 
Q 13.1875 37.640625 11.28125 34.59375 
Q 9.375 31.546875 8.59375 28.421875 
Q 8.40625 27.78125 7.8125 27.78125 
L 6.59375 27.78125 
Q 5.8125 27.78125 5.8125 28.71875 
L 5.8125 29 
Q 6.78125 32.71875 9.125 36.25 
Q 11.46875 39.796875 14.859375 41.984375 
Q 18.265625 44.1875 22.125 44.1875 
Q 25.78125 44.1875 28.734375 42.234375 
Q 31.6875 40.28125 32.90625 36.921875 
Q 34.625 39.984375 37.28125 42.078125 
Q 39.9375 44.1875 43.109375 44.1875 
Q 45.265625 44.1875 47.5 43.421875 
Q 49.75 42.671875 51.171875 41.109375 
Q 52.59375 39.546875 52.59375 37.203125 
Q 52.59375 34.671875 50.953125 32.828125 
Q 49.3125 31 46.78125 31 
Q 45.171875 31 44.09375 32.03125 
Q 43.015625 33.0625 43.015625 34.625 
Q 43.015625 36.71875 44.453125 38.296875 
Q 45.90625 39.890625 47.90625 40.1875 
Q 46.09375 41.609375 42.921875 41.609375 
Q 39.703125 41.609375 37.328125 38.625 
Q 34.96875 35.640625 33.984375 31.984375 
L 29.59375 14.3125 
Q 28.515625 10.296875 28.515625 7.71875 
Q 28.515625 5.171875 29.953125 3.34375 
Q 31.390625 1.515625 33.796875 1.515625 
Q 38.484375 1.515625 42.15625 5.640625 
Q 45.84375 9.765625 47.015625 14.703125 
Q 47.21875 15.28125 47.796875 15.28125 
L 49.03125 15.28125 
Q 49.421875 15.28125 49.65625 15.015625 
Q 49.90625 14.75 49.90625 14.40625 
Q 49.90625 14.3125 49.8125 14.109375 
Q 48.390625 8.15625 43.84375 3.515625 
Q 39.3125 -1.125 33.59375 -1.125 
Q 29.9375 -1.125 26.984375 0.84375 
Q 24.03125 2.828125 22.796875 6.203125 
Q 21.234375 3.265625 18.46875 1.0625 
Q 15.71875 -1.125 12.59375 -1.125 
Q 10.453125 -1.125 8.171875 -0.359375 
Q 5.90625 0.390625 4.484375 1.953125 
Q 3.078125 3.515625 3.078125 5.90625 
Q 3.078125 8.25 4.703125 10.171875 
Q 6.34375 12.109375 8.796875 12.109375 
Q 10.453125 12.109375 11.578125 11.109375 
Q 12.703125 10.109375 12.703125 8.5 
Q 12.703125 6.390625 11.296875 4.828125 
Q 9.90625 3.265625 7.8125 2.875 
z
" id="Cmmi10-120"/>
      </defs>
      <use transform="translate(0 0.8125)" xlink:href="#Cmmi10-120"/>
     </g>
    </g>
   </g>
   <g id="matplotlib.axis_2">
    <g id="ytick_1">
     <g id="line2d_3">
      <defs>
       <path d="M 0 0 
L -3.5 0 
" id="mc193353b19" style="stroke:#000000;stroke-width:0.8;"/>
      </defs>
      <g>
       <use style="stroke:#000000;stroke-width:0.8;" x="89.081563" xlink:href="#mc193353b19" y="191.353948"/>
      </g>
     </g>
    </g>
    <g id="ytick_2">
     <g id="line2d_4">
      <g>
       <use style="stroke:#000000;stroke-width:0.8;" x="89.081563" xlink:href="#mc193353b19" y="151.987812"/>
      </g>
     </g>
     <g id="text_4">
      <!-- 1 -->
      <g transform="translate(75.719063 155.787031)scale(0.1 -0.1)">
       <use xlink:href="#DejaVuSans-49"/>
      </g>
     </g>
    </g>
    <g id="text_5">
     <!-- $y$ -->
     <g transform="translate(85.081563 19.325)scale(0.16 -0.16)">
      <defs>
       <path d="M 8.40625 -14.3125 
Q 10.5 -17.921875 15.71875 -17.921875 
Q 20.453125 -17.921875 23.921875 -14.59375 
Q 27.390625 -11.28125 29.515625 -6.5625 
Q 31.640625 -1.859375 32.8125 3.078125 
Q 28.375 -1.125 23.1875 -1.125 
Q 19.234375 -1.125 16.453125 0.234375 
Q 13.671875 1.609375 12.125 4.3125 
Q 10.59375 7.03125 10.59375 10.890625 
Q 10.59375 14.15625 11.46875 17.59375 
Q 12.359375 21.046875 13.9375 25.265625 
Q 15.53125 29.5 16.703125 32.625 
Q 18.015625 36.28125 18.015625 38.625 
Q 18.015625 41.609375 15.828125 41.609375 
Q 11.859375 41.609375 9.296875 37.53125 
Q 6.734375 33.453125 5.515625 28.421875 
Q 5.328125 27.78125 4.6875 27.78125 
L 3.515625 27.78125 
Q 2.6875 27.78125 2.6875 28.71875 
L 2.6875 29 
Q 4.296875 34.96875 7.609375 39.578125 
Q 10.9375 44.1875 16.015625 44.1875 
Q 19.578125 44.1875 22.046875 41.84375 
Q 24.515625 39.5 24.515625 35.890625 
Q 24.515625 34.03125 23.6875 31.984375 
Q 23.25 30.765625 21.6875 26.65625 
Q 20.125 22.5625 19.28125 19.875 
Q 18.453125 17.1875 17.921875 14.59375 
Q 17.390625 12.015625 17.390625 9.421875 
Q 17.390625 6.109375 18.796875 3.8125 
Q 20.21875 1.515625 23.296875 1.515625 
Q 29.5 1.515625 34.421875 9.078125 
L 42 39.890625 
Q 42.328125 41.21875 43.546875 42.15625 
Q 44.78125 43.109375 46.1875 43.109375 
Q 47.40625 43.109375 48.3125 42.328125 
Q 49.21875 41.546875 49.21875 40.28125 
Q 49.21875 39.703125 49.125 39.5 
L 39.203125 -0.296875 
Q 37.890625 -5.421875 34.375 -10.109375 
Q 30.859375 -14.796875 25.90625 -17.65625 
Q 20.953125 -20.515625 15.578125 -20.515625 
Q 12.984375 -20.515625 10.4375 -19.5 
Q 7.90625 -18.5 6.34375 -16.5 
Q 4.78125 -14.5 4.78125 -11.8125 
Q 4.78125 -9.078125 6.390625 -7.078125 
Q 8.015625 -5.078125 10.6875 -5.078125 
Q 12.3125 -5.078125 13.40625 -6.078125 
Q 14.5 -7.078125 14.5 -8.6875 
Q 14.5 -10.984375 12.78125 -12.6875 
Q 11.078125 -14.40625 8.796875 -14.40625 
Q 8.6875 -14.359375 8.59375 -14.328125 
Q 8.5 -14.3125 8.40625 -14.3125 
z
" id="Cmmi10-121"/>
      </defs>
      <use transform="translate(0 0.8125)" xlink:href="#Cmmi10-121"/>
     </g>
    </g>
   </g>
   <g id="line2d_5">
    <path clip-path="url(#p167c5857b5)" d="M 10.349291 33.889403 
L 14.637142 50.573764 
L 18.623351 65.246584 
L 22.754214 79.600097 
L 27.205135 94.095423 
L 30.90713 105.385015 
L 34.5059 115.692394 
L 37.760365 124.447066 
L 41.239003 133.209796 
L 44.85545 141.667866 
L 47.866606 148.20334 
L 51.434435 155.350763 
L 54.735869 161.38843 
L 58.062685 166.912362 
L 60.936919 171.23206 
L 63.733148 175.031743 
L 66.450526 178.343683 
L 69.358581 181.47246 
L 72.120572 184.046265 
L 74.130514 185.675619 
L 76.480001 187.32004 
L 79.085212 188.815548 
L 81.628131 189.942744 
L 83.369309 190.525067 
L 85.831028 191.085545 
L 87.929712 191.320245 
L 90.522294 191.30122 
L 92.504248 191.056363 
L 94.936146 190.483247 
L 97.056433 189.738383 
L 98.894339 188.907923 
L 101.248414 187.593553 
L 103.600971 185.998757 
L 105.45507 184.543736 
L 107.878984 182.378137 
L 110.466096 179.73741 
L 113.400071 176.331142 
L 115.654827 173.416238 
L 118.30255 169.663578 
L 121.326652 164.941761 
L 124.617857 159.274901 
L 127.666497 153.534715 
L 127.666497 153.534715 
" style="fill:none;stroke:#0000ff;stroke-linecap:square;stroke-width:1.5;"/>
   </g>
   <g id="line2d_6">
    <path clip-path="url(#p167c5857b5)" d="M 128.605164 151.672253 
L 129.141578 150.587824 
L 130.194172 148.417385 
L 130.716075 147.320351 
L 131.663011 145.294572 
L 132.185586 144.15712 
L 132.76729 142.874649 
L 133.348994 141.574987 
L 133.582757 141.047863 
L 134.233503 139.565841 
L 135.298254 137.094559 
L 136.405659 134.463173 
L 137.190167 132.561342 
L 137.558138 131.658521 
L 138.335366 129.728974 
L 139.020015 128.003841 
L 139.750348 126.137344 
L 140.801334 123.403803 
L 141.481428 121.60502 
L 142.416347 119.093892 
L 142.998555 117.507688 
L 143.580762 115.904262 
L 144.241265 114.064355 
L 144.578902 113.115265 
L 145.235078 111.254209 
L 145.891254 109.371277 
L 146.626068 107.236727 
L 147.147869 105.704297 
L 148.013767 103.130795 
L 148.872995 100.539466 
L 149.383762 98.981277 
L 150.128049 96.686964 
L 151.094118 93.667021 
L 151.804308 91.416717 
L 152.390561 89.53981 
L 152.976815 87.645441 
L 153.553636 85.76451 
L 154.108327 83.939799 
L 155.078789 80.709768 
L 155.637592 78.828172 
L 156.472265 75.988125 
L 157.192997 73.507295 
L 157.913729 71.000073 
L 158.456732 69.093687 
L 159.223474 66.376287 
L 159.525128 65.29901 
L 160.375591 62.236922 
L 161.150198 59.415978 
L 161.802555 57.016591 
L 162.454913 54.595583 
L 162.845107 53.137175 
L 163.634339 50.163652 
L 164.321503 47.548915 
L 165.077643 44.643993 
L 166.091787 40.702269 
L 166.947773 37.3346 
L 167.813836 33.889403 
" style="fill:none;stroke:#0000ff;stroke-linecap:square;stroke-width:1.5;"/>
   </g>
   <g id="patch_3">
    <path d="M 89.081563 197.313981 
L 89.081563 30.685 
" style="fill:none;stroke:#000000;stroke-linecap:square;stroke-linejoin:miter;stroke-width:0.8;"/>
   </g>
   <g id="patch_4">
    <path d="M 7.2 191.353948 
L 170.963127 191.353948 
" style="fill:none;stroke:#000000;stroke-linecap:square;stroke-linejoin:miter;stroke-width:0.8;"/>
   </g>
   <g id="patch_5">
    <path clip-path="url(#p167c5857b5)" d="M 128.447699 154.743442 
C 129.178501 154.743442 129.879469 154.453091 130.396224 153.936336 
C 130.912979 153.419582 131.203329 152.718614 131.203329 151.987812 
C 131.203329 151.257011 130.912979 150.556042 130.396224 150.039288 
C 129.879469 149.522533 129.178501 149.232183 128.447699 149.232183 
C 127.716898 149.232183 127.01593 149.522533 126.499175 150.039288 
C 125.98242 150.556042 125.69207 151.257011 125.69207 151.987812 
C 125.69207 152.718614 125.98242 153.419582 126.499175 153.936336 
C 127.01593 154.453091 127.716898 154.743442 128.447699 154.743442 
z
" style="fill:#ffffff;stroke:#0000ff;stroke-linejoin:miter;"/>
   </g>
   <g id="patch_6">
    <path clip-path="url(#p167c5857b5)" d="M 128.447699 194.109578 
C 129.178501 194.109578 129.879469 193.819227 130.396224 193.302473 
C 130.912979 192.785718 131.203329 192.08475 131.203329 191.353948 
C 131.203329 190.623147 130.912979 189.922179 130.396224 189.405424 
C 129.879469 188.888669 129.178501 188.598319 128.447699 188.598319 
C 127.716898 188.598319 127.01593 188.888669 126.499175 189.405424 
C 125.98242 189.922179 125.69207 190.623147 125.69207 191.353948 
C 125.69207 192.08475 125.98242 192.785718 126.499175 193.302473 
C 127.01593 193.819227 127.716898 194.109578 128.447699 194.109578 
z
" style="fill:#0000ff;stroke:#0000ff;stroke-linejoin:miter;"/>
   </g>
  </g>
 </g>
 <defs>
  <clipPath id="p167c5857b5">
   <rect height="166.628981" width="163.763127" x="7.2" y="30.685"/>
  </clipPath>
 </defs>
</svg>
