<?xml version="1.0" encoding="UTF-8" standalone="no"?>
<svg
   xmlns:dc="http://purl.org/dc/elements/1.1/"
   xmlns:cc="http://creativecommons.org/ns#"
   xmlns:rdf="http://www.w3.org/1999/02/22-rdf-syntax-ns#"
   xmlns:svg="http://www.w3.org/2000/svg"
   xmlns="http://www.w3.org/2000/svg"
   xmlns:sodipodi="http://sodipodi.sourceforge.net/DTD/sodipodi-0.dtd"
   xmlns:inkscape="http://www.inkscape.org/namespaces/inkscape"
   width="213.644012pt"
   height="119.272705pt"
   viewBox="0 0 213.644012 119.272705"
   version="1.1"
   id="svg127"
   sodipodi:docname="maxmin.svg"
   inkscape:version="0.92.5 (2060ec1f9f, 2020-04-08)">
  <metadata
     id="metadata131">
    <rdf:RDF>
      <cc:Work
         rdf:about="">
        <dc:format>image/svg+xml</dc:format>
        <dc:type
           rdf:resource="http://purl.org/dc/dcmitype/StillImage" />
        <dc:title></dc:title>
      </cc:Work>
    </rdf:RDF>
  </metadata>
  <sodipodi:namedview
     pagecolor="#ffffff"
     bordercolor="#666666"
     borderopacity="1"
     objecttolerance="10"
     gridtolerance="10"
     guidetolerance="10"
     inkscape:pageopacity="0"
     inkscape:pageshadow="2"
     inkscape:window-width="1848"
     inkscape:window-height="1016"
     id="namedview129"
     showgrid="false"
     inkscape:zoom="3.94"
     inkscape:cx="142.42934"
     inkscape:cy="79.515137"
     inkscape:window-x="72"
     inkscape:window-y="27"
     inkscape:window-maximized="1"
     inkscape:current-layer="surface1" />
  <defs
     id="defs14">
    <clipPath
       id="clip1">
      <path
         d="M 6 110 L 15 110 L 15 119.273438 L 6 119.273438 Z M 6 110 "
         id="path2" />
    </clipPath>
    <clipPath
       id="clip2">
      <path
         d="M 205 70 L 213.644531 70 L 213.644531 79 L 205 79 Z M 205 70 "
         id="path5" />
    </clipPath>
    <clipPath
       id="clip3">
      <path
         d="M 30 7 L 193 7 L 193 119.273438 L 30 119.273438 Z M 30 7 "
         id="path8" />
    </clipPath>
    <clipPath
       id="clip4">
      <path
         d="M 176 106 L 191 106 L 191 119.273438 L 176 119.273438 Z M 176 106 "
         id="path11" />
    </clipPath>
  </defs>
  <g
     id="surface1">
    <path
       style="fill:none;stroke-width:0.8;stroke-linecap:butt;stroke-linejoin:miter;stroke:rgb(100%,0%,0%);stroke-opacity:1;stroke-miterlimit:4;"
       d="M 10.515625 117.746094 L 10.515625 2.542969 "
       id="path16" />
    <path
       style=" stroke:none;fill-rule:evenodd;fill:rgb(100%,0%,0%);fill-opacity:1;"
       d="M 10.515625 114.542969 L 8.914062 112.945312 L 10.515625 118.542969 L 12.117188 112.945312 Z M 10.515625 114.542969 "
       id="path18" />
    <g
       clip-path="url(#clip1)"
       clip-rule="nonzero"
       id="g22">
      <path
         style="fill:none;stroke-width:0.4;stroke-linecap:butt;stroke-linejoin:miter;stroke:rgb(100%,0%,0%);stroke-opacity:1;stroke-miterlimit:4;"
         d="M -114.542969 10.515625 L -112.945312 8.914062 L -118.542969 10.515625 L -112.945312 12.117188 Z M -114.542969 10.515625 "
         transform="matrix(0,-1,1,0,0,0)"
         id="path20" />
    </g>
    <path
       style="fill-rule:evenodd;fill:rgb(100%,0%,0%);fill-opacity:1;stroke-width:0.4;stroke-linecap:butt;stroke-linejoin:miter;stroke:rgb(100%,0%,0%);stroke-opacity:1;stroke-miterlimit:4;"
       d="M 5.746094 -10.515625 L 7.34375 -12.117188 L 1.746094 -10.515625 L 7.34375 -8.914062 Z M 5.746094 -10.515625 "
       transform="matrix(0,1,-1,0,0,0)"
       id="path24" />
    <path
       style="fill:none;stroke-width:0.8;stroke-linecap:butt;stroke-linejoin:miter;stroke:rgb(100%,0%,0%);stroke-opacity:1;stroke-miterlimit:4;"
       d="M 0.914062 74.542969 L 212.117188 74.542969 "
       id="path26" />
    <path
       style="fill-rule:evenodd;fill:rgb(100%,0%,0%);fill-opacity:1;stroke-width:0.2;stroke-linecap:butt;stroke-linejoin:miter;stroke:rgb(100%,0%,0%);stroke-opacity:1;stroke-miterlimit:4;"
       d="M 1.699213 74.542969 C 1.699213 74.984375 1.339838 75.34375 0.898432 75.34375 C 0.457026 75.34375 0.101557 74.984375 0.101557 74.542969 C 0.101557 74.101563 0.457026 73.746094 0.898432 73.746094 C 1.339838 73.746094 1.699213 74.101563 1.699213 74.542969 Z M 1.699213 74.542969 "
       transform="matrix(1,-0.0000000757576,0.0000000757576,1,0,0)"
       id="path28" />
    <path
       style=" stroke:none;fill-rule:evenodd;fill:rgb(100%,0%,0%);fill-opacity:1;"
       d="M 208.914062 74.542969 L 207.316406 76.144531 L 212.914062 74.542969 L 207.316406 72.945312 Z M 208.914062 74.542969 "
       id="path30" />
    <g
       clip-path="url(#clip2)"
       clip-rule="nonzero"
       id="g34">
      <path
         style="fill:none;stroke-width:0.4;stroke-linecap:butt;stroke-linejoin:miter;stroke:rgb(100%,0%,0%);stroke-opacity:1;stroke-miterlimit:4;"
         d="M -208.914057 -74.542985 L -207.3164 -76.144547 L -212.914057 -74.542985 L -207.316401 -72.945328 Z M -208.914057 -74.542985 "
         transform="matrix(-1,0.0000000757576,-0.0000000757576,-1,0,0)"
         id="path32" />
    </g>
    <g
       clip-path="url(#clip3)"
       clip-rule="nonzero"
       id="g38">
      <path
         style="fill:none;stroke-width:1.6;stroke-linecap:butt;stroke-linejoin:miter;stroke:rgb(100%,100%,100%);stroke-opacity:1;stroke-miterlimit:4;"
         d="M 39.714844 45.746094 C 39.714844 45.746094 48.914062 60.144531 58.515625 60.144531 C 68.117188 60.144531 77.714844 16.945312 92.117188 16.945312 C 106.515625 16.945312 101.714844 98.542969 116.117188 98.542969 C 130.515625 98.542969 130.515625 69.746094 144.914062 69.746094 C 159.316406 69.746094 183.316406 112.945312 183.316406 112.945312 "
         id="path36" />
    </g>
    <path
       style="fill:none;stroke-width:0.8;stroke-linecap:butt;stroke-linejoin:miter;stroke:rgb(0%,0%,0%);stroke-opacity:1;stroke-dasharray:0.8,1.6;stroke-miterlimit:4;"
       d="M 39.316406 48.144531 L 39.316406 74.542969 "
       id="path40" />
    <path
       style="fill:none;stroke-width:0.8;stroke-linecap:butt;stroke-linejoin:miter;stroke:rgb(0%,0%,0%);stroke-opacity:1;stroke-dasharray:0.8,1.6;stroke-miterlimit:4;"
       d="M 183.316406 74.542969 L 183.316406 112.945312 "
       id="path42" />
    <path
       style="fill:none;stroke-width:0.8;stroke-linecap:butt;stroke-linejoin:miter;stroke:rgb(0%,0%,0%);stroke-opacity:1;stroke-miterlimit:4;"
       d="M 39.714844 45.746094 C 39.714844 45.746094 48.914062 60.144531 58.515625 60.144531 C 68.117188 60.144531 77.714844 16.945312 92.117188 16.945312 C 106.515625 16.945312 101.714844 98.542969 116.117188 98.542969 C 130.515625 98.542969 130.515625 69.746094 144.914062 69.746094 C 159.316406 69.746094 183.316406 112.945312 183.316406 112.945312 "
       id="path44" />
    <path
       style="fill-rule:nonzero;fill:rgb(0%,50.195312%,50.195312%);fill-opacity:1;stroke-width:0.8;stroke-linecap:butt;stroke-linejoin:miter;stroke:rgb(100%,100%,100%);stroke-opacity:1;stroke-miterlimit:4;"
       d="M 41.714844 45.746094 C 41.714844 47.070312 40.640625 48.144531 39.316406 48.144531 C 37.992188 48.144531 36.914062 47.070312 36.914062 45.746094 C 36.914062 44.417969 37.992188 43.34375 39.316406 43.34375 C 40.640625 43.34375 41.714844 44.417969 41.714844 45.746094 Z M 41.714844 45.746094 "
       id="path46" />
    <path
       style=" stroke:none;fill-rule:nonzero;fill:rgb(0%,0%,100%);fill-opacity:1;"
       d="M 185.714844 112.945312 C 185.714844 114.269531 184.640625 115.34375 183.316406 115.34375 C 181.992188 115.34375 180.914062 114.269531 180.914062 112.945312 C 180.914062 111.621094 181.992188 110.542969 183.316406 110.542969 C 184.640625 110.542969 185.714844 111.621094 185.714844 112.945312 Z M 185.714844 112.945312 "
       id="path48" />
    <g
       clip-path="url(#clip4)"
       clip-rule="nonzero"
       id="g52">
      <path
         style="fill:none;stroke-width:0.8;stroke-linecap:butt;stroke-linejoin:miter;stroke:rgb(100%,100%,100%);stroke-opacity:1;stroke-miterlimit:4;"
         d="M 185.714844 112.945312 C 185.714844 114.269531 184.640625 115.34375 183.316406 115.34375 C 181.992188 115.34375 180.914062 114.269531 180.914062 112.945312 C 180.914062 111.621094 181.992188 110.542969 183.316406 110.542969 C 184.640625 110.542969 185.714844 111.621094 185.714844 112.945312 Z M 185.714844 112.945312 "
         id="path50" />
    </g>
    <path
       style="fill-rule:nonzero;fill:rgb(0%,0%,100%);fill-opacity:1;stroke-width:0.8;stroke-linecap:butt;stroke-linejoin:miter;stroke:rgb(100%,100%,100%);stroke-opacity:1;stroke-miterlimit:4;"
       d="M 118.515625 98.542969 C 118.515625 99.871094 117.441406 100.945312 116.117188 100.945312 C 114.789062 100.945312 113.714844 99.871094 113.714844 98.542969 C 113.714844 97.21875 114.789062 96.144531 116.117188 96.144531 C 117.441406 96.144531 118.515625 97.21875 118.515625 98.542969 Z M 118.515625 98.542969 "
       id="path54" />
    <path
       style="fill-rule:nonzero;fill:rgb(0%,50.195312%,50.195312%);fill-opacity:1;stroke-width:0.8;stroke-linecap:butt;stroke-linejoin:miter;stroke:rgb(100%,100%,100%);stroke-opacity:1;stroke-miterlimit:4;"
       d="M 147.316406 69.746094 C 147.316406 71.070312 146.242188 72.144531 144.914062 72.144531 C 143.589844 72.144531 142.515625 71.070312 142.515625 69.746094 C 142.515625 68.417969 143.589844 67.34375 144.914062 67.34375 C 146.242188 67.34375 147.316406 68.417969 147.316406 69.746094 Z M 147.316406 69.746094 "
       id="path56" />
    <path
       style="fill-rule:nonzero;fill:rgb(0%,50.195312%,50.195312%);fill-opacity:1;stroke-width:0.8;stroke-linecap:butt;stroke-linejoin:miter;stroke:rgb(100%,100%,100%);stroke-opacity:1;stroke-miterlimit:4;"
       d="M 94.515625 16.945312 C 94.515625 18.269531 93.441406 19.34375 92.117188 19.34375 C 90.789062 19.34375 89.714844 18.269531 89.714844 16.945312 C 89.714844 15.621094 90.789062 14.542969 92.117188 14.542969 C 93.441406 14.542969 94.515625 15.621094 94.515625 16.945312 Z M 94.515625 16.945312 "
       id="path58" />
    <path
       style="fill-rule:nonzero;fill:rgb(0%,0%,100%);fill-opacity:1;stroke-width:0.8;stroke-linecap:butt;stroke-linejoin:miter;stroke:rgb(100%,100%,100%);stroke-opacity:1;stroke-miterlimit:4;"
       d="M 60.914062 60.144531 C 60.914062 61.46875 59.839844 62.542969 58.515625 62.542969 C 57.191406 62.542969 56.117188 61.46875 56.117188 60.144531 C 56.117188 58.820312 57.191406 57.746094 58.515625 57.746094 C 59.839844 57.746094 60.914062 58.820312 60.914062 60.144531 Z M 60.914062 60.144531 "
       id="path60" />
    <path
       style=" stroke:none;fill-rule:nonzero;fill:rgb(0%,0%,0%);fill-opacity:1;"
       d="M 40.554688 79.246094 C 40.328125 78.792969 39.992188 78.476562 39.445312 78.476562 C 38.058594 78.476562 36.578125 80.238281 36.578125 81.980469 C 36.578125 83.105469 37.234375 83.894531 38.152344 83.894531 C 38.398438 83.894531 38.996094 83.839844 39.710938 82.996094 C 39.804688 83.5 40.234375 83.894531 40.796875 83.894531 C 41.226562 83.894531 41.492188 83.613281 41.695312 83.238281 C 41.882812 82.808594 42.054688 82.074219 42.054688 82.058594 C 42.054688 81.925781 41.941406 81.925781 41.902344 81.925781 C 41.789062 81.925781 41.773438 81.980469 41.734375 82.152344 C 41.527344 82.917969 41.320312 83.632812 40.835938 83.632812 C 40.496094 83.632812 40.476562 83.3125 40.476562 83.089844 C 40.476562 82.824219 40.496094 82.714844 40.628906 82.1875 C 40.757812 81.699219 40.777344 81.570312 40.890625 81.121094 L 41.320312 79.449219 C 41.398438 79.113281 41.398438 79.09375 41.398438 79.039062 C 41.398438 78.832031 41.265625 78.71875 41.058594 78.71875 C 40.757812 78.71875 40.589844 78.980469 40.554688 79.246094 Z M 39.785156 82.339844 C 39.710938 82.5625 39.710938 82.582031 39.539062 82.789062 C 39.015625 83.445312 38.527344 83.632812 38.191406 83.632812 C 37.589844 83.632812 37.421875 82.976562 37.421875 82.507812 C 37.421875 81.90625 37.796875 80.445312 38.078125 79.882812 C 38.453125 79.1875 38.976562 78.738281 39.464844 78.738281 C 40.234375 78.738281 40.402344 79.714844 40.402344 79.789062 C 40.402344 79.863281 40.382812 79.9375 40.367188 79.996094 Z M 39.785156 82.339844 "
       id="path62" />
    <path
       style=" stroke:none;fill-rule:nonzero;fill:rgb(0%,0%,0%);fill-opacity:1;"
       d="M 183.480469 62.246094 C 183.480469 62.246094 183.480469 62.113281 183.328125 62.113281 C 183.066406 62.113281 182.183594 62.207031 181.867188 62.246094 C 181.773438 62.246094 181.640625 62.265625 181.640625 62.46875 C 181.640625 62.621094 181.753906 62.621094 181.941406 62.621094 C 182.503906 62.621094 182.523438 62.695312 182.523438 62.828125 C 182.523438 62.902344 182.429688 63.3125 182.371094 63.558594 L 181.378906 67.457031 C 181.246094 68.058594 181.191406 68.265625 181.191406 68.675781 C 181.191406 69.800781 181.828125 70.550781 182.710938 70.550781 C 184.117188 70.550781 185.597656 68.769531 185.597656 67.046875 C 185.597656 65.957031 184.960938 65.132812 184.003906 65.132812 C 183.460938 65.132812 182.953125 65.488281 182.597656 65.84375 Z M 182.371094 66.765625 C 182.429688 66.5 182.429688 66.484375 182.542969 66.351562 C 183.121094 65.582031 183.667969 65.394531 183.984375 65.394531 C 184.417969 65.394531 184.734375 65.75 184.734375 66.519531 C 184.734375 67.234375 184.339844 68.601562 184.117188 69.050781 C 183.722656 69.859375 183.179688 70.289062 182.710938 70.289062 C 182.296875 70.289062 181.902344 69.96875 181.902344 69.089844 C 181.902344 68.84375 181.902344 68.621094 182.089844 67.871094 Z M 182.371094 66.765625 "
       id="path64" />
    <path
       style="fill:none;stroke-width:0.4;stroke-linecap:butt;stroke-linejoin:miter;stroke:rgb(100%,0%,0%);stroke-opacity:1;stroke-miterlimit:4;"
       d="M 101.714844 7.34375 L 96.914062 7.34375 L 92.117188 12.144531 "
       id="path90" />
    <path
       style="fill-rule:evenodd;fill:rgb(100%,0%,0%);fill-opacity:1;stroke-width:0.1;stroke-linecap:butt;stroke-linejoin:miter;stroke:rgb(100%,0%,0%);stroke-opacity:1;stroke-miterlimit:4;"
       d="M -101.324219 -7.34375 C -101.324219 -7.125 -101.503906 -6.945312 -101.722656 -6.945312 C -101.945312 -6.945312 -102.125 -7.125 -102.125 -7.34375 C -102.125 -7.566406 -101.945312 -7.746094 -101.722656 -7.746094 C -101.503906 -7.746094 -101.324219 -7.566406 -101.324219 -7.34375 Z M -101.324219 -7.34375 "
       transform="matrix(-1,0,0,-1,0,0)"
       id="path92" />
    <path
       style="fill-rule:evenodd;fill:rgb(100%,0%,0%);fill-opacity:1;stroke-width:0.141421;stroke-linecap:butt;stroke-linejoin:miter;stroke:rgb(100%,0%,0%);stroke-opacity:1;stroke-miterlimit:4;"
       d="M 41.117188 52.128906 L 41.681641 51.564453 L 39.703125 52.128906 L 41.683594 52.695312 Z M 41.117188 52.128906 "
       transform="matrix(1,-1,1,1,0,0)"
       id="path94" />
    <path
       style="fill:none;stroke-width:0.4;stroke-linecap:butt;stroke-linejoin:miter;stroke:rgb(100%,0%,0%);stroke-opacity:1;stroke-miterlimit:4;"
       d="M 101.714844 2.542969 L 48.914062 2.542969 L 39.316406 12.144531 L 39.316406 40.945312 "
       id="path96" />
    <path
       style="fill-rule:evenodd;fill:rgb(100%,0%,0%);fill-opacity:1;stroke-width:0.1;stroke-linecap:butt;stroke-linejoin:miter;stroke:rgb(100%,0%,0%);stroke-opacity:1;stroke-miterlimit:4;"
       d="M -101.324219 -2.542969 C -101.324219 -2.324219 -101.503906 -2.144531 -101.722656 -2.144531 C -101.945312 -2.144531 -102.125 -2.324219 -102.125 -2.542969 C -102.125 -2.765625 -101.945312 -2.945312 -101.722656 -2.945312 C -101.503906 -2.945312 -101.324219 -2.765625 -101.324219 -2.542969 Z M -101.324219 -2.542969 "
       transform="matrix(-1,0,0,-1,0,0)"
       id="path98" />
    <path
       style="fill-rule:evenodd;fill:rgb(100%,0%,0%);fill-opacity:1;stroke-width:0.2;stroke-linecap:butt;stroke-linejoin:miter;stroke:rgb(100%,0%,0%);stroke-opacity:1;stroke-miterlimit:4;"
       d="M -39.34375 39.316406 L -38.542969 38.515625 L -41.34375 39.316406 L -38.542969 40.117188 Z M -39.34375 39.316406 "
       transform="matrix(0,-1,1,0,0,0)"
       id="path100" />
    <path
       style="fill:none;stroke-width:0.4;stroke-linecap:butt;stroke-linejoin:miter;stroke:rgb(100%,0%,0%);stroke-opacity:1;stroke-miterlimit:4;"
       d="M 125.714844 12.144531 L 125.714844 50.542969 L 140.117188 64.945312 "
       id="path102" />
    <path
       style="fill-rule:evenodd;fill:rgb(100%,0%,0%);fill-opacity:1;stroke-width:0.1;stroke-linecap:butt;stroke-linejoin:miter;stroke:rgb(100%,0%,0%);stroke-opacity:1;stroke-miterlimit:4;"
       d="M 12.535156 -125.714844 C 12.535156 -125.496094 12.359375 -125.316406 12.136719 -125.316406 C 11.914062 -125.316406 11.738281 -125.496094 11.738281 -125.714844 C 11.738281 -125.9375 11.914062 -126.117188 12.136719 -126.117188 C 12.359375 -126.117188 12.535156 -125.9375 12.535156 -125.714844 Z M 12.535156 -125.714844 "
       transform="matrix(0,1,-1,0,0,0)"
       id="path104" />
    <path
       style="fill-rule:evenodd;fill:rgb(100%,0%,0%);fill-opacity:1;stroke-width:0.141421;stroke-linecap:butt;stroke-linejoin:miter;stroke:rgb(100%,0%,0%);stroke-opacity:1;stroke-miterlimit:4;"
       d="M -101.398438 37.585938 L -100.832031 37.019531 L -102.8125 37.585938 L -100.833984 38.150391 Z M -101.398438 37.585938 "
       transform="matrix(-1,-1,1,-1,0,0)"
       id="path106" />
    <path
       style="fill:none;stroke-width:0.4;stroke-linecap:butt;stroke-linejoin:miter;stroke:rgb(100%,0%,0%);stroke-opacity:1;stroke-miterlimit:4;"
       d="M 101.714844 108.144531 L 106.515625 108.144531 L 111.316406 103.34375 "
       id="path108" />
    <path
       style="fill-rule:evenodd;fill:rgb(100%,0%,0%);fill-opacity:1;stroke-width:0.1;stroke-linecap:butt;stroke-linejoin:miter;stroke:rgb(100%,0%,0%);stroke-opacity:1;stroke-miterlimit:4;"
       d="M 102.109375 108.144531 C 102.109375 108.367188 101.929688 108.542969 101.707031 108.542969 C 101.488281 108.542969 101.308594 108.367188 101.308594 108.144531 C 101.308594 107.925781 101.488281 107.746094 101.707031 107.746094 C 101.929688 107.746094 102.109375 107.925781 102.109375 108.144531 Z M 102.109375 108.144531 "
       id="path110" />
    <path
       style="fill-rule:evenodd;fill:rgb(100%,0%,0%);fill-opacity:1;stroke-width:0.141421;stroke-linecap:butt;stroke-linejoin:miter;stroke:rgb(100%,0%,0%);stroke-opacity:1;stroke-miterlimit:4;"
       d="M -2.853516 -107.330078 L -2.287109 -107.896484 L -4.267578 -107.330078 L -2.289062 -106.765625 Z M -2.853516 -107.330078 "
       transform="matrix(-1,1,-1,-1,0,0)"
       id="path112" />
    <path
       style="fill:none;stroke-width:0.4;stroke-linecap:butt;stroke-linejoin:miter;stroke:rgb(100%,0%,0%);stroke-opacity:1;stroke-miterlimit:4;"
       d="M 101.675781 112.496094 L 178.515625 112.945312 "
       id="path114" />
    <path
       style="fill-rule:evenodd;fill:rgb(100%,0%,0%);fill-opacity:1;stroke-width:0.0999983;stroke-linecap:butt;stroke-linejoin:miter;stroke:rgb(100%,0%,0%);stroke-opacity:1;stroke-miterlimit:4;"
       d="M 102.721664 111.894553 C 102.722968 112.117201 102.544316 112.294029 102.321667 112.295332 C 102.102925 112.296613 101.922191 112.117984 101.920887 111.895336 C 101.923513 111.67657 102.102142 111.495837 102.320884 111.494556 C 102.543556 111.497158 102.720383 111.67581 102.721664 111.894553 Z M 102.721664 111.894553 "
       transform="matrix(1,0.00585603,-0.00585603,1,0,0)"
       id="path116" />
    <path
       style="fill-rule:evenodd;fill:rgb(100%,0%,0%);fill-opacity:1;stroke-width:0.199997;stroke-linecap:butt;stroke-linejoin:miter;stroke:rgb(100%,0%,0%);stroke-opacity:1;stroke-miterlimit:4;"
       d="M -177.573222 -111.89372 L -176.773228 -112.695279 L -179.569316 -111.893749 L -176.771662 -111.093726 Z M -177.573222 -111.89372 "
       transform="matrix(-1,-0.00585603,0.00585603,-1,0,0)"
       id="path118" />
    <path
       style="fill:none;stroke-width:0.4;stroke-linecap:butt;stroke-linejoin:miter;stroke:rgb(100%,0%,0%);stroke-opacity:1;stroke-miterlimit:4;"
       d="M 68.117188 103.34375 L 68.117188 69.746094 L 63.316406 64.945312 "
       id="path120" />
    <path
       style="fill-rule:evenodd;fill:rgb(100%,0%,0%);fill-opacity:1;stroke-width:0.1;stroke-linecap:butt;stroke-linejoin:miter;stroke:rgb(100%,0%,0%);stroke-opacity:1;stroke-miterlimit:4;"
       d="M -102.953125 68.117188 C -102.953125 68.335938 -103.132812 68.515625 -103.351562 68.515625 C -103.574219 68.515625 -103.753906 68.335938 -103.753906 68.117188 C -103.753906 67.894531 -103.574219 67.714844 -103.351562 67.714844 C -103.132812 67.714844 -102.953125 67.894531 -102.953125 68.117188 Z M -102.953125 68.117188 "
       transform="matrix(0,-1,1,0,0,0)"
       id="path122" />
    <path
       style="fill-rule:evenodd;fill:rgb(100%,0%,0%);fill-opacity:1;stroke-width:0.141421;stroke-linecap:butt;stroke-linejoin:miter;stroke:rgb(100%,0%,0%);stroke-opacity:1;stroke-miterlimit:4;"
       d="M 65.261719 0.8125 L 65.826172 0.248047 L 63.845703 0.814453 L 65.828125 1.378906 Z M 65.261719 0.8125 "
       transform="matrix(1,1,-1,1,0,0)"
       id="path124" />
    <text
       xml:space="preserve"
       style="font-style:normal;font-weight:normal;font-size:10px;line-height:1.25;font-family:sans-serif;letter-spacing:0px;word-spacing:0px;fill:#000000;fill-opacity:1;stroke:none;stroke-width:0.75"
       x="104.31473"
       y="7.7244821"
       id="text135"><tspan
         sodipodi:role="line"
         id="tspan133"
         x="104.31473"
         y="7.7244821"
         style="font-size:8px;stroke-width:0.75">máximo</tspan></text>
    <text
       xml:space="preserve"
       style="font-style:normal;font-weight:normal;font-size:8px;line-height:1.25;font-family:sans-serif;letter-spacing:0px;word-spacing:0px;fill:#000000;fill-opacity:1;stroke:none;stroke-width:0.75"
       x="70.431473"
       y="112.99098"
       id="text139"><tspan
         sodipodi:role="line"
         id="tspan137"
         x="70.431473"
         y="112.99098"
         style="stroke-width:0.75">mínimo</tspan></text>
  </g>
</svg>
