<?xml version="1.0" encoding="utf-8" standalone="no"?>
<!DOCTYPE svg PUBLIC "-//W3C//DTD SVG 1.1//EN"
  "http://www.w3.org/Graphics/SVG/1.1/DTD/svg11.dtd">
<!-- Created with matplotlib (https://matplotlib.org/) -->
<svg height="286.935965pt" version="1.1" viewBox="0 0 427.673143 286.935965" width="427.673143pt" xmlns="http://www.w3.org/2000/svg" xmlns:xlink="http://www.w3.org/1999/xlink">
 <metadata>
  <rdf:RDF xmlns:cc="http://creativecommons.org/ns#" xmlns:dc="http://purl.org/dc/elements/1.1/" xmlns:rdf="http://www.w3.org/1999/02/22-rdf-syntax-ns#">
   <cc:Work>
    <dc:type rdf:resource="http://purl.org/dc/dcmitype/StillImage"/>
    <dc:date>2022-03-14T19:40:55.780852</dc:date>
    <dc:format>image/svg+xml</dc:format>
    <dc:creator>
     <cc:Agent>
      <dc:title>Matplotlib v3.3.3, https://matplotlib.org/</dc:title>
     </cc:Agent>
    </dc:creator>
   </cc:Work>
  </rdf:RDF>
 </metadata>
 <defs>
  <style type="text/css">*{stroke-linecap:butt;stroke-linejoin:round;}</style>
 </defs>
 <g id="figure_1">
  <g id="patch_1">
   <path d="M 0 286.935965 
L 427.673143 286.935965 
L 427.673143 0 
L 0 0 
z
" style="fill:#ffffff;"/>
  </g>
  <g id="axes_1">
   <g id="patch_2">
    <path d="M 10.194681 278.333383 
L 403.193143 278.333383 
L 403.193143 30.685 
L 10.194681 30.685 
z
" style="fill:#ffffff;"/>
   </g>
   <g id="matplotlib.axis_1">
    <g id="xtick_1">
     <g id="line2d_1">
      <defs>
       <path d="M 0 0 
L 0 3.5 
" id="m95c8328171" style="stroke:#000000;stroke-width:0.8;"/>
      </defs>
      <g>
       <use style="stroke:#000000;stroke-width:0.8;" x="17.752344" xlink:href="#m95c8328171" y="154.652264"/>
      </g>
     </g>
     <g id="text_1">
      <!-- −10 -->
      <g transform="translate(7.2 169.250702)scale(0.1 -0.1)">
       <defs>
        <path d="M 10.59375 35.5 
L 73.1875 35.5 
L 73.1875 27.203125 
L 10.59375 27.203125 
z
" id="DejaVuSans-8722"/>
        <path d="M 12.40625 8.296875 
L 28.515625 8.296875 
L 28.515625 63.921875 
L 10.984375 60.40625 
L 10.984375 69.390625 
L 28.421875 72.90625 
L 38.28125 72.90625 
L 38.28125 8.296875 
L 54.390625 8.296875 
L 54.390625 0 
L 12.40625 0 
z
" id="DejaVuSans-49"/>
        <path d="M 31.78125 66.40625 
Q 24.171875 66.40625 20.328125 58.90625 
Q 16.5 51.421875 16.5 36.375 
Q 16.5 21.390625 20.328125 13.890625 
Q 24.171875 6.390625 31.78125 6.390625 
Q 39.453125 6.390625 43.28125 13.890625 
Q 47.125 21.390625 47.125 36.375 
Q 47.125 51.421875 43.28125 58.90625 
Q 39.453125 66.40625 31.78125 66.40625 
z
M 31.78125 74.21875 
Q 44.046875 74.21875 50.515625 64.515625 
Q 56.984375 54.828125 56.984375 36.375 
Q 56.984375 17.96875 50.515625 8.265625 
Q 44.046875 -1.421875 31.78125 -1.421875 
Q 19.53125 -1.421875 13.0625 8.265625 
Q 6.59375 17.96875 6.59375 36.375 
Q 6.59375 54.828125 13.0625 64.515625 
Q 19.53125 74.21875 31.78125 74.21875 
z
" id="DejaVuSans-48"/>
       </defs>
       <use xlink:href="#DejaVuSans-8722"/>
       <use x="83.789062" xlink:href="#DejaVuSans-49"/>
       <use x="147.412109" xlink:href="#DejaVuSans-48"/>
      </g>
     </g>
    </g>
    <g id="xtick_2">
     <g id="line2d_2">
      <g>
       <use style="stroke:#000000;stroke-width:0.8;" x="395.63548" xlink:href="#m95c8328171" y="154.652264"/>
      </g>
     </g>
     <g id="text_2">
      <!-- 10 -->
      <g transform="translate(389.27298 169.250702)scale(0.1 -0.1)">
       <use xlink:href="#DejaVuSans-49"/>
       <use x="63.623047" xlink:href="#DejaVuSans-48"/>
      </g>
     </g>
    </g>
    <g id="text_3">
     <!-- $x$ -->
     <g transform="translate(411.193143 154.652264)scale(0.16 -0.16)">
      <defs>
       <path d="M 7.8125 2.875 
Q 9.578125 1.515625 12.796875 1.515625 
Q 15.921875 1.515625 18.3125 4.515625 
Q 20.703125 7.515625 21.578125 11.078125 
L 26.125 28.8125 
Q 27.203125 33.640625 27.203125 35.40625 
Q 27.203125 37.890625 25.8125 39.75 
Q 24.421875 41.609375 21.921875 41.609375 
Q 18.75 41.609375 15.96875 39.625 
Q 13.1875 37.640625 11.28125 34.59375 
Q 9.375 31.546875 8.59375 28.421875 
Q 8.40625 27.78125 7.8125 27.78125 
L 6.59375 27.78125 
Q 5.8125 27.78125 5.8125 28.71875 
L 5.8125 29 
Q 6.78125 32.71875 9.125 36.25 
Q 11.46875 39.796875 14.859375 41.984375 
Q 18.265625 44.1875 22.125 44.1875 
Q 25.78125 44.1875 28.734375 42.234375 
Q 31.6875 40.28125 32.90625 36.921875 
Q 34.625 39.984375 37.28125 42.078125 
Q 39.9375 44.1875 43.109375 44.1875 
Q 45.265625 44.1875 47.5 43.421875 
Q 49.75 42.671875 51.171875 41.109375 
Q 52.59375 39.546875 52.59375 37.203125 
Q 52.59375 34.671875 50.953125 32.828125 
Q 49.3125 31 46.78125 31 
Q 45.171875 31 44.09375 32.03125 
Q 43.015625 33.0625 43.015625 34.625 
Q 43.015625 36.71875 44.453125 38.296875 
Q 45.90625 39.890625 47.90625 40.1875 
Q 46.09375 41.609375 42.921875 41.609375 
Q 39.703125 41.609375 37.328125 38.625 
Q 34.96875 35.640625 33.984375 31.984375 
L 29.59375 14.3125 
Q 28.515625 10.296875 28.515625 7.71875 
Q 28.515625 5.171875 29.953125 3.34375 
Q 31.390625 1.515625 33.796875 1.515625 
Q 38.484375 1.515625 42.15625 5.640625 
Q 45.84375 9.765625 47.015625 14.703125 
Q 47.21875 15.28125 47.796875 15.28125 
L 49.03125 15.28125 
Q 49.421875 15.28125 49.65625 15.015625 
Q 49.90625 14.75 49.90625 14.40625 
Q 49.90625 14.3125 49.8125 14.109375 
Q 48.390625 8.15625 43.84375 3.515625 
Q 39.3125 -1.125 33.59375 -1.125 
Q 29.9375 -1.125 26.984375 0.84375 
Q 24.03125 2.828125 22.796875 6.203125 
Q 21.234375 3.265625 18.46875 1.0625 
Q 15.71875 -1.125 12.59375 -1.125 
Q 10.453125 -1.125 8.171875 -0.359375 
Q 5.90625 0.390625 4.484375 1.953125 
Q 3.078125 3.515625 3.078125 5.90625 
Q 3.078125 8.25 4.703125 10.171875 
Q 6.34375 12.109375 8.796875 12.109375 
Q 10.453125 12.109375 11.578125 11.109375 
Q 12.703125 10.109375 12.703125 8.5 
Q 12.703125 6.390625 11.296875 4.828125 
Q 9.90625 3.265625 7.8125 2.875 
z
" id="Cmmi10-120"/>
      </defs>
      <use transform="translate(0 0.8125)" xlink:href="#Cmmi10-120"/>
     </g>
    </g>
   </g>
   <g id="matplotlib.axis_2">
    <g id="ytick_1">
     <g id="line2d_3">
      <defs>
       <path d="M 0 0 
L -3.5 0 
" id="m137a8f486e" style="stroke:#000000;stroke-width:0.8;"/>
      </defs>
      <g>
       <use style="stroke:#000000;stroke-width:0.8;" x="206.693912" xlink:href="#m137a8f486e" y="35.447469"/>
      </g>
     </g>
     <g id="text_4">
      <!-- 1 -->
      <g transform="translate(193.331412 39.246688)scale(0.1 -0.1)">
       <use xlink:href="#DejaVuSans-49"/>
      </g>
     </g>
    </g>
    <g id="ytick_2">
     <g id="line2d_4">
      <g>
       <use style="stroke:#000000;stroke-width:0.8;" x="206.693912" xlink:href="#m137a8f486e" y="273.857059"/>
      </g>
     </g>
     <g id="text_5">
      <!-- −1 -->
      <g transform="translate(184.951724 277.656278)scale(0.1 -0.1)">
       <use xlink:href="#DejaVuSans-8722"/>
       <use x="83.789062" xlink:href="#DejaVuSans-49"/>
      </g>
     </g>
    </g>
    <g id="text_6">
     <!-- $y$ -->
     <g transform="translate(202.693912 19.325)scale(0.16 -0.16)">
      <defs>
       <path d="M 8.40625 -14.3125 
Q 10.5 -17.921875 15.71875 -17.921875 
Q 20.453125 -17.921875 23.921875 -14.59375 
Q 27.390625 -11.28125 29.515625 -6.5625 
Q 31.640625 -1.859375 32.8125 3.078125 
Q 28.375 -1.125 23.1875 -1.125 
Q 19.234375 -1.125 16.453125 0.234375 
Q 13.671875 1.609375 12.125 4.3125 
Q 10.59375 7.03125 10.59375 10.890625 
Q 10.59375 14.15625 11.46875 17.59375 
Q 12.359375 21.046875 13.9375 25.265625 
Q 15.53125 29.5 16.703125 32.625 
Q 18.015625 36.28125 18.015625 38.625 
Q 18.015625 41.609375 15.828125 41.609375 
Q 11.859375 41.609375 9.296875 37.53125 
Q 6.734375 33.453125 5.515625 28.421875 
Q 5.328125 27.78125 4.6875 27.78125 
L 3.515625 27.78125 
Q 2.6875 27.78125 2.6875 28.71875 
L 2.6875 29 
Q 4.296875 34.96875 7.609375 39.578125 
Q 10.9375 44.1875 16.015625 44.1875 
Q 19.578125 44.1875 22.046875 41.84375 
Q 24.515625 39.5 24.515625 35.890625 
Q 24.515625 34.03125 23.6875 31.984375 
Q 23.25 30.765625 21.6875 26.65625 
Q 20.125 22.5625 19.28125 19.875 
Q 18.453125 17.1875 17.921875 14.59375 
Q 17.390625 12.015625 17.390625 9.421875 
Q 17.390625 6.109375 18.796875 3.8125 
Q 20.21875 1.515625 23.296875 1.515625 
Q 29.5 1.515625 34.421875 9.078125 
L 42 39.890625 
Q 42.328125 41.21875 43.546875 42.15625 
Q 44.78125 43.109375 46.1875 43.109375 
Q 47.40625 43.109375 48.3125 42.328125 
Q 49.21875 41.546875 49.21875 40.28125 
Q 49.21875 39.703125 49.125 39.5 
L 39.203125 -0.296875 
Q 37.890625 -5.421875 34.375 -10.109375 
Q 30.859375 -14.796875 25.90625 -17.65625 
Q 20.953125 -20.515625 15.578125 -20.515625 
Q 12.984375 -20.515625 10.4375 -19.5 
Q 7.90625 -18.5 6.34375 -16.5 
Q 4.78125 -14.5 4.78125 -11.8125 
Q 4.78125 -9.078125 6.390625 -7.078125 
Q 8.015625 -5.078125 10.6875 -5.078125 
Q 12.3125 -5.078125 13.40625 -6.078125 
Q 14.5 -7.078125 14.5 -8.6875 
Q 14.5 -10.984375 12.78125 -12.6875 
Q 11.078125 -14.40625 8.796875 -14.40625 
Q 8.6875 -14.359375 8.59375 -14.328125 
Q 8.5 -14.3125 8.40625 -14.3125 
z
" id="Cmmi10-121"/>
      </defs>
      <use transform="translate(0 0.8125)" xlink:href="#Cmmi10-121"/>
     </g>
    </g>
   </g>
   <g id="line2d_5">
    <path clip-path="url(#p6f504533fb)" d="M 17.752344 37.80796 
L 19.849999 37.860719 
L 22.118702 37.91979 
L 24.000247 37.970435 
L 26.039151 38.027086 
L 27.950928 38.081949 
L 30.010017 38.143014 
L 31.515856 38.18902 
L 32.771703 38.228291 
L 34.208207 38.274251 
L 36.607357 38.353581 
L 38.152077 38.406431 
L 40.153218 38.477059 
L 43.157483 38.587912 
L 44.07989 38.623165 
L 47.112823 38.74334 
L 47.282421 38.750259 
L 49.594694 38.846803 
L 52.316345 38.965934 
L 53.127023 39.002625 
L 55.9329 39.134124 
L 57.843996 39.227887 
L 60.063434 39.341313 
L 61.78177 39.432652 
L 63.325139 39.517443 
L 64.490673 39.583271 
L 68.047538 39.794276 
L 69.760917 39.901691 
L 70.167809 39.927781 
L 72.483293 40.080678 
L 73.870612 40.17604 
L 76.75281 40.383742 
L 79.205216 40.571359 
L 79.987848 40.633471 
L 81.957722 40.79486 
L 84.383877 41.004113 
L 86.393959 41.186848 
L 88.633602 41.40118 
L 90.281389 41.566562 
L 91.997027 41.746118 
L 93.479732 41.907678 
L 94.746115 42.050593 
L 97.772828 42.4118 
L 99.104765 42.580111 
L 101.415991 42.886843 
L 103.175817 43.133711 
L 105.591635 43.492878 
L 107.513149 43.796616 
L 109.688323 44.161404 
L 111.731635 44.526002 
L 113.552826 44.870329 
L 113.940665 44.946149 
L 117.416294 45.667802 
L 118.08361 45.815598 
L 120.715803 46.430457 
L 122.21671 46.805436 
L 123.605184 47.169388 
L 125.705927 47.753587 
L 128.066472 48.462641 
L 130.020751 49.096102 
L 130.891161 49.392905 
L 132.764798 50.064832 
L 135.141079 50.987508 
L 138.020928 52.224559 
L 139.087513 52.719445 
L 140.915916 53.618791 
L 142.4943 54.451183 
L 144.268592 55.454861 
L 146.532476 56.851228 
L 149.075179 58.59454 
L 151.551646 60.496966 
L 152.360337 61.167138 
L 153.657041 62.296793 
L 155.628579 64.155555 
L 158.522655 67.234934 
L 159.366584 68.221462 
L 161.854411 71.395567 
L 163.07509 73.113422 
L 165.300955 76.555967 
L 168.346915 82.019566 
L 169.93811 85.278107 
L 172.386372 90.929761 
L 174.312387 95.999922 
L 175.753134 100.203069 
L 177.588209 106.128842 
L 178.836703 110.565426 
L 180.257555 116.053632 
L 181.678407 122.049729 
L 183.457058 130.336299 
L 184.305939 134.618524 
L 185.523431 141.150304 
L 186.740924 148.158913 
L 188.366482 158.281387 
L 189.464669 165.617182 
L 190.562857 173.343818 
L 191.829346 182.710125 
L 193.095835 192.506213 
L 194.331968 202.392356 
L 196.76091 222.233272 
L 198.050379 232.597516 
L 199.401642 242.947762 
L 200.077274 247.813262 
L 200.752905 252.406313 
L 201.135293 254.865882 
L 202.057147 260.314496 
L 202.979002 264.983605 
L 203.618111 267.702091 
L 204.25722 269.956686 
L 204.896329 271.718441 
L 205.535438 272.964142 
" style="fill:none;stroke:#0000ff;stroke-linecap:square;stroke-width:1.5;"/>
   </g>
   <g id="line2d_6">
    <path clip-path="url(#p6f504533fb)" d="M 207.34888 273.570914 
L 207.95336 272.80242 
L 208.529074 271.628934 
L 209.104787 270.03758 
L 209.680501 268.04538 
L 210.256214 265.673159 
L 210.718743 263.508238 
L 211.447669 259.663674 
L 212.176595 255.341187 
L 212.905522 250.602658 
L 213.634448 245.511633 
L 214.711866 237.475328 
L 215.789284 229.003861 
L 217.759479 212.967825 
L 219.032051 202.585114 
L 220.960252 187.288614 
L 222.50073 175.696936 
L 223.685833 167.254378 
L 224.870937 159.262508 
L 226.140611 151.217178 
L 227.410286 143.707784 
L 228.854885 135.801024 
L 230.637862 126.933512 
L 231.670911 122.219693 
L 232.703961 117.797412 
L 234.611834 110.341586 
L 235.645132 106.659253 
L 237.157147 101.680761 
L 238.669163 97.147687 
L 239.952099 93.61838 
L 241.762125 89.084547 
L 242.981302 86.29672 
L 244.667548 82.757248 
L 246.353794 79.548118 
L 246.910221 78.555349 
L 250.120778 73.394024 
L 251.907807 70.890834 
L 253.24451 69.168314 
L 254.479549 67.680398 
L 257.4714 64.44226 
L 258.492588 63.443214 
L 260.364876 61.735661 
L 263.478694 59.21115 
L 264.153201 58.710627 
L 267.232099 56.609223 
L 267.69173 56.319323 
L 270.085169 54.899141 
L 272.701291 53.502264 
L 273.996147 52.864484 
L 275.511823 52.158918 
L 277.930807 51.116575 
L 279.277943 50.576913 
L 281.864902 49.614306 
L 284.401326 48.75535 
L 286.378003 48.138006 
L 287.586263 47.781195 
L 289.004618 47.380888 
L 292.083538 46.575272 
L 293.654529 46.194805 
L 295.624665 45.744234 
L 296.864882 45.474768 
L 298.453087 45.144655 
L 301.150765 44.619669 
L 302.312195 44.406524 
L 303.547948 44.187695 
L 306.568017 43.685087 
L 308.506624 43.384715 
L 310.243683 43.12916 
L 312.062622 42.874428 
L 314.125265 42.60045 
L 315.358847 42.443707 
L 317.853667 42.14191 
L 320.489183 41.843635 
L 322.010754 41.680341 
L 324.249978 41.451076 
L 324.589703 41.417391 
L 327.513972 41.138717 
L 329.083407 40.997068 
L 331.171821 40.816573 
L 333.79885 40.601676 
L 333.93664 40.59076 
L 337.152175 40.345486 
L 338.333136 40.259764 
L 340.57614 40.10299 
L 341.935291 40.011669 
L 344.506821 39.846039 
L 345.367048 39.792629 
L 348.050557 39.632086 
L 350.927673 39.469594 
L 352.503202 39.38457 
L 354.28502 39.291604 
L 355.414263 39.234372 
L 358.218664 39.097621 
L 358.825459 39.069002 
L 362.184471 38.916475 
L 363.781878 38.847283 
L 365.478689 38.776018 
L 366.892167 38.718341 
L 368.782042 38.643529 
L 371.843109 38.527664 
L 373.582073 38.464616 
L 374.938509 38.416765 
L 376.544372 38.361567 
L 378.650493 38.291467 
L 380.91166 38.218974 
L 382.0521 38.183455 
L 383.938455 38.126179 
L 386.84767 38.041297 
L 387.166576 38.032238 
L 389.796265 37.959303 
L 391.709898 37.908145 
L 394.128103 37.845696 
L 395.63548 37.80796 
" style="fill:none;stroke:#0000ff;stroke-linecap:square;stroke-width:1.5;"/>
   </g>
   <g id="line2d_7">
    <path clip-path="url(#p6f504533fb)" d="M 17.752344 35.447469 
L 395.63548 35.447469 
L 395.63548 35.447469 
" style="fill:none;stroke:#d3d3d3;stroke-dasharray:3.7,1.6;stroke-dashoffset:0;"/>
   </g>
   <g id="patch_3">
    <path d="M 206.693912 278.333383 
L 206.693912 30.685 
" style="fill:none;stroke:#000000;stroke-linecap:square;stroke-linejoin:miter;stroke-width:0.8;"/>
   </g>
   <g id="patch_4">
    <path d="M 10.194681 154.652264 
L 403.193143 154.652264 
" style="fill:none;stroke:#000000;stroke-linecap:square;stroke-linejoin:miter;stroke-width:0.8;"/>
   </g>
   <g id="text_7">
    <!-- $y=\dfrac{x^2-1}{x^2+1}$ -->
    <g style="fill:#0000ff;" transform="translate(274.644696 97.269866)scale(0.12 -0.12)">
     <defs>
      <path d="M 7.515625 13.28125 
Q 6.6875 13.28125 6.140625 13.90625 
Q 5.609375 14.546875 5.609375 15.28125 
Q 5.609375 16.109375 6.140625 16.6875 
Q 6.6875 17.28125 7.515625 17.28125 
L 70.3125 17.28125 
Q 71.046875 17.28125 71.578125 16.6875 
Q 72.125 16.109375 72.125 15.28125 
Q 72.125 14.546875 71.578125 13.90625 
Q 71.046875 13.28125 70.3125 13.28125 
z
M 7.515625 32.71875 
Q 6.6875 32.71875 6.140625 33.296875 
Q 5.609375 33.890625 5.609375 34.71875 
Q 5.609375 35.453125 6.140625 36.078125 
Q 6.6875 36.71875 7.515625 36.71875 
L 70.3125 36.71875 
Q 71.046875 36.71875 71.578125 36.078125 
Q 72.125 35.453125 72.125 34.71875 
Q 72.125 33.890625 71.578125 33.296875 
Q 71.046875 32.71875 70.3125 32.71875 
z
" id="Cmr10-61"/>
      <path d="M 4.984375 0 
L 4.984375 2.6875 
Q 4.984375 2.9375 5.171875 3.21875 
L 20.703125 20.40625 
Q 24.21875 24.21875 26.40625 26.796875 
Q 28.609375 29.390625 30.75 32.765625 
Q 32.90625 36.140625 34.15625 39.625 
Q 35.40625 43.109375 35.40625 47.015625 
Q 35.40625 51.125 33.890625 54.859375 
Q 32.375 58.59375 29.375 60.84375 
Q 26.375 63.09375 22.125 63.09375 
Q 17.78125 63.09375 14.3125 60.46875 
Q 10.84375 57.859375 9.421875 53.71875 
Q 9.8125 53.8125 10.5 53.8125 
Q 12.75 53.8125 14.328125 52.296875 
Q 15.921875 50.78125 15.921875 48.390625 
Q 15.921875 46.09375 14.328125 44.5 
Q 12.75 42.921875 10.5 42.921875 
Q 8.15625 42.921875 6.5625 44.546875 
Q 4.984375 46.1875 4.984375 48.390625 
Q 4.984375 52.15625 6.390625 55.4375 
Q 7.8125 58.734375 10.46875 61.296875 
Q 13.140625 63.875 16.484375 65.234375 
Q 19.828125 66.609375 23.578125 66.609375 
Q 29.296875 66.609375 34.21875 64.1875 
Q 39.15625 61.765625 42.03125 57.34375 
Q 44.921875 52.9375 44.921875 47.015625 
Q 44.921875 42.671875 43.015625 38.765625 
Q 41.109375 34.859375 38.125 31.65625 
Q 35.15625 28.46875 30.515625 24.40625 
Q 25.875 20.359375 24.421875 19 
L 13.09375 8.109375 
L 22.703125 8.109375 
Q 29.78125 8.109375 34.546875 8.21875 
Q 39.3125 8.34375 39.59375 8.59375 
Q 40.765625 9.859375 42 17.828125 
L 44.921875 17.828125 
L 42.09375 0 
z
" id="Cmr10-50"/>
      <path d="M 10.203125 23 
Q 9.375 23 8.828125 23.625 
Q 8.296875 24.265625 8.296875 25 
Q 8.296875 25.734375 8.828125 26.359375 
Q 9.375 27 10.203125 27 
L 67.578125 27 
Q 68.359375 27 68.875 26.359375 
Q 69.390625 25.734375 69.390625 25 
Q 69.390625 24.265625 68.875 23.625 
Q 68.359375 23 67.578125 23 
z
" id="Cmsy10-161"/>
      <path d="M 9.28125 0 
L 9.28125 3.515625 
Q 21.78125 3.515625 21.78125 6.6875 
L 21.78125 59.1875 
Q 16.609375 56.6875 8.6875 56.6875 
L 8.6875 60.203125 
Q 20.953125 60.203125 27.203125 66.609375 
L 28.609375 66.609375 
Q 28.953125 66.609375 29.265625 66.328125 
Q 29.59375 66.0625 29.59375 65.71875 
L 29.59375 6.6875 
Q 29.59375 3.515625 42.09375 3.515625 
L 42.09375 0 
z
" id="Cmr10-49"/>
      <path d="M 7.515625 23 
Q 6.6875 23 6.140625 23.625 
Q 5.609375 24.265625 5.609375 25 
Q 5.609375 25.734375 6.140625 26.359375 
Q 6.6875 27 7.515625 27 
L 36.921875 27 
L 36.921875 56.5 
Q 36.921875 57.28125 37.5 57.78125 
Q 38.09375 58.296875 38.921875 58.296875 
Q 39.65625 58.296875 40.28125 57.78125 
Q 40.921875 57.28125 40.921875 56.5 
L 40.921875 27 
L 70.3125 27 
Q 71.046875 27 71.578125 26.359375 
Q 72.125 25.734375 72.125 25 
Q 72.125 24.265625 71.578125 23.625 
Q 71.046875 23 70.3125 23 
L 40.921875 23 
L 40.921875 -6.5 
Q 40.921875 -7.28125 40.28125 -7.78125 
Q 39.65625 -8.296875 38.921875 -8.296875 
Q 38.09375 -8.296875 37.5 -7.78125 
Q 36.921875 -7.28125 36.921875 -6.5 
L 36.921875 23 
z
" id="Cmr10-43"/>
     </defs>
     <use transform="translate(0 0.484375)" xlink:href="#Cmmi10-121"/>
     <use transform="translate(66.582031 0.484375)" xlink:href="#Cmr10-61"/>
     <use transform="translate(161.826172 39.109375)" xlink:href="#Cmmi10-120"/>
     <use transform="translate(225.209531 77.373437)scale(0.7)" xlink:href="#Cmr10-50"/>
     <use transform="translate(284.145469 39.109375)" xlink:href="#Cmsy10-161"/>
     <use transform="translate(379.389609 39.109375)" xlink:href="#Cmr10-49"/>
     <use transform="translate(161.826172 -78.15625)" xlink:href="#Cmmi10-120"/>
     <use transform="translate(225.209531 -39.892188)scale(0.7)" xlink:href="#Cmr10-50"/>
     <use transform="translate(284.145469 -78.15625)" xlink:href="#Cmr10-43"/>
     <use transform="translate(379.389609 -78.15625)" xlink:href="#Cmr10-49"/>
     <path d="M 161.826172 12.984375 
L 161.826172 19.234375 
L 429.389609 19.234375 
L 429.389609 12.984375 
L 161.826172 12.984375 
z
"/>
    </g>
   </g>
  </g>
 </g>
 <defs>
  <clipPath id="p6f504533fb">
   <rect height="247.648383" width="392.998462" x="10.194681" y="30.685"/>
  </clipPath>
 </defs>
</svg>
