<?xml version="1.0" encoding="UTF-8" standalone="no"?>
<svg
   xmlns:dc="http://purl.org/dc/elements/1.1/"
   xmlns:cc="http://creativecommons.org/ns#"
   xmlns:rdf="http://www.w3.org/1999/02/22-rdf-syntax-ns#"
   xmlns:svg="http://www.w3.org/2000/svg"
   xmlns="http://www.w3.org/2000/svg"
   xmlns:sodipodi="http://sodipodi.sourceforge.net/DTD/sodipodi-0.dtd"
   xmlns:inkscape="http://www.inkscape.org/namespaces/inkscape"
   width="213.644012pt"
   height="136.143753pt"
   viewBox="0 0 213.644012 136.143753"
   version="1.1"
   id="svg185"
   sodipodi:docname="maxmin2.svg"
   inkscape:version="0.92.5 (2060ec1f9f, 2020-04-08)">
  <metadata
     id="metadata189">
    <rdf:RDF>
      <cc:Work
         rdf:about="">
        <dc:format>image/svg+xml</dc:format>
        <dc:type
           rdf:resource="http://purl.org/dc/dcmitype/StillImage" />
        <dc:title></dc:title>
      </cc:Work>
    </rdf:RDF>
  </metadata>
  <sodipodi:namedview
     pagecolor="#ffffff"
     bordercolor="#666666"
     borderopacity="1"
     objecttolerance="10"
     gridtolerance="10"
     guidetolerance="10"
     inkscape:pageopacity="0"
     inkscape:pageshadow="2"
     inkscape:window-width="1848"
     inkscape:window-height="1016"
     id="namedview187"
     showgrid="false"
     inkscape:zoom="3.2"
     inkscape:cx="142.42934"
     inkscape:cy="90.762502"
     inkscape:window-x="72"
     inkscape:window-y="27"
     inkscape:window-maximized="1"
     inkscape:current-layer="surface1" />
  <defs
     id="defs8">
    <clipPath
       id="clip1">
      <path
         d="M 205 78 L 213.644531 78 L 213.644531 87 L 205 87 Z M 205 78 "
         id="path2" />
    </clipPath>
    <clipPath
       id="clip2">
      <path
         d="M 82 128 L 88 128 L 88 136.144531 L 82 136.144531 Z M 82 128 "
         id="path5" />
    </clipPath>
  </defs>
  <g
     id="surface1">
    <path
       style="fill:none;stroke-width:0.8;stroke-linecap:butt;stroke-linejoin:miter;stroke:rgb(100%,0%,0%);stroke-opacity:1;stroke-miterlimit:4;"
       d="M 10.515625 125.960938 L 10.515625 10.761719 "
       id="path10" />
    <path
       style="fill-rule:evenodd;fill:rgb(100%,0%,0%);fill-opacity:1;stroke-width:0.4;stroke-linecap:butt;stroke-linejoin:miter;stroke:rgb(100%,0%,0%);stroke-opacity:1;stroke-miterlimit:4;"
       d="M -122.761719 10.515625 L -121.164062 8.914062 L -126.761719 10.515625 L -121.164062 12.117188 Z M -122.761719 10.515625 "
       transform="matrix(0,-1,1,0,0,0)"
       id="path12" />
    <path
       style="fill-rule:evenodd;fill:rgb(100%,0%,0%);fill-opacity:1;stroke-width:0.4;stroke-linecap:butt;stroke-linejoin:miter;stroke:rgb(100%,0%,0%);stroke-opacity:1;stroke-miterlimit:4;"
       d="M 13.960938 -10.515625 L 15.5625 -12.117188 L 9.960938 -10.515625 L 15.5625 -8.914062 Z M 13.960938 -10.515625 "
       transform="matrix(0,1,-1,0,0,0)"
       id="path14" />
    <path
       style="fill:none;stroke-width:0.8;stroke-linecap:butt;stroke-linejoin:miter;stroke:rgb(100%,0%,0%);stroke-opacity:1;stroke-miterlimit:4;"
       d="M 0.914062 82.761719 L 212.117188 82.761719 "
       id="path16" />
    <path
       style="fill-rule:evenodd;fill:rgb(100%,0%,0%);fill-opacity:1;stroke-width:0.2;stroke-linecap:butt;stroke-linejoin:miter;stroke:rgb(100%,0%,0%);stroke-opacity:1;stroke-miterlimit:4;"
       d="M 1.699212 82.761719 C 1.699212 83.203125 1.339837 83.5625 0.898431 83.5625 C 0.457025 83.5625 0.101556 83.203125 0.101556 82.761719 C 0.101556 82.320313 0.457025 81.960938 0.898431 81.960938 C 1.339838 81.960938 1.699213 82.320313 1.699212 82.761719 Z M 1.699212 82.761719 "
       transform="matrix(1,-0.0000000757576,0.0000000757576,1,0,0)"
       id="path18" />
    <path
       style=" stroke:none;fill-rule:evenodd;fill:rgb(100%,0%,0%);fill-opacity:1;"
       d="M 208.914062 82.761719 L 207.316406 84.363281 L 212.914062 82.761719 L 207.316406 81.164062 Z M 208.914062 82.761719 "
       id="path20" />
    <g
       clip-path="url(#clip1)"
       clip-rule="nonzero"
       id="g24">
      <path
         style="fill:none;stroke-width:0.4;stroke-linecap:butt;stroke-linejoin:miter;stroke:rgb(100%,0%,0%);stroke-opacity:1;stroke-miterlimit:4;"
         d="M -208.914056 -82.761735 L -207.3164 -84.363297 L -212.914056 -82.761735 L -207.3164 -81.164078 Z M -208.914056 -82.761735 "
         transform="matrix(-1,0.0000000757576,-0.0000000757576,-1,0,0)"
         id="path22" />
    </g>
    <path
       style="fill:none;stroke-width:1.6;stroke-linecap:butt;stroke-linejoin:miter;stroke:rgb(100%,100%,100%);stroke-opacity:1;stroke-miterlimit:4;"
       d="M 39.714844 53.960938 C 39.714844 53.960938 48.914062 68.363281 58.515625 68.363281 C 68.117188 68.363281 77.714844 25.164062 92.117188 25.164062 C 106.515625 25.164062 101.714844 106.761719 116.117188 106.761719 C 130.515625 106.761719 130.515625 77.960938 144.914062 77.960938 C 159.316406 77.960938 183.316406 121.164062 183.316406 121.164062 "
       id="path26" />
    <path
       style="fill:none;stroke-width:0.8;stroke-linecap:butt;stroke-linejoin:miter;stroke:rgb(0%,0%,0%);stroke-opacity:1;stroke-dasharray:0.8,1.6;stroke-miterlimit:4;"
       d="M 39.316406 56.363281 L 39.316406 82.761719 "
       id="path28" />
    <path
       style="fill:none;stroke-width:0.8;stroke-linecap:butt;stroke-linejoin:miter;stroke:rgb(0%,0%,0%);stroke-opacity:1;stroke-dasharray:0.8,1.6;stroke-miterlimit:4;"
       d="M 183.316406 82.761719 L 183.316406 121.164062 "
       id="path30" />
    <path
       style="fill:none;stroke-width:0.8;stroke-linecap:butt;stroke-linejoin:miter;stroke:rgb(0%,0%,0%);stroke-opacity:1;stroke-miterlimit:4;"
       d="M 39.714844 53.960938 C 39.714844 53.960938 48.914062 68.363281 58.515625 68.363281 C 68.117188 68.363281 77.714844 25.164062 92.117188 25.164062 C 106.515625 25.164062 101.714844 106.761719 116.117188 106.761719 C 130.515625 106.761719 130.515625 77.960938 144.914062 77.960938 C 159.316406 77.960938 183.316406 121.164062 183.316406 121.164062 "
       id="path32" />
    <path
       style="fill-rule:nonzero;fill:rgb(0%,50.195312%,50.195312%);fill-opacity:1;stroke-width:0.8;stroke-linecap:butt;stroke-linejoin:miter;stroke:rgb(100%,100%,100%);stroke-opacity:1;stroke-miterlimit:4;"
       d="M 41.714844 53.960938 C 41.714844 55.289062 40.640625 56.363281 39.316406 56.363281 C 37.992188 56.363281 36.914062 55.289062 36.914062 53.960938 C 36.914062 52.636719 37.992188 51.5625 39.316406 51.5625 C 40.640625 51.5625 41.714844 52.636719 41.714844 53.960938 Z M 41.714844 53.960938 "
       id="path34" />
    <path
       style="fill-rule:nonzero;fill:rgb(0%,0%,100%);fill-opacity:1;stroke-width:0.8;stroke-linecap:butt;stroke-linejoin:miter;stroke:rgb(100%,100%,100%);stroke-opacity:1;stroke-miterlimit:4;"
       d="M 185.714844 121.164062 C 185.714844 122.488281 184.640625 123.5625 183.316406 123.5625 C 181.992188 123.5625 180.914062 122.488281 180.914062 121.164062 C 180.914062 119.835938 181.992188 118.761719 183.316406 118.761719 C 184.640625 118.761719 185.714844 119.835938 185.714844 121.164062 Z M 185.714844 121.164062 "
       id="path36" />
    <path
       style="fill-rule:nonzero;fill:rgb(0%,0%,100%);fill-opacity:1;stroke-width:0.8;stroke-linecap:butt;stroke-linejoin:miter;stroke:rgb(100%,100%,100%);stroke-opacity:1;stroke-miterlimit:4;"
       d="M 118.515625 106.761719 C 118.515625 108.089844 117.441406 109.164062 116.117188 109.164062 C 114.789062 109.164062 113.714844 108.089844 113.714844 106.761719 C 113.714844 105.4375 114.789062 104.363281 116.117188 104.363281 C 117.441406 104.363281 118.515625 105.4375 118.515625 106.761719 Z M 118.515625 106.761719 "
       id="path38" />
    <path
       style="fill-rule:nonzero;fill:rgb(0%,50.195312%,50.195312%);fill-opacity:1;stroke-width:0.8;stroke-linecap:butt;stroke-linejoin:miter;stroke:rgb(100%,100%,100%);stroke-opacity:1;stroke-miterlimit:4;"
       d="M 147.316406 77.960938 C 147.316406 79.289062 146.242188 80.363281 144.914062 80.363281 C 143.589844 80.363281 142.515625 79.289062 142.515625 77.960938 C 142.515625 76.636719 143.589844 75.5625 144.914062 75.5625 C 146.242188 75.5625 147.316406 76.636719 147.316406 77.960938 Z M 147.316406 77.960938 "
       id="path40" />
    <path
       style="fill-rule:nonzero;fill:rgb(0%,50.195312%,50.195312%);fill-opacity:1;stroke-width:0.8;stroke-linecap:butt;stroke-linejoin:miter;stroke:rgb(100%,100%,100%);stroke-opacity:1;stroke-miterlimit:4;"
       d="M 94.515625 25.164062 C 94.515625 26.488281 93.441406 27.5625 92.117188 27.5625 C 90.789062 27.5625 89.714844 26.488281 89.714844 25.164062 C 89.714844 23.835938 90.789062 22.761719 92.117188 22.761719 C 93.441406 22.761719 94.515625 23.835938 94.515625 25.164062 Z M 94.515625 25.164062 "
       id="path42" />
    <path
       style="fill-rule:nonzero;fill:rgb(0%,0%,100%);fill-opacity:1;stroke-width:0.8;stroke-linecap:butt;stroke-linejoin:miter;stroke:rgb(100%,100%,100%);stroke-opacity:1;stroke-miterlimit:4;"
       d="M 60.914062 68.363281 C 60.914062 69.6875 59.839844 70.761719 58.515625 70.761719 C 57.191406 70.761719 56.117188 69.6875 56.117188 68.363281 C 56.117188 67.035156 57.191406 65.960938 58.515625 65.960938 C 59.839844 65.960938 60.914062 67.035156 60.914062 68.363281 Z M 60.914062 68.363281 "
       id="path44" />
    <path
       style=" stroke:none;fill-rule:nonzero;fill:rgb(0%,0%,0%);fill-opacity:1;"
       d="M 40.554688 87.460938 C 40.328125 87.011719 39.992188 86.691406 39.445312 86.691406 C 38.058594 86.691406 36.578125 88.457031 36.578125 90.199219 C 36.578125 91.324219 37.234375 92.113281 38.152344 92.113281 C 38.398438 92.113281 38.996094 92.054688 39.710938 91.210938 C 39.804688 91.71875 40.234375 92.113281 40.796875 92.113281 C 41.226562 92.113281 41.492188 91.832031 41.695312 91.457031 C 41.882812 91.023438 42.054688 90.292969 42.054688 90.273438 C 42.054688 90.144531 41.941406 90.144531 41.902344 90.144531 C 41.789062 90.144531 41.773438 90.199219 41.734375 90.367188 C 41.527344 91.136719 41.320312 91.847656 40.835938 91.847656 C 40.496094 91.847656 40.476562 91.53125 40.476562 91.304688 C 40.476562 91.042969 40.496094 90.929688 40.628906 90.40625 C 40.757812 89.917969 40.777344 89.785156 40.890625 89.335938 L 41.320312 87.667969 C 41.398438 87.332031 41.398438 87.3125 41.398438 87.253906 C 41.398438 87.050781 41.265625 86.9375 41.058594 86.9375 C 40.757812 86.9375 40.589844 87.199219 40.554688 87.460938 Z M 39.785156 90.554688 C 39.710938 90.78125 39.710938 90.800781 39.539062 91.003906 C 39.015625 91.660156 38.527344 91.847656 38.191406 91.847656 C 37.589844 91.847656 37.421875 91.191406 37.421875 90.722656 C 37.421875 90.125 37.796875 88.660156 38.078125 88.097656 C 38.453125 87.40625 38.976562 86.957031 39.464844 86.957031 C 40.234375 86.957031 40.402344 87.929688 40.402344 88.003906 C 40.402344 88.082031 40.382812 88.15625 40.367188 88.210938 Z M 39.785156 90.554688 "
       id="path46" />
    <path
       style=" stroke:none;fill-rule:nonzero;fill:rgb(0%,0%,0%);fill-opacity:1;"
       d="M 183.480469 70.464844 C 183.480469 70.464844 183.480469 70.332031 183.328125 70.332031 C 183.066406 70.332031 182.183594 70.425781 181.867188 70.464844 C 181.773438 70.464844 181.640625 70.480469 181.640625 70.6875 C 181.640625 70.839844 181.753906 70.839844 181.941406 70.839844 C 182.503906 70.839844 182.523438 70.914062 182.523438 71.042969 C 182.523438 71.121094 182.429688 71.53125 182.371094 71.777344 L 181.378906 75.675781 C 181.246094 76.277344 181.191406 76.480469 181.191406 76.894531 C 181.191406 78.019531 181.828125 78.769531 182.710938 78.769531 C 184.117188 78.769531 185.597656 76.988281 185.597656 75.261719 C 185.597656 74.175781 184.960938 73.351562 184.003906 73.351562 C 183.460938 73.351562 182.953125 73.707031 182.597656 74.0625 Z M 182.371094 74.980469 C 182.429688 74.71875 182.429688 74.699219 182.542969 74.570312 C 183.121094 73.800781 183.667969 73.613281 183.984375 73.613281 C 184.417969 73.613281 184.734375 73.96875 184.734375 74.738281 C 184.734375 75.449219 184.339844 76.820312 184.117188 77.269531 C 183.722656 78.074219 183.179688 78.507812 182.710938 78.507812 C 182.296875 78.507812 181.902344 78.1875 181.902344 77.308594 C 181.902344 77.0625 181.902344 76.839844 182.089844 76.089844 Z M 182.371094 74.980469 "
       id="path48" />
    <path
       style="fill:none;stroke-width:0.4;stroke-linecap:butt;stroke-linejoin:miter;stroke:rgb(100%,0%,0%);stroke-opacity:1;stroke-miterlimit:4;"
       d="M 130.515625 15.5625 L 101.714844 15.5625 L 96.914062 20.363281 "
       id="path50" />
    <path
       style="fill-rule:evenodd;fill:rgb(100%,0%,0%);fill-opacity:1;stroke-width:0.1;stroke-linecap:butt;stroke-linejoin:miter;stroke:rgb(100%,0%,0%);stroke-opacity:1;stroke-miterlimit:4;"
       d="M -130.125 -15.5625 C -130.125 -15.339844 -130.304688 -15.164062 -130.523438 -15.164062 C -130.746094 -15.164062 -130.925781 -15.339844 -130.925781 -15.5625 C -130.925781 -15.785156 -130.746094 -15.960938 -130.523438 -15.960938 C -130.304688 -15.960938 -130.125 -15.785156 -130.125 -15.5625 Z M -130.125 -15.5625 "
       transform="matrix(-1,0,0,-1,0,0)"
       id="path52" />
    <path
       style="fill-rule:evenodd;fill:rgb(100%,0%,0%);fill-opacity:1;stroke-width:0.141421;stroke-linecap:butt;stroke-linejoin:miter;stroke:rgb(100%,0%,0%);stroke-opacity:1;stroke-miterlimit:4;"
       d="M 39.408203 58.638672 L 39.972656 58.074219 L 37.994141 58.638672 L 39.974609 59.205078 Z M 39.408203 58.638672 "
       transform="matrix(1,-1,1,1,0,0)"
       id="path54" />
    <path
       style="fill:none;stroke-width:0.4;stroke-linecap:butt;stroke-linejoin:miter;stroke:rgb(100%,0%,0%);stroke-opacity:1;stroke-miterlimit:4;"
       d="M 130.515625 20.363281 L 130.515625 63.5625 L 140.117188 73.164062 "
       id="path56" />
    <path
       style="fill-rule:evenodd;fill:rgb(100%,0%,0%);fill-opacity:1;stroke-width:0.1;stroke-linecap:butt;stroke-linejoin:miter;stroke:rgb(100%,0%,0%);stroke-opacity:1;stroke-miterlimit:4;"
       d="M 20.753906 -130.515625 C 20.753906 -130.296875 20.574219 -130.117188 20.355469 -130.117188 C 20.132812 -130.117188 19.953125 -130.296875 19.953125 -130.515625 C 19.953125 -130.738281 20.132812 -130.914062 20.355469 -130.914062 C 20.574219 -130.914062 20.753906 -130.738281 20.753906 -130.515625 Z M 20.753906 -130.515625 "
       transform="matrix(0,1,-1,0,0,0)"
       id="path58" />
    <path
       style="fill-rule:evenodd;fill:rgb(100%,0%,0%);fill-opacity:1;stroke-width:0.141421;stroke-linecap:butt;stroke-linejoin:miter;stroke:rgb(100%,0%,0%);stroke-opacity:1;stroke-miterlimit:4;"
       d="M -105.507812 33.476562 L -104.941406 32.910156 L -106.921875 33.476562 L -104.941406 34.042969 Z M -105.507812 33.476562 "
       transform="matrix(-1,-1,1,-1,0,0)"
       id="path60" />
    <path
       style="fill:none;stroke-width:0.4;stroke-linecap:butt;stroke-linejoin:miter;stroke:rgb(100%,0%,0%);stroke-opacity:1;stroke-miterlimit:4;"
       d="M 101.714844 116.363281 L 106.515625 116.363281 L 111.316406 111.5625 "
       id="path62" />
    <path
       style="fill-rule:evenodd;fill:rgb(100%,0%,0%);fill-opacity:1;stroke-width:0.1;stroke-linecap:butt;stroke-linejoin:miter;stroke:rgb(100%,0%,0%);stroke-opacity:1;stroke-miterlimit:4;"
       d="M 102.109375 116.363281 C 102.109375 116.582031 101.929688 116.761719 101.707031 116.761719 C 101.488281 116.761719 101.308594 116.582031 101.308594 116.363281 C 101.308594 116.140625 101.488281 115.960938 101.707031 115.960938 C 101.929688 115.960938 102.109375 116.140625 102.109375 116.363281 Z M 102.109375 116.363281 "
       id="path64" />
    <path
       style="fill-rule:evenodd;fill:rgb(100%,0%,0%);fill-opacity:1;stroke-width:0.141421;stroke-linecap:butt;stroke-linejoin:miter;stroke:rgb(100%,0%,0%);stroke-opacity:1;stroke-miterlimit:4;"
       d="M 1.255859 -111.439453 L 1.820312 -112.003906 L -0.158203 -111.439453 L 1.820312 -110.875 Z M 1.255859 -111.439453 "
       transform="matrix(-1,1,-1,-1,0,0)"
       id="path66" />
    <path
       style="fill:none;stroke-width:0.4;stroke-linecap:butt;stroke-linejoin:miter;stroke:rgb(100%,0%,0%);stroke-opacity:1;stroke-miterlimit:4;"
       d="M 68.117188 106.761719 L 68.117188 77.960938 L 63.316406 73.164062 "
       id="path68" />
    <path
       style="fill-rule:evenodd;fill:rgb(100%,0%,0%);fill-opacity:1;stroke-width:0.1;stroke-linecap:butt;stroke-linejoin:miter;stroke:rgb(100%,0%,0%);stroke-opacity:1;stroke-miterlimit:4;"
       d="M -106.371094 68.117188 C -106.371094 68.335938 -106.550781 68.515625 -106.769531 68.515625 C -106.992188 68.515625 -107.171875 68.335938 -107.171875 68.117188 C -107.171875 67.894531 -106.992188 67.714844 -106.769531 67.714844 C -106.550781 67.714844 -106.371094 67.894531 -106.371094 68.117188 Z M -106.371094 68.117188 "
       transform="matrix(0,-1,1,0,0,0)"
       id="path70" />
    <path
       style="fill-rule:evenodd;fill:rgb(100%,0%,0%);fill-opacity:1;stroke-width:0.141421;stroke-linecap:butt;stroke-linejoin:miter;stroke:rgb(100%,0%,0%);stroke-opacity:1;stroke-miterlimit:4;"
       d="M 69.371094 4.921875 L 69.935547 4.357422 L 67.955078 4.923828 L 69.9375 5.488281 Z M 69.371094 4.921875 "
       transform="matrix(1,1,-1,1,0,0)"
       id="path72" />
    <path
       style="fill:none;stroke-width:0.4;stroke-linecap:butt;stroke-linejoin:miter;stroke:rgb(100%,0%,0%);stroke-opacity:1;stroke-miterlimit:4;"
       d="M 168.914062 130.761719 L 173.714844 130.761719 L 178.515625 125.960938 "
       id="path124" />
    <path
       style="fill-rule:evenodd;fill:rgb(100%,0%,0%);fill-opacity:1;stroke-width:0.1;stroke-linecap:butt;stroke-linejoin:miter;stroke:rgb(100%,0%,0%);stroke-opacity:1;stroke-miterlimit:4;"
       d="M 169.308594 130.761719 C 169.308594 130.984375 169.128906 131.164062 168.90625 131.164062 C 168.6875 131.164062 168.507812 130.984375 168.507812 130.761719 C 168.507812 130.542969 168.6875 130.363281 168.90625 130.363281 C 169.128906 130.363281 169.308594 130.542969 169.308594 130.761719 Z M 169.308594 130.761719 "
       id="path126" />
    <path
       style="fill-rule:evenodd;fill:rgb(100%,0%,0%);fill-opacity:1;stroke-width:0.141421;stroke-linecap:butt;stroke-linejoin:miter;stroke:rgb(100%,0%,0%);stroke-opacity:1;stroke-miterlimit:4;"
       d="M -25.144531 -152.238281 L -24.578125 -152.804688 L -26.560547 -152.240234 L -24.580078 -151.673828 Z M -25.144531 -152.238281 "
       transform="matrix(-1,1,-1,-1,0,0)"
       id="path128" />
    <path
       style="fill:none;stroke-width:0.4;stroke-linecap:butt;stroke-linejoin:miter;stroke:rgb(100%,0%,0%);stroke-opacity:1;stroke-miterlimit:4;"
       d="M 82.515625 10.761719 L 82.515625 15.5625 L 87.316406 20.363281 "
       id="path178" />
    <path
       style="fill-rule:evenodd;fill:rgb(100%,0%,0%);fill-opacity:1;stroke-width:0.1;stroke-linecap:butt;stroke-linejoin:miter;stroke:rgb(100%,0%,0%);stroke-opacity:1;stroke-miterlimit:4;"
       d="M 11.15625 -82.515625 C 11.15625 -82.296875 10.976562 -82.117188 10.753906 -82.117188 C 10.535156 -82.117188 10.355469 -82.296875 10.355469 -82.515625 C 10.355469 -82.738281 10.535156 -82.914062 10.753906 -82.914062 C 10.976562 -82.914062 11.15625 -82.738281 11.15625 -82.515625 Z M 11.15625 -82.515625 "
       transform="matrix(0,1,-1,0,0,0)"
       id="path180" />
    <path
       style="fill-rule:evenodd;fill:rgb(100%,0%,0%);fill-opacity:1;stroke-width:0.141421;stroke-linecap:butt;stroke-linejoin:miter;stroke:rgb(100%,0%,0%);stroke-opacity:1;stroke-miterlimit:4;"
       d="M -52.707031 33.476562 L -52.142578 32.912109 L -54.121094 33.476562 L -52.142578 34.041016 Z M -52.707031 33.476562 "
       transform="matrix(-1,-1,1,-1,0,0)"
       id="path182" />
    <text
       xml:space="preserve"
       style="font-style:normal;font-weight:normal;font-size:8px;line-height:1.25;font-family:sans-serif;letter-spacing:0px;word-spacing:0px;fill:#000000;fill-opacity:1;stroke:none;stroke-width:0.75"
       x="25.3125"
       y="8.6437531"
       id="text193"><tspan
         sodipodi:role="line"
         id="tspan191"
         x="25.3125"
         y="8.6437531"
         style="font-size:10px;stroke-width:0.75">máximo global</tspan></text>
    <text
       xml:space="preserve"
       style="font-style:normal;font-weight:normal;font-size:8px;line-height:1.25;font-family:sans-serif;letter-spacing:0px;word-spacing:0px;fill:#000000;fill-opacity:1;stroke:none;stroke-width:0.75"
       x="133.35938"
       y="20.362503"
       id="text197"><tspan
         sodipodi:role="line"
         id="tspan195"
         x="133.35938"
         y="20.362503"
         style="font-size:10px;stroke-width:0.75">máximo local</tspan></text>
    <text
       xml:space="preserve"
       style="font-style:normal;font-weight:normal;font-size:8px;line-height:1.25;font-family:sans-serif;letter-spacing:0px;word-spacing:0px;fill:#000000;fill-opacity:1;stroke:none;stroke-width:0.75"
       x="34.921875"
       y="118.8"
       id="text201"><tspan
         sodipodi:role="line"
         id="tspan199"
         x="34.921875"
         y="118.8"
         style="font-size:10px;stroke-width:0.75">mínimo local</tspan></text>
    <text
       xml:space="preserve"
       style="font-style:normal;font-weight:normal;font-size:8px;line-height:1.25;font-family:sans-serif;letter-spacing:0px;word-spacing:0px;fill:#000000;fill-opacity:1;stroke:none;stroke-width:0.75"
       x="95.156242"
       y="134.26874"
       id="text205"><tspan
         sodipodi:role="line"
         id="tspan203"
         x="95.156242"
         y="134.26874"
         style="font-size:10px;stroke-width:0.75">mínimo global</tspan></text>
  </g>
</svg>
