<?xml version="1.0" encoding="utf-8" standalone="no"?>
<!DOCTYPE svg PUBLIC "-//W3C//DTD SVG 1.1//EN"
  "http://www.w3.org/Graphics/SVG/1.1/DTD/svg11.dtd">
<!-- Created with matplotlib (https://matplotlib.org/) -->
<svg height="132.268268pt" version="1.1" viewBox="0 0 284.815 132.268268" width="284.815pt" xmlns="http://www.w3.org/2000/svg" xmlns:xlink="http://www.w3.org/1999/xlink">
 <metadata>
  <rdf:RDF xmlns:cc="http://creativecommons.org/ns#" xmlns:dc="http://purl.org/dc/elements/1.1/" xmlns:rdf="http://www.w3.org/1999/02/22-rdf-syntax-ns#">
   <cc:Work>
    <dc:type rdf:resource="http://purl.org/dc/dcmitype/StillImage"/>
    <dc:date>2022-02-08T22:01:01.459653</dc:date>
    <dc:format>image/svg+xml</dc:format>
    <dc:creator>
     <cc:Agent>
      <dc:title>Matplotlib v3.3.3, https://matplotlib.org/</dc:title>
     </cc:Agent>
    </dc:creator>
   </cc:Work>
  </rdf:RDF>
 </metadata>
 <defs>
  <style type="text/css">*{stroke-linecap:butt;stroke-linejoin:round;}</style>
 </defs>
 <g id="figure_1">
  <g id="patch_1">
   <path d="M 0 132.268268 
L 284.815 132.268268 
L 284.815 0 
L 0 0 
z
" style="fill:#ffffff;"/>
  </g>
  <g id="axes_1">
   <g id="patch_2">
    <path d="M 7.2 116.118063 
L 260.335 116.118063 
L 260.335 30.685 
L 7.2 30.685 
z
" style="fill:#ffffff;"/>
   </g>
   <g id="matplotlib.axis_1">
    <g id="xtick_1">
     <g id="line2d_1">
      <defs>
       <path d="M 0 0 
L 0 3.5 
" id="m405a6da894" style="stroke:#000000;stroke-width:0.8;"/>
      </defs>
      <g>
       <use style="stroke:#000000;stroke-width:0.8;" x="72.91774" xlink:href="#m405a6da894" y="108.390143"/>
      </g>
     </g>
     <g id="text_1">
      <!-- −1 -->
      <g transform="translate(65.546647 122.988581)scale(0.1 -0.1)">
       <defs>
        <path d="M 10.59375 35.5 
L 73.1875 35.5 
L 73.1875 27.203125 
L 10.59375 27.203125 
z
" id="DejaVuSans-8722"/>
        <path d="M 12.40625 8.296875 
L 28.515625 8.296875 
L 28.515625 63.921875 
L 10.984375 60.40625 
L 10.984375 69.390625 
L 28.421875 72.90625 
L 38.28125 72.90625 
L 38.28125 8.296875 
L 54.390625 8.296875 
L 54.390625 0 
L 12.40625 0 
z
" id="DejaVuSans-49"/>
       </defs>
       <use xlink:href="#DejaVuSans-8722"/>
       <use x="83.789062" xlink:href="#DejaVuSans-49"/>
      </g>
     </g>
    </g>
    <g id="xtick_2">
     <g id="line2d_2">
      <g>
       <use style="stroke:#000000;stroke-width:0.8;" x="133.7675" xlink:href="#m405a6da894" y="108.390143"/>
      </g>
     </g>
    </g>
    <g id="xtick_3">
     <g id="line2d_3">
      <g>
       <use style="stroke:#000000;stroke-width:0.8;" x="194.61726" xlink:href="#m405a6da894" y="108.390143"/>
      </g>
     </g>
     <g id="text_2">
      <!-- 1 -->
      <g transform="translate(191.43601 122.988581)scale(0.1 -0.1)">
       <use xlink:href="#DejaVuSans-49"/>
      </g>
     </g>
    </g>
    <g id="text_3">
     <!-- $x$ -->
     <g transform="translate(268.335 108.390143)scale(0.16 -0.16)">
      <defs>
       <path d="M 7.8125 2.875 
Q 9.578125 1.515625 12.796875 1.515625 
Q 15.921875 1.515625 18.3125 4.515625 
Q 20.703125 7.515625 21.578125 11.078125 
L 26.125 28.8125 
Q 27.203125 33.640625 27.203125 35.40625 
Q 27.203125 37.890625 25.8125 39.75 
Q 24.421875 41.609375 21.921875 41.609375 
Q 18.75 41.609375 15.96875 39.625 
Q 13.1875 37.640625 11.28125 34.59375 
Q 9.375 31.546875 8.59375 28.421875 
Q 8.40625 27.78125 7.8125 27.78125 
L 6.59375 27.78125 
Q 5.8125 27.78125 5.8125 28.71875 
L 5.8125 29 
Q 6.78125 32.71875 9.125 36.25 
Q 11.46875 39.796875 14.859375 41.984375 
Q 18.265625 44.1875 22.125 44.1875 
Q 25.78125 44.1875 28.734375 42.234375 
Q 31.6875 40.28125 32.90625 36.921875 
Q 34.625 39.984375 37.28125 42.078125 
Q 39.9375 44.1875 43.109375 44.1875 
Q 45.265625 44.1875 47.5 43.421875 
Q 49.75 42.671875 51.171875 41.109375 
Q 52.59375 39.546875 52.59375 37.203125 
Q 52.59375 34.671875 50.953125 32.828125 
Q 49.3125 31 46.78125 31 
Q 45.171875 31 44.09375 32.03125 
Q 43.015625 33.0625 43.015625 34.625 
Q 43.015625 36.71875 44.453125 38.296875 
Q 45.90625 39.890625 47.90625 40.1875 
Q 46.09375 41.609375 42.921875 41.609375 
Q 39.703125 41.609375 37.328125 38.625 
Q 34.96875 35.640625 33.984375 31.984375 
L 29.59375 14.3125 
Q 28.515625 10.296875 28.515625 7.71875 
Q 28.515625 5.171875 29.953125 3.34375 
Q 31.390625 1.515625 33.796875 1.515625 
Q 38.484375 1.515625 42.15625 5.640625 
Q 45.84375 9.765625 47.015625 14.703125 
Q 47.21875 15.28125 47.796875 15.28125 
L 49.03125 15.28125 
Q 49.421875 15.28125 49.65625 15.015625 
Q 49.90625 14.75 49.90625 14.40625 
Q 49.90625 14.3125 49.8125 14.109375 
Q 48.390625 8.15625 43.84375 3.515625 
Q 39.3125 -1.125 33.59375 -1.125 
Q 29.9375 -1.125 26.984375 0.84375 
Q 24.03125 2.828125 22.796875 6.203125 
Q 21.234375 3.265625 18.46875 1.0625 
Q 15.71875 -1.125 12.59375 -1.125 
Q 10.453125 -1.125 8.171875 -0.359375 
Q 5.90625 0.390625 4.484375 1.953125 
Q 3.078125 3.515625 3.078125 5.90625 
Q 3.078125 8.25 4.703125 10.171875 
Q 6.34375 12.109375 8.796875 12.109375 
Q 10.453125 12.109375 11.578125 11.109375 
Q 12.703125 10.109375 12.703125 8.5 
Q 12.703125 6.390625 11.296875 4.828125 
Q 9.90625 3.265625 7.8125 2.875 
z
" id="Cmmi10-120"/>
      </defs>
      <use transform="translate(0 0.8125)" xlink:href="#Cmmi10-120"/>
     </g>
    </g>
   </g>
   <g id="matplotlib.axis_2">
    <g id="ytick_1">
     <g id="line2d_4">
      <defs>
       <path d="M 0 0 
L -3.5 0 
" id="m4b95eb0476" style="stroke:#000000;stroke-width:0.8;"/>
      </defs>
      <g>
       <use style="stroke:#000000;stroke-width:0.8;" x="133.7675" xlink:href="#m4b95eb0476" y="47.540383"/>
      </g>
     </g>
     <g id="text_4">
      <!-- 1 -->
      <g transform="translate(120.405 51.339602)scale(0.1 -0.1)">
       <use xlink:href="#DejaVuSans-49"/>
      </g>
     </g>
    </g>
    <g id="text_5">
     <!-- $y$ -->
     <g transform="translate(129.7675 19.325)scale(0.16 -0.16)">
      <defs>
       <path d="M 8.40625 -14.3125 
Q 10.5 -17.921875 15.71875 -17.921875 
Q 20.453125 -17.921875 23.921875 -14.59375 
Q 27.390625 -11.28125 29.515625 -6.5625 
Q 31.640625 -1.859375 32.8125 3.078125 
Q 28.375 -1.125 23.1875 -1.125 
Q 19.234375 -1.125 16.453125 0.234375 
Q 13.671875 1.609375 12.125 4.3125 
Q 10.59375 7.03125 10.59375 10.890625 
Q 10.59375 14.15625 11.46875 17.59375 
Q 12.359375 21.046875 13.9375 25.265625 
Q 15.53125 29.5 16.703125 32.625 
Q 18.015625 36.28125 18.015625 38.625 
Q 18.015625 41.609375 15.828125 41.609375 
Q 11.859375 41.609375 9.296875 37.53125 
Q 6.734375 33.453125 5.515625 28.421875 
Q 5.328125 27.78125 4.6875 27.78125 
L 3.515625 27.78125 
Q 2.6875 27.78125 2.6875 28.71875 
L 2.6875 29 
Q 4.296875 34.96875 7.609375 39.578125 
Q 10.9375 44.1875 16.015625 44.1875 
Q 19.578125 44.1875 22.046875 41.84375 
Q 24.515625 39.5 24.515625 35.890625 
Q 24.515625 34.03125 23.6875 31.984375 
Q 23.25 30.765625 21.6875 26.65625 
Q 20.125 22.5625 19.28125 19.875 
Q 18.453125 17.1875 17.921875 14.59375 
Q 17.390625 12.015625 17.390625 9.421875 
Q 17.390625 6.109375 18.796875 3.8125 
Q 20.21875 1.515625 23.296875 1.515625 
Q 29.5 1.515625 34.421875 9.078125 
L 42 39.890625 
Q 42.328125 41.21875 43.546875 42.15625 
Q 44.78125 43.109375 46.1875 43.109375 
Q 47.40625 43.109375 48.3125 42.328125 
Q 49.21875 41.546875 49.21875 40.28125 
Q 49.21875 39.703125 49.125 39.5 
L 39.203125 -0.296875 
Q 37.890625 -5.421875 34.375 -10.109375 
Q 30.859375 -14.796875 25.90625 -17.65625 
Q 20.953125 -20.515625 15.578125 -20.515625 
Q 12.984375 -20.515625 10.4375 -19.5 
Q 7.90625 -18.5 6.34375 -16.5 
Q 4.78125 -14.5 4.78125 -11.8125 
Q 4.78125 -9.078125 6.390625 -7.078125 
Q 8.015625 -5.078125 10.6875 -5.078125 
Q 12.3125 -5.078125 13.40625 -6.078125 
Q 14.5 -7.078125 14.5 -8.6875 
Q 14.5 -10.984375 12.78125 -12.6875 
Q 11.078125 -14.40625 8.796875 -14.40625 
Q 8.6875 -14.359375 8.59375 -14.328125 
Q 8.5 -14.3125 8.40625 -14.3125 
z
" id="Cmmi10-121"/>
      </defs>
      <use transform="translate(0 0.8125)" xlink:href="#Cmmi10-121"/>
     </g>
    </g>
   </g>
   <g id="patch_3">
    <path clip-path="url(#p4945c93f55)" d="M 164.19238 102.305167 
Q 148.97994 102.305167 136.003568 102.305167 
" style="fill:none;stroke:#808080;stroke-linecap:round;stroke-width:2;"/>
    <path clip-path="url(#p4945c93f55)" d="M 140.003568 104.305167 
L 136.003568 102.305167 
L 140.003568 100.305167 
L 140.003568 104.305167 
z
" style="fill:#808080;stroke:#808080;stroke-linecap:round;stroke-width:2;"/>
   </g>
   <g id="patch_4">
    <path clip-path="url(#p4945c93f55)" d="M 103.34262 102.305167 
Q 118.55506 102.305167 131.531432 102.305167 
" style="fill:none;stroke:#808080;stroke-linecap:round;stroke-width:2;"/>
    <path clip-path="url(#p4945c93f55)" d="M 127.531432 100.305167 
L 131.531432 102.305167 
L 127.531432 104.305167 
L 127.531432 100.305167 
z
" style="fill:#808080;stroke:#808080;stroke-linecap:round;stroke-width:2;"/>
   </g>
   <g id="line2d_5">
    <path clip-path="url(#p4945c93f55)" d="M 12.067981 80.724878 
L 13.104573 80.27373 
L 14.556316 79.642607 
L 16.278336 78.8953 
L 17.300171 78.452655 
L 18.023959 78.139527 
L 19.155635 77.65068 
L 20.421819 77.104906 
L 22.067837 76.397472 
L 23.675102 75.709197 
L 24.534172 75.342428 
L 25.961718 74.734799 
L 26.604493 74.461996 
L 28.145736 73.810008 
L 29.790117 73.117927 
L 30.811075 72.690188 
L 32.134958 72.137903 
L 32.440004 72.01104 
L 34.337313 71.225437 
L 35.573948 70.716741 
L 36.100107 70.501139 
L 37.986255 69.732538 
L 39.16152 69.257137 
L 39.588675 69.085044 
L 42.020529 68.112631 
L 43.178949 67.653979 
L 44.143957 67.274246 
L 45.698728 66.667063 
L 46.459101 66.372251 
L 47.142629 66.108459 
L 49.09065 65.363214 
L 49.528345 65.197132 
L 51.456135 64.471795 
L 51.984205 64.274894 
L 53.590166 63.680938 
L 54.833305 63.226305 
L 56.356925 62.675383 
L 57.062231 62.42275 
L 58.126617 62.044427 
L 60.3451 61.267491 
L 61.417122 60.897814 
L 62.719795 60.453777 
L 63.766217 60.101276 
L 64.224203 59.948189 
L 65.927852 59.385196 
L 66.564941 59.177318 
L 67.82854 58.769369 
L 69.464963 58.249798 
L 71.047599 57.756884 
L 71.40713 57.646241 
L 72.92664 57.184156 
L 74.650069 56.671051 
L 75.548674 56.408226 
L 77.435791 55.866976 
L 77.708813 55.789883 
L 79.394706 55.32073 
L 80.998986 54.885442 
L 82.232491 54.558265 
L 82.418871 54.509403 
L 84.010795 54.098251 
L 85.200414 53.79831 
L 86.437858 53.493026 
L 87.922904 53.135797 
L 89.059401 52.869223 
L 90.952172 52.438527 
L 91.924746 52.223737 
L 93.20941 51.946874 
L 94.148218 51.749519 
L 95.638241 51.444983 
L 96.90626 51.194293 
L 97.541675 51.071622 
L 98.447845 50.90011 
L 100.157378 50.587596 
L 101.279035 50.390457 
L 102.141761 50.24312 
L 103.612819 50.000553 
L 105.150044 49.758824 
L 106.017939 49.627684 
L 107.423451 49.423529 
L 109.17064 49.184 
L 109.741711 49.109154 
L 110.808389 48.973918 
L 112.958776 48.719457 
L 113.706204 48.636729 
L 114.319488 48.571059 
L 116.386756 48.364436 
L 116.656675 48.33914 
L 118.876979 48.145877 
L 119.927138 48.063696 
L 120.50201 48.021228 
L 122.431028 47.891776 
L 123.807079 47.811754 
L 125.175449 47.742383 
L 125.781326 47.714923 
L 127.189732 47.658822 
L 128.829754 47.607142 
L 128.970284 47.603397 
L 130.664708 47.566749 
L 132.390082 47.54558 
L 132.953823 47.542197 
" style="fill:none;stroke:#0000ff;stroke-linecap:square;stroke-width:1.5;"/>
   </g>
   <g id="line2d_6">
    <path clip-path="url(#p4945c93f55)" d="M 134.730775 47.542925 
L 136.026266 47.554357 
L 137.052026 47.569928 
L 138.512192 47.602025 
L 139.667356 47.635678 
L 140.712837 47.67242 
L 141.445941 47.701741 
L 142.897944 47.768462 
L 144.160925 47.835826 
L 145.952856 47.946261 
L 146.803291 48.004758 
L 147.89202 48.085347 
L 148.519574 48.134702 
L 150.476313 48.302188 
L 152.051545 48.451919 
L 152.32517 48.479278 
L 153.502147 48.601503 
L 154.611143 48.723395 
L 156.767914 48.979043 
L 157.260451 49.040855 
L 158.264988 49.170853 
L 160.27769 49.44713 
L 161.305095 49.596244 
L 162.31644 49.748331 
L 164.111748 50.031196 
L 165.304742 50.228218 
L 165.983361 50.343497 
L 167.693145 50.644184 
L 168.129311 50.723224 
L 169.34812 50.949089 
L 171.392229 51.344299 
L 172.318132 51.530018 
L 173.31369 51.734331 
L 174.542683 51.99311 
L 176.290746 52.373554 
L 176.872486 52.503356 
L 178.951019 52.980014 
L 179.595218 53.131795 
L 180.447815 53.335596 
L 181.587842 53.61326 
L 183.050991 53.978185 
L 184.437531 54.332779 
L 185.663267 54.653272 
L 187.476478 55.139288 
L 187.882474 55.250038 
L 190.014537 55.843034 
L 191.198456 56.180481 
L 191.277407 56.203189 
L 192.583558 56.582542 
L 194.772296 57.233575 
L 195.004562 57.303774 
L 196.440817 57.74252 
L 198.289392 58.318865 
L 199.401045 58.671644 
L 200.446589 59.007612 
L 202.125901 59.555536 
L 203.428836 59.987575 
L 203.492134 60.008716 
L 204.941076 60.496431 
L 206.425632 61.00355 
L 208.209347 61.622541 
L 209.221315 61.978305 
L 210.12923 62.300256 
L 211.243906 62.699041 
L 213.076483 63.36289 
L 213.653285 63.573907 
L 214.881219 64.026359 
L 215.731567 64.34221 
L 217.658833 65.065517 
L 218.921823 65.544967 
L 219.761597 65.866075 
L 221.468852 66.524428 
L 223.027239 67.131653 
L 223.711291 67.400025 
L 224.715812 67.796094 
L 226.684983 68.579094 
L 227.673664 68.975391 
L 228.711386 69.393537 
L 229.300993 69.632092 
L 231.133544 70.377887 
L 232.525279 70.948501 
L 233.559248 71.374675 
L 234.111737 71.603154 
L 236.206863 72.474161 
L 237.158297 72.871982 
L 238.936609 73.619121 
L 239.622706 73.908561 
L 240.926372 74.460243 
L 241.977081 74.906432 
L 243.242063 75.445339 
L 244.730462 76.081673 
L 246.197211 76.710932 
L 247.014588 77.062464 
L 247.922944 77.453796 
L 249.929821 78.320658 
L 250.804335 78.699277 
L 252.057535 79.242658 
L 252.96551 79.636884 
L 253.870822 80.030344 
L 255.467019 80.724878 
" style="fill:none;stroke:#0000ff;stroke-linecap:square;stroke-width:1.5;"/>
   </g>
   <g id="line2d_7"/>
   <g id="patch_5">
    <path d="M 133.7675 116.118063 
L 133.7675 30.685 
" style="fill:none;stroke:#000000;stroke-linecap:square;stroke-linejoin:miter;stroke-width:0.8;"/>
   </g>
   <g id="patch_6">
    <path d="M 7.2 108.390143 
L 260.335 108.390143 
" style="fill:none;stroke:#000000;stroke-linecap:square;stroke-linejoin:miter;stroke-width:0.8;"/>
   </g>
   <g id="text_6">
    <!-- $y=\dfrac{\sin{x}}{x}$ -->
    <g style="fill:#0000ff;" transform="translate(173.31726 39.330431)scale(0.12 -0.12)">
     <defs>
      <path d="M 7.515625 13.28125 
Q 6.6875 13.28125 6.140625 13.90625 
Q 5.609375 14.546875 5.609375 15.28125 
Q 5.609375 16.109375 6.140625 16.6875 
Q 6.6875 17.28125 7.515625 17.28125 
L 70.3125 17.28125 
Q 71.046875 17.28125 71.578125 16.6875 
Q 72.125 16.109375 72.125 15.28125 
Q 72.125 14.546875 71.578125 13.90625 
Q 71.046875 13.28125 70.3125 13.28125 
z
M 7.515625 32.71875 
Q 6.6875 32.71875 6.140625 33.296875 
Q 5.609375 33.890625 5.609375 34.71875 
Q 5.609375 35.453125 6.140625 36.078125 
Q 6.6875 36.71875 7.515625 36.71875 
L 70.3125 36.71875 
Q 71.046875 36.71875 71.578125 36.078125 
Q 72.125 35.453125 72.125 34.71875 
Q 72.125 33.890625 71.578125 33.296875 
Q 71.046875 32.71875 70.3125 32.71875 
z
" id="Cmr10-61"/>
      <path d="M 3.328125 -0.296875 
L 3.328125 16.015625 
Q 3.328125 16.796875 4.203125 16.796875 
L 5.421875 16.796875 
Q 6 16.796875 6.203125 16.015625 
Q 8.984375 1.515625 19.671875 1.515625 
Q 24.421875 1.515625 27.609375 3.65625 
Q 30.8125 5.8125 30.8125 10.296875 
Q 30.8125 13.53125 28.3125 15.796875 
Q 25.828125 18.0625 22.40625 18.890625 
L 15.71875 20.21875 
Q 12.359375 20.953125 9.59375 22.453125 
Q 6.84375 23.96875 5.078125 26.484375 
Q 3.328125 29 3.328125 32.328125 
Q 3.328125 36.71875 5.640625 39.515625 
Q 7.953125 42.328125 11.65625 43.578125 
Q 15.375 44.828125 19.671875 44.828125 
Q 24.8125 44.828125 28.609375 42.09375 
L 31.5 44.578125 
Q 31.5 44.828125 31.984375 44.828125 
L 32.71875 44.828125 
Q 33.015625 44.828125 33.25 44.546875 
Q 33.5 44.28125 33.5 44 
L 33.5 30.90625 
Q 33.5 29.984375 32.71875 29.984375 
L 31.5 29.984375 
Q 30.609375 29.984375 30.609375 30.90625 
Q 30.609375 36.140625 27.703125 39.3125 
Q 24.8125 42.484375 19.578125 42.484375 
Q 15.09375 42.484375 11.796875 40.8125 
Q 8.5 39.15625 8.5 35.109375 
Q 8.5 32.328125 10.859375 30.546875 
Q 13.234375 28.765625 16.40625 27.984375 
L 23.1875 26.703125 
Q 26.609375 25.921875 29.5625 24.0625 
Q 32.515625 22.21875 34.25 19.375 
Q 35.984375 16.546875 35.984375 12.984375 
Q 35.984375 9.375 34.734375 6.703125 
Q 33.5 4.046875 31.265625 2.28125 
Q 29.046875 0.53125 26.015625 -0.296875 
Q 23 -1.125 19.671875 -1.125 
Q 13.421875 -1.125 8.984375 3.078125 
L 5.328125 -0.875 
Q 5.328125 -1.125 4.78125 -1.125 
L 4.203125 -1.125 
Q 3.328125 -1.125 3.328125 -0.296875 
z
" id="Cmr10-115"/>
      <path d="M 3.078125 0 
L 3.078125 3.515625 
Q 6.5 3.515625 8.6875 4.046875 
Q 10.890625 4.59375 10.890625 6.6875 
L 10.890625 33.984375 
Q 10.890625 37.84375 9.390625 38.71875 
Q 7.90625 39.59375 3.515625 39.59375 
L 3.515625 43.109375 
L 17.921875 44.1875 
L 17.921875 6.6875 
Q 17.921875 4.59375 19.828125 4.046875 
Q 21.734375 3.515625 24.90625 3.515625 
L 24.90625 0 
z
M 7.328125 61.375 
Q 7.328125 63.578125 8.984375 65.234375 
Q 10.640625 66.890625 12.796875 66.890625 
Q 14.203125 66.890625 15.515625 66.15625 
Q 16.84375 65.4375 17.578125 64.109375 
Q 18.3125 62.796875 18.3125 61.375 
Q 18.3125 59.234375 16.640625 57.5625 
Q 14.984375 55.90625 12.796875 55.90625 
Q 10.640625 55.90625 8.984375 57.5625 
Q 7.328125 59.234375 7.328125 61.375 
z
" id="Cmr10-105"/>
      <path d="M 2.984375 0 
L 2.984375 3.515625 
Q 6.390625 3.515625 8.59375 4.046875 
Q 10.796875 4.59375 10.796875 6.6875 
L 10.796875 33.984375 
Q 10.796875 36.671875 9.984375 37.859375 
Q 9.1875 39.0625 7.671875 39.328125 
Q 6.15625 39.59375 2.984375 39.59375 
L 2.984375 43.109375 
L 17.484375 44.1875 
L 17.484375 34.421875 
Q 19.484375 38.71875 23.40625 41.453125 
Q 27.34375 44.1875 31.984375 44.1875 
Q 38.921875 44.1875 42.40625 40.859375 
Q 45.90625 37.546875 45.90625 30.71875 
L 45.90625 6.6875 
Q 45.90625 4.59375 48.09375 4.046875 
Q 50.296875 3.515625 53.71875 3.515625 
L 53.71875 0 
L 30.8125 0 
L 30.8125 3.515625 
Q 34.234375 3.515625 36.421875 4.046875 
Q 38.625 4.59375 38.625 6.6875 
L 38.625 30.421875 
Q 38.625 35.296875 37.203125 38.453125 
Q 35.796875 41.609375 31.390625 41.609375 
Q 25.59375 41.609375 21.84375 36.96875 
Q 18.109375 32.328125 18.109375 26.421875 
L 18.109375 6.6875 
Q 18.109375 4.59375 20.3125 4.046875 
Q 22.515625 3.515625 25.875 3.515625 
L 25.875 0 
z
" id="Cmr10-110"/>
     </defs>
     <use transform="translate(0 0.484375)" xlink:href="#Cmmi10-121"/>
     <use transform="translate(66.582031 0.484375)" xlink:href="#Cmr10-61"/>
     <use transform="translate(161.826172 39.109375)" xlink:href="#Cmr10-115"/>
     <use transform="translate(201.230469 39.109375)" xlink:href="#Cmr10-105"/>
     <use transform="translate(228.916016 39.109375)" xlink:href="#Cmr10-110"/>
     <use transform="translate(284.433594 39.109375)" xlink:href="#Cmmi10-120"/>
     <use transform="translate(222.826172 -37.453125)" xlink:href="#Cmmi10-120"/>
     <path d="M 161.826172 12.984375 
L 161.826172 19.234375 
L 341.513672 19.234375 
L 341.513672 12.984375 
L 161.826172 12.984375 
z
"/>
    </g>
   </g>
  </g>
 </g>
 <defs>
  <clipPath id="p4945c93f55">
   <rect height="85.433063" width="253.135" x="7.2" y="30.685"/>
  </clipPath>
 </defs>
</svg>
