<?xml version="1.0" encoding="utf-8" standalone="no"?>
<!DOCTYPE svg PUBLIC "-//W3C//DTD SVG 1.1//EN"
  "http://www.w3.org/Graphics/SVG/1.1/DTD/svg11.dtd">
<!-- Created with matplotlib (https://matplotlib.org/) -->
<svg height="132.268268pt" version="1.1" viewBox="0 0 284.815 132.268268" width="284.815pt" xmlns="http://www.w3.org/2000/svg" xmlns:xlink="http://www.w3.org/1999/xlink">
 <metadata>
  <rdf:RDF xmlns:cc="http://creativecommons.org/ns#" xmlns:dc="http://purl.org/dc/elements/1.1/" xmlns:rdf="http://www.w3.org/1999/02/22-rdf-syntax-ns#">
   <cc:Work>
    <dc:type rdf:resource="http://purl.org/dc/dcmitype/StillImage"/>
    <dc:date>2022-02-21T19:22:07.029587</dc:date>
    <dc:format>image/svg+xml</dc:format>
    <dc:creator>
     <cc:Agent>
      <dc:title>Matplotlib v3.3.3, https://matplotlib.org/</dc:title>
     </cc:Agent>
    </dc:creator>
   </cc:Work>
  </rdf:RDF>
 </metadata>
 <defs>
  <style type="text/css">*{stroke-linecap:butt;stroke-linejoin:round;}</style>
 </defs>
 <g id="figure_1">
  <g id="patch_1">
   <path d="M 0 132.268268 
L 284.815 132.268268 
L 284.815 0 
L 0 0 
z
" style="fill:#ffffff;"/>
  </g>
  <g id="axes_1">
   <g id="patch_2">
    <path d="M 7.2 116.118063 
L 260.335 116.118063 
L 260.335 30.685 
L 7.2 30.685 
z
" style="fill:#ffffff;"/>
   </g>
   <g id="matplotlib.axis_1">
    <g id="xtick_1">
     <g id="line2d_1">
      <defs>
       <path d="M 0 0 
L 0 3.5 
" id="m5a7157ee96" style="stroke:#000000;stroke-width:0.8;"/>
      </defs>
      <g>
       <use style="stroke:#000000;stroke-width:0.8;" x="72.91774" xlink:href="#m5a7157ee96" y="108.390143"/>
      </g>
     </g>
     <g id="text_1">
      <!-- −1 -->
      <g transform="translate(65.546647 122.988581)scale(0.1 -0.1)">
       <defs>
        <path d="M 10.59375 35.5 
L 73.1875 35.5 
L 73.1875 27.203125 
L 10.59375 27.203125 
z
" id="DejaVuSans-8722"/>
        <path d="M 12.40625 8.296875 
L 28.515625 8.296875 
L 28.515625 63.921875 
L 10.984375 60.40625 
L 10.984375 69.390625 
L 28.421875 72.90625 
L 38.28125 72.90625 
L 38.28125 8.296875 
L 54.390625 8.296875 
L 54.390625 0 
L 12.40625 0 
z
" id="DejaVuSans-49"/>
       </defs>
       <use xlink:href="#DejaVuSans-8722"/>
       <use x="83.789062" xlink:href="#DejaVuSans-49"/>
      </g>
     </g>
    </g>
    <g id="xtick_2">
     <g id="line2d_2">
      <g>
       <use style="stroke:#000000;stroke-width:0.8;" x="133.7675" xlink:href="#m5a7157ee96" y="108.390143"/>
      </g>
     </g>
    </g>
    <g id="xtick_3">
     <g id="line2d_3">
      <g>
       <use style="stroke:#000000;stroke-width:0.8;" x="194.61726" xlink:href="#m5a7157ee96" y="108.390143"/>
      </g>
     </g>
     <g id="text_2">
      <!-- 1 -->
      <g transform="translate(191.43601 122.988581)scale(0.1 -0.1)">
       <use xlink:href="#DejaVuSans-49"/>
      </g>
     </g>
    </g>
    <g id="text_3">
     <!-- $x$ -->
     <g transform="translate(268.335 108.390143)scale(0.16 -0.16)">
      <defs>
       <path d="M 7.8125 2.875 
Q 9.578125 1.515625 12.796875 1.515625 
Q 15.921875 1.515625 18.3125 4.515625 
Q 20.703125 7.515625 21.578125 11.078125 
L 26.125 28.8125 
Q 27.203125 33.640625 27.203125 35.40625 
Q 27.203125 37.890625 25.8125 39.75 
Q 24.421875 41.609375 21.921875 41.609375 
Q 18.75 41.609375 15.96875 39.625 
Q 13.1875 37.640625 11.28125 34.59375 
Q 9.375 31.546875 8.59375 28.421875 
Q 8.40625 27.78125 7.8125 27.78125 
L 6.59375 27.78125 
Q 5.8125 27.78125 5.8125 28.71875 
L 5.8125 29 
Q 6.78125 32.71875 9.125 36.25 
Q 11.46875 39.796875 14.859375 41.984375 
Q 18.265625 44.1875 22.125 44.1875 
Q 25.78125 44.1875 28.734375 42.234375 
Q 31.6875 40.28125 32.90625 36.921875 
Q 34.625 39.984375 37.28125 42.078125 
Q 39.9375 44.1875 43.109375 44.1875 
Q 45.265625 44.1875 47.5 43.421875 
Q 49.75 42.671875 51.171875 41.109375 
Q 52.59375 39.546875 52.59375 37.203125 
Q 52.59375 34.671875 50.953125 32.828125 
Q 49.3125 31 46.78125 31 
Q 45.171875 31 44.09375 32.03125 
Q 43.015625 33.0625 43.015625 34.625 
Q 43.015625 36.71875 44.453125 38.296875 
Q 45.90625 39.890625 47.90625 40.1875 
Q 46.09375 41.609375 42.921875 41.609375 
Q 39.703125 41.609375 37.328125 38.625 
Q 34.96875 35.640625 33.984375 31.984375 
L 29.59375 14.3125 
Q 28.515625 10.296875 28.515625 7.71875 
Q 28.515625 5.171875 29.953125 3.34375 
Q 31.390625 1.515625 33.796875 1.515625 
Q 38.484375 1.515625 42.15625 5.640625 
Q 45.84375 9.765625 47.015625 14.703125 
Q 47.21875 15.28125 47.796875 15.28125 
L 49.03125 15.28125 
Q 49.421875 15.28125 49.65625 15.015625 
Q 49.90625 14.75 49.90625 14.40625 
Q 49.90625 14.3125 49.8125 14.109375 
Q 48.390625 8.15625 43.84375 3.515625 
Q 39.3125 -1.125 33.59375 -1.125 
Q 29.9375 -1.125 26.984375 0.84375 
Q 24.03125 2.828125 22.796875 6.203125 
Q 21.234375 3.265625 18.46875 1.0625 
Q 15.71875 -1.125 12.59375 -1.125 
Q 10.453125 -1.125 8.171875 -0.359375 
Q 5.90625 0.390625 4.484375 1.953125 
Q 3.078125 3.515625 3.078125 5.90625 
Q 3.078125 8.25 4.703125 10.171875 
Q 6.34375 12.109375 8.796875 12.109375 
Q 10.453125 12.109375 11.578125 11.109375 
Q 12.703125 10.109375 12.703125 8.5 
Q 12.703125 6.390625 11.296875 4.828125 
Q 9.90625 3.265625 7.8125 2.875 
z
" id="Cmmi10-120"/>
      </defs>
      <use transform="translate(0 0.8125)" xlink:href="#Cmmi10-120"/>
     </g>
    </g>
   </g>
   <g id="matplotlib.axis_2">
    <g id="ytick_1">
     <g id="line2d_4">
      <defs>
       <path d="M 0 0 
L -3.5 0 
" id="mc03ff8316c" style="stroke:#000000;stroke-width:0.8;"/>
      </defs>
      <g>
       <use style="stroke:#000000;stroke-width:0.8;" x="133.7675" xlink:href="#mc03ff8316c" y="47.540383"/>
      </g>
     </g>
     <g id="text_4">
      <!-- 1 -->
      <g transform="translate(120.405 51.339602)scale(0.1 -0.1)">
       <use xlink:href="#DejaVuSans-49"/>
      </g>
     </g>
    </g>
    <g id="text_5">
     <!-- $y$ -->
     <g transform="translate(129.7675 19.325)scale(0.16 -0.16)">
      <defs>
       <path d="M 8.40625 -14.3125 
Q 10.5 -17.921875 15.71875 -17.921875 
Q 20.453125 -17.921875 23.921875 -14.59375 
Q 27.390625 -11.28125 29.515625 -6.5625 
Q 31.640625 -1.859375 32.8125 3.078125 
Q 28.375 -1.125 23.1875 -1.125 
Q 19.234375 -1.125 16.453125 0.234375 
Q 13.671875 1.609375 12.125 4.3125 
Q 10.59375 7.03125 10.59375 10.890625 
Q 10.59375 14.15625 11.46875 17.59375 
Q 12.359375 21.046875 13.9375 25.265625 
Q 15.53125 29.5 16.703125 32.625 
Q 18.015625 36.28125 18.015625 38.625 
Q 18.015625 41.609375 15.828125 41.609375 
Q 11.859375 41.609375 9.296875 37.53125 
Q 6.734375 33.453125 5.515625 28.421875 
Q 5.328125 27.78125 4.6875 27.78125 
L 3.515625 27.78125 
Q 2.6875 27.78125 2.6875 28.71875 
L 2.6875 29 
Q 4.296875 34.96875 7.609375 39.578125 
Q 10.9375 44.1875 16.015625 44.1875 
Q 19.578125 44.1875 22.046875 41.84375 
Q 24.515625 39.5 24.515625 35.890625 
Q 24.515625 34.03125 23.6875 31.984375 
Q 23.25 30.765625 21.6875 26.65625 
Q 20.125 22.5625 19.28125 19.875 
Q 18.453125 17.1875 17.921875 14.59375 
Q 17.390625 12.015625 17.390625 9.421875 
Q 17.390625 6.109375 18.796875 3.8125 
Q 20.21875 1.515625 23.296875 1.515625 
Q 29.5 1.515625 34.421875 9.078125 
L 42 39.890625 
Q 42.328125 41.21875 43.546875 42.15625 
Q 44.78125 43.109375 46.1875 43.109375 
Q 47.40625 43.109375 48.3125 42.328125 
Q 49.21875 41.546875 49.21875 40.28125 
Q 49.21875 39.703125 49.125 39.5 
L 39.203125 -0.296875 
Q 37.890625 -5.421875 34.375 -10.109375 
Q 30.859375 -14.796875 25.90625 -17.65625 
Q 20.953125 -20.515625 15.578125 -20.515625 
Q 12.984375 -20.515625 10.4375 -19.5 
Q 7.90625 -18.5 6.34375 -16.5 
Q 4.78125 -14.5 4.78125 -11.8125 
Q 4.78125 -9.078125 6.390625 -7.078125 
Q 8.015625 -5.078125 10.6875 -5.078125 
Q 12.3125 -5.078125 13.40625 -6.078125 
Q 14.5 -7.078125 14.5 -8.6875 
Q 14.5 -10.984375 12.78125 -12.6875 
Q 11.078125 -14.40625 8.796875 -14.40625 
Q 8.6875 -14.359375 8.59375 -14.328125 
Q 8.5 -14.3125 8.40625 -14.3125 
z
" id="Cmmi10-121"/>
      </defs>
      <use transform="translate(0 0.8125)" xlink:href="#Cmmi10-121"/>
     </g>
    </g>
   </g>
   <g id="patch_3">
    <path clip-path="url(#pcf2628fdfc)" d="M 164.19238 102.305167 
Q 148.97994 102.305167 136.003568 102.305167 
" style="fill:none;stroke:#808080;stroke-linecap:round;stroke-width:2;"/>
    <path clip-path="url(#pcf2628fdfc)" d="M 140.003568 104.305167 
L 136.003568 102.305167 
L 140.003568 100.305167 
L 140.003568 104.305167 
z
" style="fill:#808080;stroke:#808080;stroke-linecap:round;stroke-width:2;"/>
   </g>
   <g id="patch_4">
    <path clip-path="url(#pcf2628fdfc)" d="M 103.34262 102.305167 
Q 118.55506 102.305167 131.531432 102.305167 
" style="fill:none;stroke:#808080;stroke-linecap:round;stroke-width:2;"/>
    <path clip-path="url(#pcf2628fdfc)" d="M 127.531432 100.305167 
L 131.531432 102.305167 
L 127.531432 104.305167 
L 127.531432 100.305167 
z
" style="fill:#808080;stroke:#808080;stroke-linecap:round;stroke-width:2;"/>
   </g>
   <g id="line2d_5">
    <path clip-path="url(#pcf2628fdfc)" d="M 12.067981 80.724878 
L 13.629507 80.045419 
L 14.604198 79.621806 
L 16.063673 78.988369 
L 16.699345 78.712846 
L 17.926132 78.181828 
L 18.95146 77.738807 
L 20.932006 76.885375 
L 22.43844 76.23854 
L 22.839963 76.066501 
L 23.924707 75.602549 
L 25.762706 74.819364 
L 26.888579 74.34159 
L 28.215845 73.780424 
L 29.638936 73.181396 
L 30.105663 72.985562 
L 31.348991 72.465457 
L 32.683214 71.91 
L 34.437736 71.184026 
L 35.247627 70.85071 
L 36.298823 70.419845 
L 37.6639 69.863412 
L 39.061944 69.297308 
L 39.605667 69.078206 
L 41.488022 68.32447 
L 42.517561 67.915471 
L 43.892928 67.372818 
L 44.654728 67.074138 
L 46.449623 66.375916 
L 47.439776 65.99415 
L 48.591587 65.5532 
L 49.964155 65.032274 
L 51.383959 64.498767 
L 52.505731 64.081203 
L 53.424151 63.741994 
L 54.767483 63.250262 
L 56.686989 62.556967 
L 56.919841 62.473629 
L 58.756153 61.822349 
L 59.254804 61.647341 
L 60.972858 61.050552 
L 61.628419 60.825401 
L 63.460245 60.203957 
L 64.820893 59.749838 
L 65.672031 59.469078 
L 66.565569 59.177114 
L 67.753348 58.793481 
L 69.977558 58.089109 
L 70.774598 57.841229 
L 71.850028 57.510628 
L 73.15932 57.114195 
L 74.634795 56.675546 
L 75.968548 56.286541 
L 76.682107 56.081391 
L 77.728954 55.784208 
L 79.74769 55.224016 
L 80.969475 54.89335 
L 81.335043 54.795654 
L 82.821755 54.404298 
L 84.450007 53.986779 
L 86.050516 53.587845 
L 86.999079 53.356845 
L 87.790643 53.167205 
L 89.411349 52.787878 
L 89.996682 52.653863 
L 91.691909 52.274752 
L 92.859729 52.021459 
L 94.386704 51.700057 
L 95.787148 51.415139 
L 96.050916 51.362538 
L 97.895039 51.00426 
L 98.66129 50.8603 
L 99.538935 50.698977 
L 101.386163 50.371958 
L 102.052299 50.258224 
L 103.448189 50.027155 
L 104.708963 49.826951 
L 105.691055 49.676623 
L 107.352244 49.433627 
L 109.279461 49.169606 
L 109.565476 49.13207 
L 111.06139 48.942717 
L 111.987834 48.831335 
L 113.23001 48.689094 
L 114.437617 48.558639 
L 116.427527 48.36059 
L 116.80398 48.3255 
L 119.076223 48.129828 
L 119.528444 48.094196 
L 120.479646 48.022846 
L 122.526571 47.885888 
L 123.854294 47.809191 
L 124.012625 47.800684 
L 125.37305 47.733207 
L 126.865746 47.670769 
L 128.133067 47.6273 
L 130.092092 47.577377 
L 130.582927 47.568157 
L 132.541793 47.544498 
L 133.3317 47.540904 
" style="fill:none;stroke:#0000ff;stroke-linecap:square;stroke-width:1.5;"/>
   </g>
   <g id="line2d_6">
    <path clip-path="url(#pcf2628fdfc)" d="M 134.15598 47.540797 
L 135.651981 47.55011 
L 137.355259 47.575634 
L 137.463617 47.577795 
L 139.663295 47.635547 
L 140.684869 47.671359 
L 141.203048 47.691702 
L 143.532592 47.801229 
L 144.171827 47.836446 
L 145.742583 47.932401 
L 146.196851 47.962644 
L 147.526995 48.057614 
L 149.39508 48.2071 
L 150.12123 48.270269 
L 151.859598 48.432965 
L 152.978291 48.546193 
L 153.685624 48.621219 
L 155.239687 48.795367 
L 156.201044 48.909479 
L 157.120212 49.023126 
L 159.188447 49.295002 
L 160.490014 49.4775 
L 161.25192 49.588393 
L 162.396371 49.760575 
L 163.887128 49.994907 
L 165.189318 50.208842 
L 166.34367 50.405645 
L 167.792217 50.662054 
L 168.627981 50.814747 
L 169.547996 50.986829 
L 171.643188 51.394226 
L 172.096498 51.485184 
L 173.649015 51.804221 
L 174.186442 51.917357 
L 175.667052 52.236158 
L 177.639565 52.67693 
L 177.925168 52.742256 
L 179.259058 53.052354 
L 180.561083 53.36292 
L 181.506111 53.593159 
L 183.766669 54.160153 
L 184.233938 54.280182 
L 185.830433 54.697487 
L 186.48809 54.872607 
L 187.872472 55.247301 
L 188.937687 55.541146 
L 190.820747 56.072198 
L 191.443498 56.251043 
L 193.477073 56.846014 
L 194.820247 57.24805 
L 195.797179 57.544913 
L 197.012962 57.919514 
L 198.547763 58.400447 
L 199.430312 58.680994 
L 200.679593 59.083028 
L 201.356907 59.30337 
L 202.921366 59.818593 
L 204.436323 60.325711 
L 205.801755 60.789533 
L 206.742473 61.112737 
L 207.553257 61.393651 
L 208.425176 61.698141 
L 209.637696 62.125633 
L 211.928931 62.946007 
L 212.787135 63.257405 
L 214.485679 63.880141 
L 214.784142 63.990431 
L 216.515716 64.63527 
L 217.287886 64.92551 
L 218.30731 65.31116 
L 219.997991 65.956795 
L 220.660054 66.211626 
L 222.859982 67.066201 
L 223.915449 67.480333 
L 225.186571 67.982499 
L 225.888014 68.261167 
L 226.733226 68.598384 
L 229.064235 69.536216 
L 230.140611 69.972988 
L 231.53612 70.542579 
L 232.479742 70.929775 
L 233.767245 71.46063 
L 234.759723 71.871779 
L 236.169792 72.458688 
L 237.119049 72.855545 
L 238.181285 73.301227 
L 240.006792 74.070868 
L 241.219489 74.584581 
L 242.585712 75.165492 
L 242.698645 75.213609 
L 244.923851 76.164521 
L 245.235326 76.298034 
L 247.303349 77.186791 
L 248.528199 77.714917 
L 248.814851 77.838684 
L 250.467453 78.553367 
L 251.484913 78.994261 
L 252.46058 79.417601 
L 254.657176 80.372383 
L 255.467019 80.724878 
" style="fill:none;stroke:#0000ff;stroke-linecap:square;stroke-width:1.5;"/>
   </g>
   <g id="line2d_7"/>
   <g id="patch_5">
    <path d="M 133.7675 116.118063 
L 133.7675 30.685 
" style="fill:none;stroke:#000000;stroke-linecap:square;stroke-linejoin:miter;stroke-width:0.8;"/>
   </g>
   <g id="patch_6">
    <path d="M 7.2 108.390143 
L 260.335 108.390143 
" style="fill:none;stroke:#000000;stroke-linecap:square;stroke-linejoin:miter;stroke-width:0.8;"/>
   </g>
   <g id="text_6">
    <!-- $y=\dfrac{\sin{x}}{x}$ -->
    <g style="fill:#0000ff;" transform="translate(173.31726 39.330431)scale(0.12 -0.12)">
     <defs>
      <path d="M 7.515625 13.28125 
Q 6.6875 13.28125 6.140625 13.90625 
Q 5.609375 14.546875 5.609375 15.28125 
Q 5.609375 16.109375 6.140625 16.6875 
Q 6.6875 17.28125 7.515625 17.28125 
L 70.3125 17.28125 
Q 71.046875 17.28125 71.578125 16.6875 
Q 72.125 16.109375 72.125 15.28125 
Q 72.125 14.546875 71.578125 13.90625 
Q 71.046875 13.28125 70.3125 13.28125 
z
M 7.515625 32.71875 
Q 6.6875 32.71875 6.140625 33.296875 
Q 5.609375 33.890625 5.609375 34.71875 
Q 5.609375 35.453125 6.140625 36.078125 
Q 6.6875 36.71875 7.515625 36.71875 
L 70.3125 36.71875 
Q 71.046875 36.71875 71.578125 36.078125 
Q 72.125 35.453125 72.125 34.71875 
Q 72.125 33.890625 71.578125 33.296875 
Q 71.046875 32.71875 70.3125 32.71875 
z
" id="Cmr10-61"/>
      <path d="M 3.328125 -0.296875 
L 3.328125 16.015625 
Q 3.328125 16.796875 4.203125 16.796875 
L 5.421875 16.796875 
Q 6 16.796875 6.203125 16.015625 
Q 8.984375 1.515625 19.671875 1.515625 
Q 24.421875 1.515625 27.609375 3.65625 
Q 30.8125 5.8125 30.8125 10.296875 
Q 30.8125 13.53125 28.3125 15.796875 
Q 25.828125 18.0625 22.40625 18.890625 
L 15.71875 20.21875 
Q 12.359375 20.953125 9.59375 22.453125 
Q 6.84375 23.96875 5.078125 26.484375 
Q 3.328125 29 3.328125 32.328125 
Q 3.328125 36.71875 5.640625 39.515625 
Q 7.953125 42.328125 11.65625 43.578125 
Q 15.375 44.828125 19.671875 44.828125 
Q 24.8125 44.828125 28.609375 42.09375 
L 31.5 44.578125 
Q 31.5 44.828125 31.984375 44.828125 
L 32.71875 44.828125 
Q 33.015625 44.828125 33.25 44.546875 
Q 33.5 44.28125 33.5 44 
L 33.5 30.90625 
Q 33.5 29.984375 32.71875 29.984375 
L 31.5 29.984375 
Q 30.609375 29.984375 30.609375 30.90625 
Q 30.609375 36.140625 27.703125 39.3125 
Q 24.8125 42.484375 19.578125 42.484375 
Q 15.09375 42.484375 11.796875 40.8125 
Q 8.5 39.15625 8.5 35.109375 
Q 8.5 32.328125 10.859375 30.546875 
Q 13.234375 28.765625 16.40625 27.984375 
L 23.1875 26.703125 
Q 26.609375 25.921875 29.5625 24.0625 
Q 32.515625 22.21875 34.25 19.375 
Q 35.984375 16.546875 35.984375 12.984375 
Q 35.984375 9.375 34.734375 6.703125 
Q 33.5 4.046875 31.265625 2.28125 
Q 29.046875 0.53125 26.015625 -0.296875 
Q 23 -1.125 19.671875 -1.125 
Q 13.421875 -1.125 8.984375 3.078125 
L 5.328125 -0.875 
Q 5.328125 -1.125 4.78125 -1.125 
L 4.203125 -1.125 
Q 3.328125 -1.125 3.328125 -0.296875 
z
" id="Cmr10-115"/>
      <path d="M 3.078125 0 
L 3.078125 3.515625 
Q 6.5 3.515625 8.6875 4.046875 
Q 10.890625 4.59375 10.890625 6.6875 
L 10.890625 33.984375 
Q 10.890625 37.84375 9.390625 38.71875 
Q 7.90625 39.59375 3.515625 39.59375 
L 3.515625 43.109375 
L 17.921875 44.1875 
L 17.921875 6.6875 
Q 17.921875 4.59375 19.828125 4.046875 
Q 21.734375 3.515625 24.90625 3.515625 
L 24.90625 0 
z
M 7.328125 61.375 
Q 7.328125 63.578125 8.984375 65.234375 
Q 10.640625 66.890625 12.796875 66.890625 
Q 14.203125 66.890625 15.515625 66.15625 
Q 16.84375 65.4375 17.578125 64.109375 
Q 18.3125 62.796875 18.3125 61.375 
Q 18.3125 59.234375 16.640625 57.5625 
Q 14.984375 55.90625 12.796875 55.90625 
Q 10.640625 55.90625 8.984375 57.5625 
Q 7.328125 59.234375 7.328125 61.375 
z
" id="Cmr10-105"/>
      <path d="M 2.984375 0 
L 2.984375 3.515625 
Q 6.390625 3.515625 8.59375 4.046875 
Q 10.796875 4.59375 10.796875 6.6875 
L 10.796875 33.984375 
Q 10.796875 36.671875 9.984375 37.859375 
Q 9.1875 39.0625 7.671875 39.328125 
Q 6.15625 39.59375 2.984375 39.59375 
L 2.984375 43.109375 
L 17.484375 44.1875 
L 17.484375 34.421875 
Q 19.484375 38.71875 23.40625 41.453125 
Q 27.34375 44.1875 31.984375 44.1875 
Q 38.921875 44.1875 42.40625 40.859375 
Q 45.90625 37.546875 45.90625 30.71875 
L 45.90625 6.6875 
Q 45.90625 4.59375 48.09375 4.046875 
Q 50.296875 3.515625 53.71875 3.515625 
L 53.71875 0 
L 30.8125 0 
L 30.8125 3.515625 
Q 34.234375 3.515625 36.421875 4.046875 
Q 38.625 4.59375 38.625 6.6875 
L 38.625 30.421875 
Q 38.625 35.296875 37.203125 38.453125 
Q 35.796875 41.609375 31.390625 41.609375 
Q 25.59375 41.609375 21.84375 36.96875 
Q 18.109375 32.328125 18.109375 26.421875 
L 18.109375 6.6875 
Q 18.109375 4.59375 20.3125 4.046875 
Q 22.515625 3.515625 25.875 3.515625 
L 25.875 0 
z
" id="Cmr10-110"/>
     </defs>
     <use transform="translate(0 0.484375)" xlink:href="#Cmmi10-121"/>
     <use transform="translate(66.582031 0.484375)" xlink:href="#Cmr10-61"/>
     <use transform="translate(161.826172 39.109375)" xlink:href="#Cmr10-115"/>
     <use transform="translate(201.230469 39.109375)" xlink:href="#Cmr10-105"/>
     <use transform="translate(228.916016 39.109375)" xlink:href="#Cmr10-110"/>
     <use transform="translate(284.433594 39.109375)" xlink:href="#Cmmi10-120"/>
     <use transform="translate(222.826172 -37.453125)" xlink:href="#Cmmi10-120"/>
     <path d="M 161.826172 12.984375 
L 161.826172 19.234375 
L 341.513672 19.234375 
L 341.513672 12.984375 
L 161.826172 12.984375 
z
"/>
    </g>
   </g>
   <g id="patch_7">
    <path clip-path="url(#pcf2628fdfc)" d="M 133.7675 49.365876 
C 134.251626 49.365876 134.715989 49.173531 135.058318 48.831202 
C 135.400647 48.488873 135.592993 48.02451 135.592993 47.540383 
C 135.592993 47.056257 135.400647 46.591894 135.058318 46.249565 
C 134.715989 45.907236 134.251626 45.714891 133.7675 45.714891 
C 133.283374 45.714891 132.819011 45.907236 132.476682 46.249565 
C 132.134353 46.591894 131.942007 47.056257 131.942007 47.540383 
C 131.942007 48.02451 132.134353 48.488873 132.476682 48.831202 
C 132.819011 49.173531 133.283374 49.365876 133.7675 49.365876 
z
" style="fill:#ffffff;stroke:#0000ff;stroke-linejoin:miter;"/>
   </g>
  </g>
 </g>
 <defs>
  <clipPath id="pcf2628fdfc">
   <rect height="85.433063" width="253.135" x="7.2" y="30.685"/>
  </clipPath>
 </defs>
</svg>
