<?xml version="1.0" encoding="utf-8" standalone="no"?>
<!DOCTYPE svg PUBLIC "-//W3C//DTD SVG 1.1//EN"
  "http://www.w3.org/Graphics/SVG/1.1/DTD/svg11.dtd">
<!-- Created with matplotlib (https://matplotlib.org/) -->
<svg height="279.725pt" version="1.1" viewBox="0 0 276.359868 279.725" width="276.359868pt" xmlns="http://www.w3.org/2000/svg" xmlns:xlink="http://www.w3.org/1999/xlink">
 <metadata>
  <rdf:RDF xmlns:cc="http://creativecommons.org/ns#" xmlns:dc="http://purl.org/dc/elements/1.1/" xmlns:rdf="http://www.w3.org/1999/02/22-rdf-syntax-ns#">
   <cc:Work>
    <dc:type rdf:resource="http://purl.org/dc/dcmitype/StillImage"/>
    <dc:date>2022-02-08T22:00:49.210001</dc:date>
    <dc:format>image/svg+xml</dc:format>
    <dc:creator>
     <cc:Agent>
      <dc:title>Matplotlib v3.3.3, https://matplotlib.org/</dc:title>
     </cc:Agent>
    </dc:creator>
   </cc:Work>
  </rdf:RDF>
 </metadata>
 <defs>
  <style type="text/css">*{stroke-linecap:butt;stroke-linejoin:round;}</style>
 </defs>
 <g id="figure_1">
  <g id="patch_1">
   <path d="M 0 279.725 
L 276.359868 279.725 
L 276.359868 0 
L 0 0 
z
" style="fill:#ffffff;"/>
  </g>
  <g id="axes_1">
   <g id="patch_2">
    <path d="M 14.781829 272.525 
L 251.879868 272.525 
L 251.879868 30.685 
L 14.781829 30.685 
z
" style="fill:#ffffff;"/>
   </g>
   <g id="matplotlib.axis_1">
    <g id="xtick_1">
     <g id="line2d_1">
      <defs>
       <path d="M 0 0 
L 0 3.5 
" id="m19f5b5f019" style="stroke:#000000;stroke-width:0.8;"/>
      </defs>
      <g>
       <use style="stroke:#000000;stroke-width:0.8;" x="19.341406" xlink:href="#m19f5b5f019" y="151.605"/>
      </g>
     </g>
     <g id="text_1">
      <!-- −1.0 -->
      <g transform="translate(7.2 166.203438)scale(0.1 -0.1)">
       <defs>
        <path d="M 10.59375 35.5 
L 73.1875 35.5 
L 73.1875 27.203125 
L 10.59375 27.203125 
z
" id="DejaVuSans-8722"/>
        <path d="M 12.40625 8.296875 
L 28.515625 8.296875 
L 28.515625 63.921875 
L 10.984375 60.40625 
L 10.984375 69.390625 
L 28.421875 72.90625 
L 38.28125 72.90625 
L 38.28125 8.296875 
L 54.390625 8.296875 
L 54.390625 0 
L 12.40625 0 
z
" id="DejaVuSans-49"/>
        <path d="M 10.6875 12.40625 
L 21 12.40625 
L 21 0 
L 10.6875 0 
z
" id="DejaVuSans-46"/>
        <path d="M 31.78125 66.40625 
Q 24.171875 66.40625 20.328125 58.90625 
Q 16.5 51.421875 16.5 36.375 
Q 16.5 21.390625 20.328125 13.890625 
Q 24.171875 6.390625 31.78125 6.390625 
Q 39.453125 6.390625 43.28125 13.890625 
Q 47.125 21.390625 47.125 36.375 
Q 47.125 51.421875 43.28125 58.90625 
Q 39.453125 66.40625 31.78125 66.40625 
z
M 31.78125 74.21875 
Q 44.046875 74.21875 50.515625 64.515625 
Q 56.984375 54.828125 56.984375 36.375 
Q 56.984375 17.96875 50.515625 8.265625 
Q 44.046875 -1.421875 31.78125 -1.421875 
Q 19.53125 -1.421875 13.0625 8.265625 
Q 6.59375 17.96875 6.59375 36.375 
Q 6.59375 54.828125 13.0625 64.515625 
Q 19.53125 74.21875 31.78125 74.21875 
z
" id="DejaVuSans-48"/>
       </defs>
       <use xlink:href="#DejaVuSans-8722"/>
       <use x="83.789062" xlink:href="#DejaVuSans-49"/>
       <use x="147.412109" xlink:href="#DejaVuSans-46"/>
       <use x="179.199219" xlink:href="#DejaVuSans-48"/>
      </g>
     </g>
    </g>
    <g id="xtick_2">
     <g id="line2d_2">
      <g>
       <use style="stroke:#000000;stroke-width:0.8;" x="190.325569" xlink:href="#m19f5b5f019" y="151.605"/>
      </g>
     </g>
     <g id="text_2">
      <!-- 0.5 -->
      <g transform="translate(182.374007 166.203438)scale(0.1 -0.1)">
       <defs>
        <path d="M 10.796875 72.90625 
L 49.515625 72.90625 
L 49.515625 64.59375 
L 19.828125 64.59375 
L 19.828125 46.734375 
Q 21.96875 47.46875 24.109375 47.828125 
Q 26.265625 48.1875 28.421875 48.1875 
Q 40.625 48.1875 47.75 41.5 
Q 54.890625 34.8125 54.890625 23.390625 
Q 54.890625 11.625 47.5625 5.09375 
Q 40.234375 -1.421875 26.90625 -1.421875 
Q 22.3125 -1.421875 17.546875 -0.640625 
Q 12.796875 0.140625 7.71875 1.703125 
L 7.71875 11.625 
Q 12.109375 9.234375 16.796875 8.0625 
Q 21.484375 6.890625 26.703125 6.890625 
Q 35.15625 6.890625 40.078125 11.328125 
Q 45.015625 15.765625 45.015625 23.390625 
Q 45.015625 31 40.078125 35.4375 
Q 35.15625 39.890625 26.703125 39.890625 
Q 22.75 39.890625 18.8125 39.015625 
Q 14.890625 38.140625 10.796875 36.28125 
z
" id="DejaVuSans-53"/>
       </defs>
       <use xlink:href="#DejaVuSans-48"/>
       <use x="63.623047" xlink:href="#DejaVuSans-46"/>
       <use x="95.410156" xlink:href="#DejaVuSans-53"/>
      </g>
     </g>
    </g>
    <g id="xtick_3">
     <g id="line2d_3">
      <g>
       <use style="stroke:#000000;stroke-width:0.8;" x="76.336127" xlink:href="#m19f5b5f019" y="151.605"/>
      </g>
     </g>
     <g id="text_3">
      <!-- −0.5 -->
      <g transform="translate(64.194721 166.203438)scale(0.1 -0.1)">
       <use xlink:href="#DejaVuSans-8722"/>
       <use x="83.789062" xlink:href="#DejaVuSans-48"/>
       <use x="147.412109" xlink:href="#DejaVuSans-46"/>
       <use x="179.199219" xlink:href="#DejaVuSans-53"/>
      </g>
     </g>
    </g>
    <g id="xtick_4">
     <g id="line2d_4">
      <g>
       <use style="stroke:#000000;stroke-width:0.8;" x="247.32029" xlink:href="#m19f5b5f019" y="151.605"/>
      </g>
     </g>
     <g id="text_4">
      <!-- 1.0 -->
      <g transform="translate(239.368728 166.203438)scale(0.1 -0.1)">
       <use xlink:href="#DejaVuSans-49"/>
       <use x="63.623047" xlink:href="#DejaVuSans-46"/>
       <use x="95.410156" xlink:href="#DejaVuSans-48"/>
      </g>
     </g>
    </g>
    <g id="text_5">
     <!-- $x$ -->
     <g transform="translate(259.879868 151.605)scale(0.16 -0.16)">
      <defs>
       <path d="M 7.8125 2.875 
Q 9.578125 1.515625 12.796875 1.515625 
Q 15.921875 1.515625 18.3125 4.515625 
Q 20.703125 7.515625 21.578125 11.078125 
L 26.125 28.8125 
Q 27.203125 33.640625 27.203125 35.40625 
Q 27.203125 37.890625 25.8125 39.75 
Q 24.421875 41.609375 21.921875 41.609375 
Q 18.75 41.609375 15.96875 39.625 
Q 13.1875 37.640625 11.28125 34.59375 
Q 9.375 31.546875 8.59375 28.421875 
Q 8.40625 27.78125 7.8125 27.78125 
L 6.59375 27.78125 
Q 5.8125 27.78125 5.8125 28.71875 
L 5.8125 29 
Q 6.78125 32.71875 9.125 36.25 
Q 11.46875 39.796875 14.859375 41.984375 
Q 18.265625 44.1875 22.125 44.1875 
Q 25.78125 44.1875 28.734375 42.234375 
Q 31.6875 40.28125 32.90625 36.921875 
Q 34.625 39.984375 37.28125 42.078125 
Q 39.9375 44.1875 43.109375 44.1875 
Q 45.265625 44.1875 47.5 43.421875 
Q 49.75 42.671875 51.171875 41.109375 
Q 52.59375 39.546875 52.59375 37.203125 
Q 52.59375 34.671875 50.953125 32.828125 
Q 49.3125 31 46.78125 31 
Q 45.171875 31 44.09375 32.03125 
Q 43.015625 33.0625 43.015625 34.625 
Q 43.015625 36.71875 44.453125 38.296875 
Q 45.90625 39.890625 47.90625 40.1875 
Q 46.09375 41.609375 42.921875 41.609375 
Q 39.703125 41.609375 37.328125 38.625 
Q 34.96875 35.640625 33.984375 31.984375 
L 29.59375 14.3125 
Q 28.515625 10.296875 28.515625 7.71875 
Q 28.515625 5.171875 29.953125 3.34375 
Q 31.390625 1.515625 33.796875 1.515625 
Q 38.484375 1.515625 42.15625 5.640625 
Q 45.84375 9.765625 47.015625 14.703125 
Q 47.21875 15.28125 47.796875 15.28125 
L 49.03125 15.28125 
Q 49.421875 15.28125 49.65625 15.015625 
Q 49.90625 14.75 49.90625 14.40625 
Q 49.90625 14.3125 49.8125 14.109375 
Q 48.390625 8.15625 43.84375 3.515625 
Q 39.3125 -1.125 33.59375 -1.125 
Q 29.9375 -1.125 26.984375 0.84375 
Q 24.03125 2.828125 22.796875 6.203125 
Q 21.234375 3.265625 18.46875 1.0625 
Q 15.71875 -1.125 12.59375 -1.125 
Q 10.453125 -1.125 8.171875 -0.359375 
Q 5.90625 0.390625 4.484375 1.953125 
Q 3.078125 3.515625 3.078125 5.90625 
Q 3.078125 8.25 4.703125 10.171875 
Q 6.34375 12.109375 8.796875 12.109375 
Q 10.453125 12.109375 11.578125 11.109375 
Q 12.703125 10.109375 12.703125 8.5 
Q 12.703125 6.390625 11.296875 4.828125 
Q 9.90625 3.265625 7.8125 2.875 
z
" id="Cmmi10-120"/>
      </defs>
      <use transform="translate(0 0.8125)" xlink:href="#Cmmi10-120"/>
     </g>
    </g>
   </g>
   <g id="matplotlib.axis_2">
    <g id="ytick_1">
     <g id="line2d_5">
      <defs>
       <path d="M 0 0 
L -3.5 0 
" id="m8807e7593c" style="stroke:#000000;stroke-width:0.8;"/>
      </defs>
      <g>
       <use style="stroke:#000000;stroke-width:0.8;" x="133.330848" xlink:href="#m8807e7593c" y="265.594442"/>
      </g>
     </g>
     <g id="text_6">
      <!-- −1.0 -->
      <g transform="translate(102.048036 269.393661)scale(0.1 -0.1)">
       <use xlink:href="#DejaVuSans-8722"/>
       <use x="83.789062" xlink:href="#DejaVuSans-49"/>
       <use x="147.412109" xlink:href="#DejaVuSans-46"/>
       <use x="179.199219" xlink:href="#DejaVuSans-48"/>
      </g>
     </g>
    </g>
    <g id="ytick_2">
     <g id="line2d_6">
      <g>
       <use style="stroke:#000000;stroke-width:0.8;" x="133.330848" xlink:href="#m8807e7593c" y="94.610279"/>
      </g>
     </g>
     <g id="text_7">
      <!-- 0.5 -->
      <g transform="translate(110.427723 98.409498)scale(0.1 -0.1)">
       <use xlink:href="#DejaVuSans-48"/>
       <use x="63.623047" xlink:href="#DejaVuSans-46"/>
       <use x="95.410156" xlink:href="#DejaVuSans-53"/>
      </g>
     </g>
    </g>
    <g id="ytick_3">
     <g id="line2d_7">
      <g>
       <use style="stroke:#000000;stroke-width:0.8;" x="133.330848" xlink:href="#m8807e7593c" y="208.599721"/>
      </g>
     </g>
     <g id="text_8">
      <!-- −0.5 -->
      <g transform="translate(102.048036 212.39894)scale(0.1 -0.1)">
       <use xlink:href="#DejaVuSans-8722"/>
       <use x="83.789062" xlink:href="#DejaVuSans-48"/>
       <use x="147.412109" xlink:href="#DejaVuSans-46"/>
       <use x="179.199219" xlink:href="#DejaVuSans-53"/>
      </g>
     </g>
    </g>
    <g id="ytick_4">
     <g id="line2d_8">
      <g>
       <use style="stroke:#000000;stroke-width:0.8;" x="133.330848" xlink:href="#m8807e7593c" y="37.615558"/>
      </g>
     </g>
     <g id="text_9">
      <!-- 1.0 -->
      <g transform="translate(110.427723 41.414777)scale(0.1 -0.1)">
       <use xlink:href="#DejaVuSans-49"/>
       <use x="63.623047" xlink:href="#DejaVuSans-46"/>
       <use x="95.410156" xlink:href="#DejaVuSans-48"/>
      </g>
     </g>
    </g>
    <g id="text_10">
     <!-- $y$ -->
     <g transform="translate(129.330848 19.325)scale(0.16 -0.16)">
      <defs>
       <path d="M 8.40625 -14.3125 
Q 10.5 -17.921875 15.71875 -17.921875 
Q 20.453125 -17.921875 23.921875 -14.59375 
Q 27.390625 -11.28125 29.515625 -6.5625 
Q 31.640625 -1.859375 32.8125 3.078125 
Q 28.375 -1.125 23.1875 -1.125 
Q 19.234375 -1.125 16.453125 0.234375 
Q 13.671875 1.609375 12.125 4.3125 
Q 10.59375 7.03125 10.59375 10.890625 
Q 10.59375 14.15625 11.46875 17.59375 
Q 12.359375 21.046875 13.9375 25.265625 
Q 15.53125 29.5 16.703125 32.625 
Q 18.015625 36.28125 18.015625 38.625 
Q 18.015625 41.609375 15.828125 41.609375 
Q 11.859375 41.609375 9.296875 37.53125 
Q 6.734375 33.453125 5.515625 28.421875 
Q 5.328125 27.78125 4.6875 27.78125 
L 3.515625 27.78125 
Q 2.6875 27.78125 2.6875 28.71875 
L 2.6875 29 
Q 4.296875 34.96875 7.609375 39.578125 
Q 10.9375 44.1875 16.015625 44.1875 
Q 19.578125 44.1875 22.046875 41.84375 
Q 24.515625 39.5 24.515625 35.890625 
Q 24.515625 34.03125 23.6875 31.984375 
Q 23.25 30.765625 21.6875 26.65625 
Q 20.125 22.5625 19.28125 19.875 
Q 18.453125 17.1875 17.921875 14.59375 
Q 17.390625 12.015625 17.390625 9.421875 
Q 17.390625 6.109375 18.796875 3.8125 
Q 20.21875 1.515625 23.296875 1.515625 
Q 29.5 1.515625 34.421875 9.078125 
L 42 39.890625 
Q 42.328125 41.21875 43.546875 42.15625 
Q 44.78125 43.109375 46.1875 43.109375 
Q 47.40625 43.109375 48.3125 42.328125 
Q 49.21875 41.546875 49.21875 40.28125 
Q 49.21875 39.703125 49.125 39.5 
L 39.203125 -0.296875 
Q 37.890625 -5.421875 34.375 -10.109375 
Q 30.859375 -14.796875 25.90625 -17.65625 
Q 20.953125 -20.515625 15.578125 -20.515625 
Q 12.984375 -20.515625 10.4375 -19.5 
Q 7.90625 -18.5 6.34375 -16.5 
Q 4.78125 -14.5 4.78125 -11.8125 
Q 4.78125 -9.078125 6.390625 -7.078125 
Q 8.015625 -5.078125 10.6875 -5.078125 
Q 12.3125 -5.078125 13.40625 -6.078125 
Q 14.5 -7.078125 14.5 -8.6875 
Q 14.5 -10.984375 12.78125 -12.6875 
Q 11.078125 -14.40625 8.796875 -14.40625 
Q 8.6875 -14.359375 8.59375 -14.328125 
Q 8.5 -14.3125 8.40625 -14.3125 
z
" id="Cmmi10-121"/>
      </defs>
      <use transform="translate(0 0.8125)" xlink:href="#Cmmi10-121"/>
     </g>
    </g>
   </g>
   <g id="patch_3">
    <path clip-path="url(#p58fb23110f)" d="M 161.828209 145.905528 
Q 147.579528 145.905528 135.566916 145.905528 
" style="fill:none;stroke:#808080;stroke-linecap:round;stroke-width:2;"/>
    <path clip-path="url(#p58fb23110f)" d="M 139.566916 147.905528 
L 135.566916 145.905528 
L 139.566916 143.905528 
L 139.566916 147.905528 
z
" style="fill:#808080;stroke:#808080;stroke-linecap:round;stroke-width:2;"/>
   </g>
   <g id="patch_4">
    <path clip-path="url(#p58fb23110f)" d="M 104.833488 145.905528 
Q 119.082168 145.905528 131.09478 145.905528 
" style="fill:none;stroke:#808080;stroke-linecap:round;stroke-width:2;"/>
    <path clip-path="url(#p58fb23110f)" d="M 127.09478 143.905528 
L 131.09478 145.905528 
L 127.09478 147.905528 
L 127.09478 143.905528 
z
" style="fill:#808080;stroke:#808080;stroke-linecap:round;stroke-width:2;"/>
   </g>
   <g id="line2d_9">
    <path clip-path="url(#p58fb23110f)" d="M 19.341406 265.594442 
L 20.100247 265.594442 
L 21.168486 265.594442 
L 22.684048 265.594442 
L 24.247865 265.594442 
L 25.03663 265.594442 
L 25.94073 265.594442 
L 27.324191 265.594442 
L 28.037262 265.594442 
L 29.777227 265.594442 
L 31.346352 265.594442 
L 31.854924 265.594442 
L 33.121102 265.594442 
L 34.800473 265.594442 
L 35.648507 265.594442 
L 36.600852 265.594442 
L 37.437713 265.594442 
L 38.750637 265.594442 
L 39.848953 265.594442 
L 41.089756 265.594442 
L 42.187688 265.594442 
L 42.999165 265.594442 
L 44.024413 265.594442 
L 45.962269 265.594442 
L 46.928865 265.594442 
L 47.802655 265.594442 
L 49.267205 265.594442 
L 50.197053 265.594442 
L 51.808691 265.594442 
L 52.663746 265.594442 
L 54.256384 265.594442 
L 54.326256 265.594442 
L 56.443271 265.594442 
L 57.618083 265.594442 
L 58.722983 265.594442 
L 59.252988 265.594442 
L 60.260931 265.594442 
L 61.183128 265.594442 
L 62.839507 265.594442 
L 63.953259 265.594442 
L 65.331218 265.594442 
L 66.713461 265.594442 
L 67.478157 265.594442 
L 68.890139 265.594442 
L 70.241384 265.594442 
L 71.267798 265.594442 
L 72.350933 265.594442 
L 72.621127 265.594442 
L 74.686573 265.594442 
L 75.69233 265.594442 
L 76.743941 265.594442 
L 77.834564 265.594442 
L 79.028709 265.594442 
L 80.05524 265.594442 
L 81.459698 265.594442 
L 82.817746 265.594442 
L 83.258427 265.594442 
L 84.145231 265.594442 
L 85.260603 265.594442 
L 86.426522 265.594442 
L 88.134664 265.594442 
L 89.545975 265.594442 
L 90.010372 265.594442 
L 92.079704 265.594442 
L 93.104476 265.594442 
L 94.238734 265.594442 
L 94.430967 265.594442 
L 96.380657 265.594442 
L 97.258604 265.594442 
L 98.602658 265.594442 
L 100.063779 265.594442 
L 100.933404 265.594442 
L 101.984102 265.594442 
L 102.848992 265.594442 
L 104.58218 265.594442 
L 105.190476 265.594442 
L 106.293369 265.594442 
L 107.794506 265.594442 
L 108.305124 265.594442 
L 109.932546 265.594442 
L 110.723248 265.594442 
L 112.647712 265.594442 
L 113.403189 265.594442 
L 114.800679 265.594442 
L 116.104067 265.594442 
L 117.076782 265.594442 
L 117.952823 265.594442 
L 119.216826 265.594442 
L 119.913031 265.594442 
L 121.557658 265.594442 
L 122.203953 265.594442 
L 123.377081 265.594442 
L 125.110533 265.594442 
L 125.947895 265.594442 
L 126.628374 265.594442 
L 128.57083 265.594442 
L 129.700229 265.594442 
L 130.552789 265.594442 
L 131.204919 265.594442 
L 132.475768 265.594442 
" style="fill:none;stroke:#0000ff;stroke-linecap:square;stroke-width:1.5;"/>
   </g>
   <g id="line2d_10">
    <path clip-path="url(#p58fb23110f)" d="M 134.469675 37.615558 
L 135.582316 37.615558 
L 136.386771 37.615558 
L 137.549559 37.615558 
L 139.009709 37.615558 
L 139.873537 37.615558 
L 141.119233 37.615558 
L 142.453285 37.615558 
L 143.60123 37.615558 
L 143.769337 37.615558 
L 145.374909 37.615558 
L 146.466663 37.615558 
L 147.454357 37.615558 
L 148.919219 37.615558 
L 149.49811 37.615558 
L 151.191352 37.615558 
L 152.420926 37.615558 
L 153.429936 37.615558 
L 154.174748 37.615558 
L 156.081797 37.615558 
L 157.014394 37.615558 
L 158.350262 37.615558 
L 158.593593 37.615558 
L 160.279871 37.615558 
L 161.767968 37.615558 
L 162.986701 37.615558 
L 163.549992 37.615558 
L 164.291738 37.615558 
L 166.091569 37.615558 
L 167.60539 37.615558 
L 168.260245 37.615558 
L 169.490515 37.615558 
L 170.010918 37.615558 
L 171.436501 37.615558 
L 172.840504 37.615558 
L 174.409961 37.615558 
L 175.17711 37.615558 
L 175.825646 37.615558 
L 177.768735 37.615558 
L 179.112544 37.615558 
L 179.605668 37.615558 
L 180.764094 37.615558 
L 181.563606 37.615558 
L 182.930603 37.615558 
L 184.388778 37.615558 
L 185.792987 37.615558 
L 186.055901 37.615558 
L 187.417843 37.615558 
L 188.823596 37.615558 
L 190.236564 37.615558 
L 191.741637 37.615558 
L 192.753755 37.615558 
L 193.696541 37.615558 
L 195.094496 37.615558 
L 195.687287 37.615558 
L 196.891753 37.615558 
L 198.211278 37.615558 
L 199.302134 37.615558 
L 200.107692 37.615558 
L 201.312908 37.615558 
L 202.954124 37.615558 
L 204.293064 37.615558 
L 204.925865 37.615558 
L 206.261147 37.615558 
L 207.118883 37.615558 
L 208.032208 37.615558 
L 209.833576 37.615558 
L 210.374535 37.615558 
L 211.708833 37.615558 
L 213.056558 37.615558 
L 214.415987 37.615558 
L 215.580148 37.615558 
L 216.12358 37.615558 
L 217.769225 37.615558 
L 218.671017 37.615558 
L 220.338367 37.615558 
L 221.246608 37.615558 
L 221.682324 37.615558 
L 222.860363 37.615558 
L 224.680364 37.615558 
L 225.037002 37.615558 
L 226.387398 37.615558 
L 227.711207 37.615558 
L 228.847036 37.615558 
L 230.435805 37.615558 
L 231.837374 37.615558 
L 232.623217 37.615558 
L 233.965325 37.615558 
L 234.539674 37.615558 
L 235.910803 37.615558 
L 236.677129 37.615558 
L 238.103443 37.615558 
L 239.645717 37.615558 
L 240.08666 37.615558 
L 242.100544 37.615558 
L 242.172509 37.615558 
L 243.807388 37.615558 
L 244.989271 37.615558 
L 246.443707 37.615558 
L 247.32029 37.615558 
" style="fill:none;stroke:#0000ff;stroke-linecap:square;stroke-width:1.5;"/>
   </g>
   <g id="patch_5">
    <path d="M 133.330848 272.525 
L 133.330848 30.685 
" style="fill:none;stroke:#000000;stroke-linecap:square;stroke-linejoin:miter;stroke-width:0.8;"/>
   </g>
   <g id="patch_6">
    <path d="M 14.781829 151.605 
L 251.879868 151.605 
" style="fill:none;stroke:#000000;stroke-linecap:square;stroke-linejoin:miter;stroke-width:0.8;"/>
   </g>
   <g id="text_11">
    <!-- $y=\dfrac{|x|}{x}$ -->
    <g style="fill:#0000ff;" transform="translate(173.105569 100.490279)scale(0.12 -0.12)">
     <defs>
      <path d="M 7.515625 13.28125 
Q 6.6875 13.28125 6.140625 13.90625 
Q 5.609375 14.546875 5.609375 15.28125 
Q 5.609375 16.109375 6.140625 16.6875 
Q 6.6875 17.28125 7.515625 17.28125 
L 70.3125 17.28125 
Q 71.046875 17.28125 71.578125 16.6875 
Q 72.125 16.109375 72.125 15.28125 
Q 72.125 14.546875 71.578125 13.90625 
Q 71.046875 13.28125 70.3125 13.28125 
z
M 7.515625 32.71875 
Q 6.6875 32.71875 6.140625 33.296875 
Q 5.609375 33.890625 5.609375 34.71875 
Q 5.609375 35.453125 6.140625 36.078125 
Q 6.6875 36.71875 7.515625 36.71875 
L 70.3125 36.71875 
Q 71.046875 36.71875 71.578125 36.078125 
Q 72.125 35.453125 72.125 34.71875 
Q 72.125 33.890625 71.578125 33.296875 
Q 71.046875 32.71875 70.3125 32.71875 
z
" id="Cmr10-61"/>
      <path d="M 11.921875 -23.1875 
L 11.921875 73.1875 
Q 11.921875 73.96875 12.5 74.484375 
Q 13.09375 75 13.921875 75 
Q 14.65625 75 15.28125 74.484375 
Q 15.921875 73.96875 15.921875 73.1875 
L 15.921875 -23.1875 
Q 15.921875 -23.96875 15.28125 -24.484375 
Q 14.65625 -25 13.921875 -25 
Q 13.09375 -25 12.5 -24.484375 
Q 11.921875 -23.96875 11.921875 -23.1875 
z
" id="Cmsy10-106"/>
     </defs>
     <use transform="translate(0 0.5)" xlink:href="#Cmmi10-121"/>
     <use transform="translate(66.582031 0.5)" xlink:href="#Cmr10-61"/>
     <use transform="translate(161.826172 63)" xlink:href="#Cmsy10-106"/>
     <use transform="translate(189.511719 63)" xlink:href="#Cmmi10-120"/>
     <use transform="translate(246.591797 63)" xlink:href="#Cmsy10-106"/>
     <use transform="translate(189.826172 -37.4375)" xlink:href="#Cmmi10-120"/>
     <path d="M 161.826172 13 
L 161.826172 19.25 
L 274.277344 19.25 
L 274.277344 13 
L 161.826172 13 
z
"/>
    </g>
   </g>
   <g id="patch_7">
    <path clip-path="url(#p58fb23110f)" d="M 133.330848 39.895347 
C 133.935455 39.895347 134.515381 39.655134 134.942902 39.227612 
C 135.370424 38.80009 135.610637 38.220165 135.610637 37.615558 
C 135.610637 37.010951 135.370424 36.431026 134.942902 36.003504 
C 134.515381 35.575982 133.935455 35.335769 133.330848 35.335769 
C 132.726241 35.335769 132.146316 35.575982 131.718794 36.003504 
C 131.291272 36.431026 131.051059 37.010951 131.051059 37.615558 
C 131.051059 38.220165 131.291272 38.80009 131.718794 39.227612 
C 132.146316 39.655134 132.726241 39.895347 133.330848 39.895347 
z
" style="fill:#ffffff;stroke:#0000ff;stroke-linejoin:miter;"/>
   </g>
   <g id="patch_8">
    <path clip-path="url(#p58fb23110f)" d="M 133.330848 267.874231 
C 133.935455 267.874231 134.515381 267.634018 134.942902 267.206496 
C 135.370424 266.778974 135.610637 266.199049 135.610637 265.594442 
C 135.610637 264.989835 135.370424 264.40991 134.942902 263.982388 
C 134.515381 263.554866 133.935455 263.314653 133.330848 263.314653 
C 132.726241 263.314653 132.146316 263.554866 131.718794 263.982388 
C 131.291272 264.40991 131.051059 264.989835 131.051059 265.594442 
C 131.051059 266.199049 131.291272 266.778974 131.718794 267.206496 
C 132.146316 267.634018 132.726241 267.874231 133.330848 267.874231 
z
" style="fill:#ffffff;stroke:#0000ff;stroke-linejoin:miter;"/>
   </g>
  </g>
 </g>
 <defs>
  <clipPath id="p58fb23110f">
   <rect height="241.84" width="237.098039" x="14.781829" y="30.685"/>
  </clipPath>
 </defs>
</svg>
