<?xml version="1.0" encoding="utf-8" standalone="no"?>
<!DOCTYPE svg PUBLIC "-//W3C//DTD SVG 1.1//EN"
  "http://www.w3.org/Graphics/SVG/1.1/DTD/svg11.dtd">
<!-- Created with matplotlib (https://matplotlib.org/) -->
<svg height="198.829125pt" version="1.1" viewBox="0 0 283.822857 198.829125" width="283.822857pt" xmlns="http://www.w3.org/2000/svg" xmlns:xlink="http://www.w3.org/1999/xlink">
 <metadata>
  <rdf:RDF xmlns:cc="http://creativecommons.org/ns#" xmlns:dc="http://purl.org/dc/elements/1.1/" xmlns:rdf="http://www.w3.org/1999/02/22-rdf-syntax-ns#">
   <cc:Work>
    <dc:type rdf:resource="http://purl.org/dc/dcmitype/StillImage"/>
    <dc:date>2022-02-21T19:22:00.378824</dc:date>
    <dc:format>image/svg+xml</dc:format>
    <dc:creator>
     <cc:Agent>
      <dc:title>Matplotlib v3.3.3, https://matplotlib.org/</dc:title>
     </cc:Agent>
    </dc:creator>
   </cc:Work>
  </rdf:RDF>
 </metadata>
 <defs>
  <style type="text/css">*{stroke-linecap:butt;stroke-linejoin:round;}</style>
 </defs>
 <g id="figure_1">
  <g id="patch_1">
   <path d="M 0 198.829125 
L 283.822857 198.829125 
L 283.822857 0 
L 0 0 
z
" style="fill:#ffffff;"/>
  </g>
  <g id="axes_1">
   <g id="patch_2">
    <path d="M 16.752472 190.325124 
L 259.342857 190.325124 
L 259.342857 30.685 
L 16.752472 30.685 
z
" style="fill:#ffffff;"/>
   </g>
   <g id="matplotlib.axis_1">
    <g id="xtick_1">
     <g id="line2d_1">
      <defs>
       <path d="M 0 0 
L 0 3.5 
" id="mdc21d22e7e" style="stroke:#000000;stroke-width:0.8;"/>
      </defs>
      <g>
       <use style="stroke:#000000;stroke-width:0.8;" x="28.942187" xlink:href="#mdc21d22e7e" y="110.505062"/>
      </g>
     </g>
    </g>
    <g id="xtick_2">
     <g id="line2d_2">
      <g>
       <use style="stroke:#000000;stroke-width:0.8;" x="104.187344" xlink:href="#mdc21d22e7e" y="110.505062"/>
      </g>
     </g>
     <g id="text_1">
      <!-- 1 -->
      <g transform="translate(101.006094 125.1035)scale(0.1 -0.1)">
       <defs>
        <path d="M 12.40625 8.296875 
L 28.515625 8.296875 
L 28.515625 63.921875 
L 10.984375 60.40625 
L 10.984375 69.390625 
L 28.421875 72.90625 
L 38.28125 72.90625 
L 38.28125 8.296875 
L 54.390625 8.296875 
L 54.390625 0 
L 12.40625 0 
z
" id="DejaVuSans-49"/>
       </defs>
       <use xlink:href="#DejaVuSans-49"/>
      </g>
     </g>
    </g>
    <g id="xtick_3">
     <g id="line2d_3">
      <g>
       <use style="stroke:#000000;stroke-width:0.8;" x="179.432501" xlink:href="#mdc21d22e7e" y="110.505062"/>
      </g>
     </g>
     <g id="text_2">
      <!-- 2 -->
      <g transform="translate(176.251251 125.1035)scale(0.1 -0.1)">
       <defs>
        <path d="M 19.1875 8.296875 
L 53.609375 8.296875 
L 53.609375 0 
L 7.328125 0 
L 7.328125 8.296875 
Q 12.9375 14.109375 22.625 23.890625 
Q 32.328125 33.6875 34.8125 36.53125 
Q 39.546875 41.84375 41.421875 45.53125 
Q 43.3125 49.21875 43.3125 52.78125 
Q 43.3125 58.59375 39.234375 62.25 
Q 35.15625 65.921875 28.609375 65.921875 
Q 23.96875 65.921875 18.8125 64.3125 
Q 13.671875 62.703125 7.8125 59.421875 
L 7.8125 69.390625 
Q 13.765625 71.78125 18.9375 73 
Q 24.125 74.21875 28.421875 74.21875 
Q 39.75 74.21875 46.484375 68.546875 
Q 53.21875 62.890625 53.21875 53.421875 
Q 53.21875 48.921875 51.53125 44.890625 
Q 49.859375 40.875 45.40625 35.40625 
Q 44.1875 33.984375 37.640625 27.21875 
Q 31.109375 20.453125 19.1875 8.296875 
z
" id="DejaVuSans-50"/>
       </defs>
       <use xlink:href="#DejaVuSans-50"/>
      </g>
     </g>
    </g>
    <g id="xtick_4">
     <g id="line2d_4">
      <g>
       <use style="stroke:#000000;stroke-width:0.8;" x="254.677657" xlink:href="#mdc21d22e7e" y="110.505062"/>
      </g>
     </g>
     <g id="text_3">
      <!-- 3 -->
      <g transform="translate(251.496407 125.1035)scale(0.1 -0.1)">
       <defs>
        <path d="M 40.578125 39.3125 
Q 47.65625 37.796875 51.625 33 
Q 55.609375 28.21875 55.609375 21.1875 
Q 55.609375 10.40625 48.1875 4.484375 
Q 40.765625 -1.421875 27.09375 -1.421875 
Q 22.515625 -1.421875 17.65625 -0.515625 
Q 12.796875 0.390625 7.625 2.203125 
L 7.625 11.71875 
Q 11.71875 9.328125 16.59375 8.109375 
Q 21.484375 6.890625 26.8125 6.890625 
Q 36.078125 6.890625 40.9375 10.546875 
Q 45.796875 14.203125 45.796875 21.1875 
Q 45.796875 27.640625 41.28125 31.265625 
Q 36.765625 34.90625 28.71875 34.90625 
L 20.21875 34.90625 
L 20.21875 43.015625 
L 29.109375 43.015625 
Q 36.375 43.015625 40.234375 45.921875 
Q 44.09375 48.828125 44.09375 54.296875 
Q 44.09375 59.90625 40.109375 62.90625 
Q 36.140625 65.921875 28.71875 65.921875 
Q 24.65625 65.921875 20.015625 65.03125 
Q 15.375 64.15625 9.8125 62.3125 
L 9.8125 71.09375 
Q 15.4375 72.65625 20.34375 73.4375 
Q 25.25 74.21875 29.59375 74.21875 
Q 40.828125 74.21875 47.359375 69.109375 
Q 53.90625 64.015625 53.90625 55.328125 
Q 53.90625 49.265625 50.4375 45.09375 
Q 46.96875 40.921875 40.578125 39.3125 
z
" id="DejaVuSans-51"/>
       </defs>
       <use xlink:href="#DejaVuSans-51"/>
      </g>
     </g>
    </g>
    <g id="text_4">
     <!-- $x$ -->
     <g transform="translate(267.342857 110.505062)scale(0.16 -0.16)">
      <defs>
       <path d="M 7.8125 2.875 
Q 9.578125 1.515625 12.796875 1.515625 
Q 15.921875 1.515625 18.3125 4.515625 
Q 20.703125 7.515625 21.578125 11.078125 
L 26.125 28.8125 
Q 27.203125 33.640625 27.203125 35.40625 
Q 27.203125 37.890625 25.8125 39.75 
Q 24.421875 41.609375 21.921875 41.609375 
Q 18.75 41.609375 15.96875 39.625 
Q 13.1875 37.640625 11.28125 34.59375 
Q 9.375 31.546875 8.59375 28.421875 
Q 8.40625 27.78125 7.8125 27.78125 
L 6.59375 27.78125 
Q 5.8125 27.78125 5.8125 28.71875 
L 5.8125 29 
Q 6.78125 32.71875 9.125 36.25 
Q 11.46875 39.796875 14.859375 41.984375 
Q 18.265625 44.1875 22.125 44.1875 
Q 25.78125 44.1875 28.734375 42.234375 
Q 31.6875 40.28125 32.90625 36.921875 
Q 34.625 39.984375 37.28125 42.078125 
Q 39.9375 44.1875 43.109375 44.1875 
Q 45.265625 44.1875 47.5 43.421875 
Q 49.75 42.671875 51.171875 41.109375 
Q 52.59375 39.546875 52.59375 37.203125 
Q 52.59375 34.671875 50.953125 32.828125 
Q 49.3125 31 46.78125 31 
Q 45.171875 31 44.09375 32.03125 
Q 43.015625 33.0625 43.015625 34.625 
Q 43.015625 36.71875 44.453125 38.296875 
Q 45.90625 39.890625 47.90625 40.1875 
Q 46.09375 41.609375 42.921875 41.609375 
Q 39.703125 41.609375 37.328125 38.625 
Q 34.96875 35.640625 33.984375 31.984375 
L 29.59375 14.3125 
Q 28.515625 10.296875 28.515625 7.71875 
Q 28.515625 5.171875 29.953125 3.34375 
Q 31.390625 1.515625 33.796875 1.515625 
Q 38.484375 1.515625 42.15625 5.640625 
Q 45.84375 9.765625 47.015625 14.703125 
Q 47.21875 15.28125 47.796875 15.28125 
L 49.03125 15.28125 
Q 49.421875 15.28125 49.65625 15.015625 
Q 49.90625 14.75 49.90625 14.40625 
Q 49.90625 14.3125 49.8125 14.109375 
Q 48.390625 8.15625 43.84375 3.515625 
Q 39.3125 -1.125 33.59375 -1.125 
Q 29.9375 -1.125 26.984375 0.84375 
Q 24.03125 2.828125 22.796875 6.203125 
Q 21.234375 3.265625 18.46875 1.0625 
Q 15.71875 -1.125 12.59375 -1.125 
Q 10.453125 -1.125 8.171875 -0.359375 
Q 5.90625 0.390625 4.484375 1.953125 
Q 3.078125 3.515625 3.078125 5.90625 
Q 3.078125 8.25 4.703125 10.171875 
Q 6.34375 12.109375 8.796875 12.109375 
Q 10.453125 12.109375 11.578125 11.109375 
Q 12.703125 10.109375 12.703125 8.5 
Q 12.703125 6.390625 11.296875 4.828125 
Q 9.90625 3.265625 7.8125 2.875 
z
" id="Cmmi10-120"/>
      </defs>
      <use transform="translate(0 0.8125)" xlink:href="#Cmmi10-120"/>
     </g>
    </g>
   </g>
   <g id="matplotlib.axis_2">
    <g id="ytick_1">
     <g id="line2d_5">
      <defs>
       <path d="M 0 0 
L -3.5 0 
" id="mad796811f5" style="stroke:#000000;stroke-width:0.8;"/>
      </defs>
      <g>
       <use style="stroke:#000000;stroke-width:0.8;" x="28.942187" xlink:href="#mad796811f5" y="185.750219"/>
      </g>
     </g>
     <g id="text_5">
      <!-- −1 -->
      <g transform="translate(7.2 189.549437)scale(0.1 -0.1)">
       <defs>
        <path d="M 10.59375 35.5 
L 73.1875 35.5 
L 73.1875 27.203125 
L 10.59375 27.203125 
z
" id="DejaVuSans-8722"/>
       </defs>
       <use xlink:href="#DejaVuSans-8722"/>
       <use x="83.789062" xlink:href="#DejaVuSans-49"/>
      </g>
     </g>
    </g>
    <g id="ytick_2">
     <g id="line2d_6">
      <g>
       <use style="stroke:#000000;stroke-width:0.8;" x="28.942187" xlink:href="#mad796811f5" y="35.259906"/>
      </g>
     </g>
     <g id="text_6">
      <!-- 1 -->
      <g transform="translate(15.579687 39.059124)scale(0.1 -0.1)">
       <use xlink:href="#DejaVuSans-49"/>
      </g>
     </g>
    </g>
    <g id="text_7">
     <!-- $y$ -->
     <g transform="translate(24.942187 19.325)scale(0.16 -0.16)">
      <defs>
       <path d="M 8.40625 -14.3125 
Q 10.5 -17.921875 15.71875 -17.921875 
Q 20.453125 -17.921875 23.921875 -14.59375 
Q 27.390625 -11.28125 29.515625 -6.5625 
Q 31.640625 -1.859375 32.8125 3.078125 
Q 28.375 -1.125 23.1875 -1.125 
Q 19.234375 -1.125 16.453125 0.234375 
Q 13.671875 1.609375 12.125 4.3125 
Q 10.59375 7.03125 10.59375 10.890625 
Q 10.59375 14.15625 11.46875 17.59375 
Q 12.359375 21.046875 13.9375 25.265625 
Q 15.53125 29.5 16.703125 32.625 
Q 18.015625 36.28125 18.015625 38.625 
Q 18.015625 41.609375 15.828125 41.609375 
Q 11.859375 41.609375 9.296875 37.53125 
Q 6.734375 33.453125 5.515625 28.421875 
Q 5.328125 27.78125 4.6875 27.78125 
L 3.515625 27.78125 
Q 2.6875 27.78125 2.6875 28.71875 
L 2.6875 29 
Q 4.296875 34.96875 7.609375 39.578125 
Q 10.9375 44.1875 16.015625 44.1875 
Q 19.578125 44.1875 22.046875 41.84375 
Q 24.515625 39.5 24.515625 35.890625 
Q 24.515625 34.03125 23.6875 31.984375 
Q 23.25 30.765625 21.6875 26.65625 
Q 20.125 22.5625 19.28125 19.875 
Q 18.453125 17.1875 17.921875 14.59375 
Q 17.390625 12.015625 17.390625 9.421875 
Q 17.390625 6.109375 18.796875 3.8125 
Q 20.21875 1.515625 23.296875 1.515625 
Q 29.5 1.515625 34.421875 9.078125 
L 42 39.890625 
Q 42.328125 41.21875 43.546875 42.15625 
Q 44.78125 43.109375 46.1875 43.109375 
Q 47.40625 43.109375 48.3125 42.328125 
Q 49.21875 41.546875 49.21875 40.28125 
Q 49.21875 39.703125 49.125 39.5 
L 39.203125 -0.296875 
Q 37.890625 -5.421875 34.375 -10.109375 
Q 30.859375 -14.796875 25.90625 -17.65625 
Q 20.953125 -20.515625 15.578125 -20.515625 
Q 12.984375 -20.515625 10.4375 -19.5 
Q 7.90625 -18.5 6.34375 -16.5 
Q 4.78125 -14.5 4.78125 -11.8125 
Q 4.78125 -9.078125 6.390625 -7.078125 
Q 8.015625 -5.078125 10.6875 -5.078125 
Q 12.3125 -5.078125 13.40625 -6.078125 
Q 14.5 -7.078125 14.5 -8.6875 
Q 14.5 -10.984375 12.78125 -12.6875 
Q 11.078125 -14.40625 8.796875 -14.40625 
Q 8.6875 -14.359375 8.59375 -14.328125 
Q 8.5 -14.3125 8.40625 -14.3125 
z
" id="Cmmi10-121"/>
      </defs>
      <use transform="translate(0 0.8125)" xlink:href="#Cmmi10-121"/>
     </g>
    </g>
   </g>
   <g id="patch_3">
    <path clip-path="url(#p3ca19f7961)" d="M 198.24379 106.742804 
Q 188.838145 106.742804 181.668569 106.742804 
" style="fill:none;stroke:#808080;stroke-linecap:round;stroke-width:2;"/>
    <path clip-path="url(#p3ca19f7961)" d="M 185.668569 108.742804 
L 181.668569 106.742804 
L 185.668569 104.742804 
L 185.668569 108.742804 
z
" style="fill:#808080;stroke:#808080;stroke-linecap:round;stroke-width:2;"/>
   </g>
   <g id="patch_4">
    <path clip-path="url(#p3ca19f7961)" d="M 160.621211 106.742804 
Q 170.026856 106.742804 177.196433 106.742804 
" style="fill:none;stroke:#808080;stroke-linecap:round;stroke-width:2;"/>
    <path clip-path="url(#p3ca19f7961)" d="M 173.196433 104.742804 
L 177.196433 106.742804 
L 173.196433 108.742804 
L 173.196433 104.742804 
z
" style="fill:#808080;stroke:#808080;stroke-linecap:round;stroke-width:2;"/>
   </g>
   <g id="line2d_7">
    <path clip-path="url(#p3ca19f7961)" d="M 104.187344 185.750219 
L 105.221246 185.750219 
L 106.053391 185.750219 
L 106.108969 185.750219 
L 107.546438 185.750219 
L 107.927482 185.750219 
L 108.521105 185.750219 
L 109.853469 185.750219 
L 109.946855 185.750219 
L 110.802667 185.750219 
L 111.926006 185.750219 
L 112.586436 185.750219 
L 113.518781 185.750219 
L 113.725771 185.750219 
L 114.476772 185.750219 
L 115.236945 185.750219 
L 115.946142 185.750219 
L 116.721051 185.750219 
L 117.52201 185.750219 
L 118.809581 185.750219 
L 118.969705 185.750219 
L 120.369834 185.750219 
L 120.597263 185.750219 
L 121.847729 185.750219 
L 122.387086 185.750219 
L 123.388739 185.750219 
L 124.128534 185.750219 
L 124.382312 185.750219 
L 125.614679 185.750219 
L 126.242061 185.750219 
L 126.762962 185.750219 
L 127.646761 185.750219 
L 128.419024 185.750219 
L 129.122063 185.750219 
L 130.239929 185.750219 
L 130.332549 185.750219 
L 131.389561 185.750219 
L 132.401977 185.750219 
L 133.143319 185.750219 
L 133.558827 185.750219 
L 134.124057 185.750219 
L 135.253715 185.750219 
L 135.944655 185.750219 
L 136.920887 185.750219 
L 137.232126 185.750219 
L 138.222547 185.750219 
L 139.142816 185.750219 
L 139.80838 185.750219 
L 140.113133 185.750219 
L 140.918511 185.750219 
L 142.121879 185.750219 
L 142.440487 185.750219 
L 143.551294 185.750219 
L 144.452298 185.750219 
L 145.109382 185.750219 
L 145.824381 185.750219 
L 146.192539 185.750219 
L 146.93824 185.750219 
L 148.003316 185.750219 
L 148.843394 185.750219 
L 149.890599 185.750219 
L 150.196753 185.750219 
L 151.232775 185.750219 
L 152.150029 185.750219 
L 152.25167 185.750219 
L 153.278589 185.750219 
L 154.4414 185.750219 
L 154.991482 185.750219 
L 155.369301 185.750219 
L 156.437925 185.750219 
L 157.075085 185.750219 
L 157.671475 185.750219 
L 158.441225 185.750219 
L 159.204459 185.750219 
L 160.053695 185.750219 
L 160.626223 185.750219 
L 161.523666 185.750219 
L 162.138192 185.750219 
L 162.989169 185.750219 
L 163.573087 185.750219 
L 164.490673 185.750219 
L 165.102993 185.750219 
L 166.262417 185.750219 
L 166.700087 185.750219 
L 167.777094 185.750219 
L 168.165336 185.750219 
L 168.922451 185.750219 
L 170.091558 185.750219 
L 170.605278 185.750219 
L 171.451132 185.750219 
L 172.147239 185.750219 
L 172.997973 185.750219 
L 173.736752 185.750219 
L 174.277693 185.750219 
L 175.318362 185.750219 
L 176.064103 185.750219 
L 176.733878 185.750219 
L 177.360362 185.750219 
L 178.298815 185.750219 
L 179.28201 185.750219 
L 179.295812 185.750219 
L 179.367607 185.750219 
L 179.403504 185.750219 
L 179.421453 185.750219 
" style="fill:none;stroke:#0000ff;stroke-linecap:square;stroke-width:1.5;"/>
   </g>
   <g id="line2d_8">
    <path clip-path="url(#p3ca19f7961)" d="M 179.582991 35.259906 
L 179.784311 35.259906 
L 180.50296 35.259906 
L 181.5531 35.259906 
L 182.261744 35.259906 
L 183.079939 35.259906 
L 183.447853 35.259906 
L 184.255307 35.259906 
L 185.186863 35.259906 
L 186.146216 35.259906 
L 186.55951 35.259906 
L 187.203985 35.259906 
L 188.307613 35.259906 
L 188.90443 35.259906 
L 189.9417 35.259906 
L 190.615288 35.259906 
L 191.422899 35.259906 
L 191.900082 35.259906 
L 192.625161 35.259906 
L 193.634568 35.259906 
L 193.933765 35.259906 
L 194.821484 35.259906 
L 195.506818 35.259906 
L 196.130351 35.259906 
L 197.41008 35.259906 
L 197.783873 35.259906 
L 198.990913 35.259906 
L 199.175699 35.259906 
L 200.333632 35.259906 
L 200.971629 35.259906 
L 201.993475 35.259906 
L 202.770166 35.259906 
L 202.986794 35.259906 
L 204.345633 35.259906 
L 204.98201 35.259906 
L 205.712383 35.259906 
L 206.427219 35.259906 
L 207.125783 35.259906 
L 207.862301 35.259906 
L 208.28991 35.259906 
L 209.681022 35.259906 
L 210.110964 35.259906 
L 211.192702 35.259906 
L 211.605763 35.259906 
L 212.007383 35.259906 
L 212.76565 35.259906 
L 214.089616 35.259906 
L 214.349406 35.259906 
L 215.197475 35.259906 
L 216.021807 35.259906 
L 216.654182 35.259906 
L 217.767027 35.259906 
L 218.6927 35.259906 
L 219.28046 35.259906 
L 219.794314 35.259906 
L 220.734349 35.259906 
L 221.453824 35.259906 
L 222.516157 35.259906 
L 222.64996 35.259906 
L 223.879903 35.259906 
L 224.105887 35.259906 
L 225.556863 35.259906 
L 226.009985 35.259906 
L 226.80277 35.259906 
L 227.209418 35.259906 
L 227.843866 35.259906 
L 229.188321 35.259906 
L 229.850702 35.259906 
L 230.711011 35.259906 
L 231.347766 35.259906 
L 232.012755 35.259906 
L 232.858172 35.259906 
L 233.218766 35.259906 
L 234.003381 35.259906 
L 235.032338 35.259906 
L 235.905738 35.259906 
L 236.398077 35.259906 
L 237.590084 35.259906 
L 237.715872 35.259906 
L 238.472114 35.259906 
L 239.806228 35.259906 
L 240.58331 35.259906 
L 241.378069 35.259906 
L 241.450866 35.259906 
L 242.678446 35.259906 
L 243.203802 35.259906 
L 244.213564 35.259906 
L 244.551799 35.259906 
L 245.404926 35.259906 
L 246.276108 35.259906 
L 247.36383 35.259906 
L 247.942537 35.259906 
L 248.341328 35.259906 
L 249.647016 35.259906 
L 250.082757 35.259906 
L 250.792893 35.259906 
L 251.411888 35.259906 
L 252.50485 35.259906 
L 253.088449 35.259906 
L 254.078305 35.259906 
L 254.677657 35.259906 
" style="fill:none;stroke:#0000ff;stroke-linecap:square;stroke-width:1.5;"/>
   </g>
   <g id="line2d_9"/>
   <g id="line2d_10">
    <path clip-path="url(#p3ca19f7961)" d="M 16.752472 35.259906 
L 259.342857 35.259906 
" style="fill:none;stroke:#000000;stroke-dasharray:0.5,0.825;stroke-dashoffset:0;stroke-width:0.5;"/>
   </g>
   <g id="line2d_11">
    <path clip-path="url(#p3ca19f7961)" d="M 16.752472 185.750219 
L 259.342857 185.750219 
" style="fill:none;stroke:#000000;stroke-dasharray:0.5,0.825;stroke-dashoffset:0;stroke-width:0.5;"/>
   </g>
   <g id="line2d_12">
    <path clip-path="url(#p3ca19f7961)" d="M 179.432501 190.325124 
L 179.432501 30.685 
" style="fill:none;stroke:#000000;stroke-dasharray:0.5,0.825;stroke-dashoffset:0;stroke-width:0.5;"/>
   </g>
   <g id="patch_5">
    <path d="M 28.942187 190.325124 
L 28.942187 30.685 
" style="fill:none;stroke:#000000;stroke-linecap:square;stroke-linejoin:miter;stroke-width:0.8;"/>
   </g>
   <g id="patch_6">
    <path d="M 16.752472 110.505062 
L 259.342857 110.505062 
" style="fill:none;stroke:#000000;stroke-linecap:square;stroke-linejoin:miter;stroke-width:0.8;"/>
   </g>
   <g id="text_8">
    <!-- $y=\dfrac{|x-2|}{x-2}$ -->
    <g style="fill:#0000ff;" transform="translate(77.187344 77.442484)scale(0.12 -0.12)">
     <defs>
      <path d="M 7.515625 13.28125 
Q 6.6875 13.28125 6.140625 13.90625 
Q 5.609375 14.546875 5.609375 15.28125 
Q 5.609375 16.109375 6.140625 16.6875 
Q 6.6875 17.28125 7.515625 17.28125 
L 70.3125 17.28125 
Q 71.046875 17.28125 71.578125 16.6875 
Q 72.125 16.109375 72.125 15.28125 
Q 72.125 14.546875 71.578125 13.90625 
Q 71.046875 13.28125 70.3125 13.28125 
z
M 7.515625 32.71875 
Q 6.6875 32.71875 6.140625 33.296875 
Q 5.609375 33.890625 5.609375 34.71875 
Q 5.609375 35.453125 6.140625 36.078125 
Q 6.6875 36.71875 7.515625 36.71875 
L 70.3125 36.71875 
Q 71.046875 36.71875 71.578125 36.078125 
Q 72.125 35.453125 72.125 34.71875 
Q 72.125 33.890625 71.578125 33.296875 
Q 71.046875 32.71875 70.3125 32.71875 
z
" id="Cmr10-61"/>
      <path d="M 11.921875 -23.1875 
L 11.921875 73.1875 
Q 11.921875 73.96875 12.5 74.484375 
Q 13.09375 75 13.921875 75 
Q 14.65625 75 15.28125 74.484375 
Q 15.921875 73.96875 15.921875 73.1875 
L 15.921875 -23.1875 
Q 15.921875 -23.96875 15.28125 -24.484375 
Q 14.65625 -25 13.921875 -25 
Q 13.09375 -25 12.5 -24.484375 
Q 11.921875 -23.96875 11.921875 -23.1875 
z
" id="Cmsy10-106"/>
      <path d="M 10.203125 23 
Q 9.375 23 8.828125 23.625 
Q 8.296875 24.265625 8.296875 25 
Q 8.296875 25.734375 8.828125 26.359375 
Q 9.375 27 10.203125 27 
L 67.578125 27 
Q 68.359375 27 68.875 26.359375 
Q 69.390625 25.734375 69.390625 25 
Q 69.390625 24.265625 68.875 23.625 
Q 68.359375 23 67.578125 23 
z
" id="Cmsy10-161"/>
      <path d="M 4.984375 0 
L 4.984375 2.6875 
Q 4.984375 2.9375 5.171875 3.21875 
L 20.703125 20.40625 
Q 24.21875 24.21875 26.40625 26.796875 
Q 28.609375 29.390625 30.75 32.765625 
Q 32.90625 36.140625 34.15625 39.625 
Q 35.40625 43.109375 35.40625 47.015625 
Q 35.40625 51.125 33.890625 54.859375 
Q 32.375 58.59375 29.375 60.84375 
Q 26.375 63.09375 22.125 63.09375 
Q 17.78125 63.09375 14.3125 60.46875 
Q 10.84375 57.859375 9.421875 53.71875 
Q 9.8125 53.8125 10.5 53.8125 
Q 12.75 53.8125 14.328125 52.296875 
Q 15.921875 50.78125 15.921875 48.390625 
Q 15.921875 46.09375 14.328125 44.5 
Q 12.75 42.921875 10.5 42.921875 
Q 8.15625 42.921875 6.5625 44.546875 
Q 4.984375 46.1875 4.984375 48.390625 
Q 4.984375 52.15625 6.390625 55.4375 
Q 7.8125 58.734375 10.46875 61.296875 
Q 13.140625 63.875 16.484375 65.234375 
Q 19.828125 66.609375 23.578125 66.609375 
Q 29.296875 66.609375 34.21875 64.1875 
Q 39.15625 61.765625 42.03125 57.34375 
Q 44.921875 52.9375 44.921875 47.015625 
Q 44.921875 42.671875 43.015625 38.765625 
Q 41.109375 34.859375 38.125 31.65625 
Q 35.15625 28.46875 30.515625 24.40625 
Q 25.875 20.359375 24.421875 19 
L 13.09375 8.109375 
L 22.703125 8.109375 
Q 29.78125 8.109375 34.546875 8.21875 
Q 39.3125 8.34375 39.59375 8.59375 
Q 40.765625 9.859375 42 17.828125 
L 44.921875 17.828125 
L 42.09375 0 
z
" id="Cmr10-50"/>
     </defs>
     <use transform="translate(0 0.5)" xlink:href="#Cmmi10-121"/>
     <use transform="translate(66.582031 0.5)" xlink:href="#Cmr10-61"/>
     <use transform="translate(161.826172 63)" xlink:href="#Cmsy10-106"/>
     <use transform="translate(189.511719 63)" xlink:href="#Cmmi10-120"/>
     <use transform="translate(264.150391 63)" xlink:href="#Cmsy10-161"/>
     <use transform="translate(359.394531 63)" xlink:href="#Cmr10-50"/>
     <use transform="translate(409.394531 63)" xlink:href="#Cmsy10-106"/>
     <use transform="translate(189.826172 -59.859375)" xlink:href="#Cmmi10-120"/>
     <use transform="translate(264.464844 -59.859375)" xlink:href="#Cmsy10-161"/>
     <use transform="translate(359.708984 -59.859375)" xlink:href="#Cmr10-50"/>
     <path d="M 161.826172 13 
L 161.826172 19.25 
L 437.080078 19.25 
L 437.080078 13 
L 161.826172 13 
z
"/>
    </g>
   </g>
   <g id="patch_7">
    <path clip-path="url(#p3ca19f7961)" d="M 179.432501 36.764809 
C 179.831606 36.764809 180.214418 36.606243 180.496628 36.324033 
C 180.778838 36.041823 180.937404 35.65901 180.937404 35.259906 
C 180.937404 34.860801 180.778838 34.477988 180.496628 34.195778 
C 180.214418 33.913568 179.831606 33.755002 179.432501 33.755002 
C 179.033396 33.755002 178.650583 33.913568 178.368373 34.195778 
C 178.086163 34.477988 177.927597 34.860801 177.927597 35.259906 
C 177.927597 35.65901 178.086163 36.041823 178.368373 36.324033 
C 178.650583 36.606243 179.033396 36.764809 179.432501 36.764809 
z
" style="fill:#ffffff;stroke:#0000ff;stroke-linejoin:miter;"/>
   </g>
   <g id="patch_8">
    <path clip-path="url(#p3ca19f7961)" d="M 179.432501 187.255122 
C 179.831606 187.255122 180.214418 187.096556 180.496628 186.814346 
C 180.778838 186.532136 180.937404 186.149324 180.937404 185.750219 
C 180.937404 185.351114 180.778838 184.968301 180.496628 184.686091 
C 180.214418 184.403882 179.831606 184.245315 179.432501 184.245315 
C 179.033396 184.245315 178.650583 184.403882 178.368373 184.686091 
C 178.086163 184.968301 177.927597 185.351114 177.927597 185.750219 
C 177.927597 186.149324 178.086163 186.532136 178.368373 186.814346 
C 178.650583 187.096556 179.033396 187.255122 179.432501 187.255122 
z
" style="fill:#ffffff;stroke:#0000ff;stroke-linejoin:miter;"/>
   </g>
  </g>
 </g>
 <defs>
  <clipPath id="p3ca19f7961">
   <rect height="159.640124" width="242.590385" x="16.752472" y="30.685"/>
  </clipPath>
 </defs>
</svg>
