<?xml version="1.0" encoding="utf-8" standalone="no"?>
<!DOCTYPE svg PUBLIC "-//W3C//DTD SVG 1.1//EN"
  "http://www.w3.org/Graphics/SVG/1.1/DTD/svg11.dtd">
<!-- Created with matplotlib (https://matplotlib.org/) -->
<svg height="198.829125pt" version="1.1" viewBox="0 0 283.822857 198.829125" width="283.822857pt" xmlns="http://www.w3.org/2000/svg" xmlns:xlink="http://www.w3.org/1999/xlink">
 <metadata>
  <rdf:RDF xmlns:cc="http://creativecommons.org/ns#" xmlns:dc="http://purl.org/dc/elements/1.1/" xmlns:rdf="http://www.w3.org/1999/02/22-rdf-syntax-ns#">
   <cc:Work>
    <dc:type rdf:resource="http://purl.org/dc/dcmitype/StillImage"/>
    <dc:date>2022-02-08T22:00:55.501456</dc:date>
    <dc:format>image/svg+xml</dc:format>
    <dc:creator>
     <cc:Agent>
      <dc:title>Matplotlib v3.3.3, https://matplotlib.org/</dc:title>
     </cc:Agent>
    </dc:creator>
   </cc:Work>
  </rdf:RDF>
 </metadata>
 <defs>
  <style type="text/css">*{stroke-linecap:butt;stroke-linejoin:round;}</style>
 </defs>
 <g id="figure_1">
  <g id="patch_1">
   <path d="M 0 198.829125 
L 283.822857 198.829125 
L 283.822857 0 
L 0 0 
z
" style="fill:#ffffff;"/>
  </g>
  <g id="axes_1">
   <g id="patch_2">
    <path d="M 16.752472 190.325124 
L 259.342857 190.325124 
L 259.342857 30.685 
L 16.752472 30.685 
z
" style="fill:#ffffff;"/>
   </g>
   <g id="matplotlib.axis_1">
    <g id="xtick_1">
     <g id="line2d_1">
      <defs>
       <path d="M 0 0 
L 0 3.5 
" id="m56bee36076" style="stroke:#000000;stroke-width:0.8;"/>
      </defs>
      <g>
       <use style="stroke:#000000;stroke-width:0.8;" x="28.942187" xlink:href="#m56bee36076" y="110.505062"/>
      </g>
     </g>
    </g>
    <g id="xtick_2">
     <g id="line2d_2">
      <g>
       <use style="stroke:#000000;stroke-width:0.8;" x="104.187344" xlink:href="#m56bee36076" y="110.505062"/>
      </g>
     </g>
     <g id="text_1">
      <!-- 1 -->
      <g transform="translate(101.006094 125.1035)scale(0.1 -0.1)">
       <defs>
        <path d="M 12.40625 8.296875 
L 28.515625 8.296875 
L 28.515625 63.921875 
L 10.984375 60.40625 
L 10.984375 69.390625 
L 28.421875 72.90625 
L 38.28125 72.90625 
L 38.28125 8.296875 
L 54.390625 8.296875 
L 54.390625 0 
L 12.40625 0 
z
" id="DejaVuSans-49"/>
       </defs>
       <use xlink:href="#DejaVuSans-49"/>
      </g>
     </g>
    </g>
    <g id="xtick_3">
     <g id="line2d_3">
      <g>
       <use style="stroke:#000000;stroke-width:0.8;" x="179.432501" xlink:href="#m56bee36076" y="110.505062"/>
      </g>
     </g>
     <g id="text_2">
      <!-- 2 -->
      <g transform="translate(176.251251 125.1035)scale(0.1 -0.1)">
       <defs>
        <path d="M 19.1875 8.296875 
L 53.609375 8.296875 
L 53.609375 0 
L 7.328125 0 
L 7.328125 8.296875 
Q 12.9375 14.109375 22.625 23.890625 
Q 32.328125 33.6875 34.8125 36.53125 
Q 39.546875 41.84375 41.421875 45.53125 
Q 43.3125 49.21875 43.3125 52.78125 
Q 43.3125 58.59375 39.234375 62.25 
Q 35.15625 65.921875 28.609375 65.921875 
Q 23.96875 65.921875 18.8125 64.3125 
Q 13.671875 62.703125 7.8125 59.421875 
L 7.8125 69.390625 
Q 13.765625 71.78125 18.9375 73 
Q 24.125 74.21875 28.421875 74.21875 
Q 39.75 74.21875 46.484375 68.546875 
Q 53.21875 62.890625 53.21875 53.421875 
Q 53.21875 48.921875 51.53125 44.890625 
Q 49.859375 40.875 45.40625 35.40625 
Q 44.1875 33.984375 37.640625 27.21875 
Q 31.109375 20.453125 19.1875 8.296875 
z
" id="DejaVuSans-50"/>
       </defs>
       <use xlink:href="#DejaVuSans-50"/>
      </g>
     </g>
    </g>
    <g id="xtick_4">
     <g id="line2d_4">
      <g>
       <use style="stroke:#000000;stroke-width:0.8;" x="254.677657" xlink:href="#m56bee36076" y="110.505062"/>
      </g>
     </g>
     <g id="text_3">
      <!-- 3 -->
      <g transform="translate(251.496407 125.1035)scale(0.1 -0.1)">
       <defs>
        <path d="M 40.578125 39.3125 
Q 47.65625 37.796875 51.625 33 
Q 55.609375 28.21875 55.609375 21.1875 
Q 55.609375 10.40625 48.1875 4.484375 
Q 40.765625 -1.421875 27.09375 -1.421875 
Q 22.515625 -1.421875 17.65625 -0.515625 
Q 12.796875 0.390625 7.625 2.203125 
L 7.625 11.71875 
Q 11.71875 9.328125 16.59375 8.109375 
Q 21.484375 6.890625 26.8125 6.890625 
Q 36.078125 6.890625 40.9375 10.546875 
Q 45.796875 14.203125 45.796875 21.1875 
Q 45.796875 27.640625 41.28125 31.265625 
Q 36.765625 34.90625 28.71875 34.90625 
L 20.21875 34.90625 
L 20.21875 43.015625 
L 29.109375 43.015625 
Q 36.375 43.015625 40.234375 45.921875 
Q 44.09375 48.828125 44.09375 54.296875 
Q 44.09375 59.90625 40.109375 62.90625 
Q 36.140625 65.921875 28.71875 65.921875 
Q 24.65625 65.921875 20.015625 65.03125 
Q 15.375 64.15625 9.8125 62.3125 
L 9.8125 71.09375 
Q 15.4375 72.65625 20.34375 73.4375 
Q 25.25 74.21875 29.59375 74.21875 
Q 40.828125 74.21875 47.359375 69.109375 
Q 53.90625 64.015625 53.90625 55.328125 
Q 53.90625 49.265625 50.4375 45.09375 
Q 46.96875 40.921875 40.578125 39.3125 
z
" id="DejaVuSans-51"/>
       </defs>
       <use xlink:href="#DejaVuSans-51"/>
      </g>
     </g>
    </g>
    <g id="text_4">
     <!-- $x$ -->
     <g transform="translate(267.342857 110.505062)scale(0.16 -0.16)">
      <defs>
       <path d="M 7.8125 2.875 
Q 9.578125 1.515625 12.796875 1.515625 
Q 15.921875 1.515625 18.3125 4.515625 
Q 20.703125 7.515625 21.578125 11.078125 
L 26.125 28.8125 
Q 27.203125 33.640625 27.203125 35.40625 
Q 27.203125 37.890625 25.8125 39.75 
Q 24.421875 41.609375 21.921875 41.609375 
Q 18.75 41.609375 15.96875 39.625 
Q 13.1875 37.640625 11.28125 34.59375 
Q 9.375 31.546875 8.59375 28.421875 
Q 8.40625 27.78125 7.8125 27.78125 
L 6.59375 27.78125 
Q 5.8125 27.78125 5.8125 28.71875 
L 5.8125 29 
Q 6.78125 32.71875 9.125 36.25 
Q 11.46875 39.796875 14.859375 41.984375 
Q 18.265625 44.1875 22.125 44.1875 
Q 25.78125 44.1875 28.734375 42.234375 
Q 31.6875 40.28125 32.90625 36.921875 
Q 34.625 39.984375 37.28125 42.078125 
Q 39.9375 44.1875 43.109375 44.1875 
Q 45.265625 44.1875 47.5 43.421875 
Q 49.75 42.671875 51.171875 41.109375 
Q 52.59375 39.546875 52.59375 37.203125 
Q 52.59375 34.671875 50.953125 32.828125 
Q 49.3125 31 46.78125 31 
Q 45.171875 31 44.09375 32.03125 
Q 43.015625 33.0625 43.015625 34.625 
Q 43.015625 36.71875 44.453125 38.296875 
Q 45.90625 39.890625 47.90625 40.1875 
Q 46.09375 41.609375 42.921875 41.609375 
Q 39.703125 41.609375 37.328125 38.625 
Q 34.96875 35.640625 33.984375 31.984375 
L 29.59375 14.3125 
Q 28.515625 10.296875 28.515625 7.71875 
Q 28.515625 5.171875 29.953125 3.34375 
Q 31.390625 1.515625 33.796875 1.515625 
Q 38.484375 1.515625 42.15625 5.640625 
Q 45.84375 9.765625 47.015625 14.703125 
Q 47.21875 15.28125 47.796875 15.28125 
L 49.03125 15.28125 
Q 49.421875 15.28125 49.65625 15.015625 
Q 49.90625 14.75 49.90625 14.40625 
Q 49.90625 14.3125 49.8125 14.109375 
Q 48.390625 8.15625 43.84375 3.515625 
Q 39.3125 -1.125 33.59375 -1.125 
Q 29.9375 -1.125 26.984375 0.84375 
Q 24.03125 2.828125 22.796875 6.203125 
Q 21.234375 3.265625 18.46875 1.0625 
Q 15.71875 -1.125 12.59375 -1.125 
Q 10.453125 -1.125 8.171875 -0.359375 
Q 5.90625 0.390625 4.484375 1.953125 
Q 3.078125 3.515625 3.078125 5.90625 
Q 3.078125 8.25 4.703125 10.171875 
Q 6.34375 12.109375 8.796875 12.109375 
Q 10.453125 12.109375 11.578125 11.109375 
Q 12.703125 10.109375 12.703125 8.5 
Q 12.703125 6.390625 11.296875 4.828125 
Q 9.90625 3.265625 7.8125 2.875 
z
" id="Cmmi10-120"/>
      </defs>
      <use transform="translate(0 0.8125)" xlink:href="#Cmmi10-120"/>
     </g>
    </g>
   </g>
   <g id="matplotlib.axis_2">
    <g id="ytick_1">
     <g id="line2d_5">
      <defs>
       <path d="M 0 0 
L -3.5 0 
" id="m060bbd46ff" style="stroke:#000000;stroke-width:0.8;"/>
      </defs>
      <g>
       <use style="stroke:#000000;stroke-width:0.8;" x="28.942187" xlink:href="#m060bbd46ff" y="185.750219"/>
      </g>
     </g>
     <g id="text_5">
      <!-- −1 -->
      <g transform="translate(7.2 189.549437)scale(0.1 -0.1)">
       <defs>
        <path d="M 10.59375 35.5 
L 73.1875 35.5 
L 73.1875 27.203125 
L 10.59375 27.203125 
z
" id="DejaVuSans-8722"/>
       </defs>
       <use xlink:href="#DejaVuSans-8722"/>
       <use x="83.789062" xlink:href="#DejaVuSans-49"/>
      </g>
     </g>
    </g>
    <g id="ytick_2">
     <g id="line2d_6">
      <g>
       <use style="stroke:#000000;stroke-width:0.8;" x="28.942187" xlink:href="#m060bbd46ff" y="35.259906"/>
      </g>
     </g>
     <g id="text_6">
      <!-- 1 -->
      <g transform="translate(15.579687 39.059124)scale(0.1 -0.1)">
       <use xlink:href="#DejaVuSans-49"/>
      </g>
     </g>
    </g>
    <g id="text_7">
     <!-- $y$ -->
     <g transform="translate(24.942187 19.325)scale(0.16 -0.16)">
      <defs>
       <path d="M 8.40625 -14.3125 
Q 10.5 -17.921875 15.71875 -17.921875 
Q 20.453125 -17.921875 23.921875 -14.59375 
Q 27.390625 -11.28125 29.515625 -6.5625 
Q 31.640625 -1.859375 32.8125 3.078125 
Q 28.375 -1.125 23.1875 -1.125 
Q 19.234375 -1.125 16.453125 0.234375 
Q 13.671875 1.609375 12.125 4.3125 
Q 10.59375 7.03125 10.59375 10.890625 
Q 10.59375 14.15625 11.46875 17.59375 
Q 12.359375 21.046875 13.9375 25.265625 
Q 15.53125 29.5 16.703125 32.625 
Q 18.015625 36.28125 18.015625 38.625 
Q 18.015625 41.609375 15.828125 41.609375 
Q 11.859375 41.609375 9.296875 37.53125 
Q 6.734375 33.453125 5.515625 28.421875 
Q 5.328125 27.78125 4.6875 27.78125 
L 3.515625 27.78125 
Q 2.6875 27.78125 2.6875 28.71875 
L 2.6875 29 
Q 4.296875 34.96875 7.609375 39.578125 
Q 10.9375 44.1875 16.015625 44.1875 
Q 19.578125 44.1875 22.046875 41.84375 
Q 24.515625 39.5 24.515625 35.890625 
Q 24.515625 34.03125 23.6875 31.984375 
Q 23.25 30.765625 21.6875 26.65625 
Q 20.125 22.5625 19.28125 19.875 
Q 18.453125 17.1875 17.921875 14.59375 
Q 17.390625 12.015625 17.390625 9.421875 
Q 17.390625 6.109375 18.796875 3.8125 
Q 20.21875 1.515625 23.296875 1.515625 
Q 29.5 1.515625 34.421875 9.078125 
L 42 39.890625 
Q 42.328125 41.21875 43.546875 42.15625 
Q 44.78125 43.109375 46.1875 43.109375 
Q 47.40625 43.109375 48.3125 42.328125 
Q 49.21875 41.546875 49.21875 40.28125 
Q 49.21875 39.703125 49.125 39.5 
L 39.203125 -0.296875 
Q 37.890625 -5.421875 34.375 -10.109375 
Q 30.859375 -14.796875 25.90625 -17.65625 
Q 20.953125 -20.515625 15.578125 -20.515625 
Q 12.984375 -20.515625 10.4375 -19.5 
Q 7.90625 -18.5 6.34375 -16.5 
Q 4.78125 -14.5 4.78125 -11.8125 
Q 4.78125 -9.078125 6.390625 -7.078125 
Q 8.015625 -5.078125 10.6875 -5.078125 
Q 12.3125 -5.078125 13.40625 -6.078125 
Q 14.5 -7.078125 14.5 -8.6875 
Q 14.5 -10.984375 12.78125 -12.6875 
Q 11.078125 -14.40625 8.796875 -14.40625 
Q 8.6875 -14.359375 8.59375 -14.328125 
Q 8.5 -14.3125 8.40625 -14.3125 
z
" id="Cmmi10-121"/>
      </defs>
      <use transform="translate(0 0.8125)" xlink:href="#Cmmi10-121"/>
     </g>
    </g>
   </g>
   <g id="patch_3">
    <path clip-path="url(#peb626f0629)" d="M 198.24379 106.742804 
Q 188.838145 106.742804 181.668569 106.742804 
" style="fill:none;stroke:#808080;stroke-linecap:round;stroke-width:2;"/>
    <path clip-path="url(#peb626f0629)" d="M 185.668569 108.742804 
L 181.668569 106.742804 
L 185.668569 104.742804 
L 185.668569 108.742804 
z
" style="fill:#808080;stroke:#808080;stroke-linecap:round;stroke-width:2;"/>
   </g>
   <g id="patch_4">
    <path clip-path="url(#peb626f0629)" d="M 160.621211 106.742804 
Q 170.026856 106.742804 177.196433 106.742804 
" style="fill:none;stroke:#808080;stroke-linecap:round;stroke-width:2;"/>
    <path clip-path="url(#peb626f0629)" d="M 173.196433 104.742804 
L 177.196433 106.742804 
L 173.196433 108.742804 
L 173.196433 104.742804 
z
" style="fill:#808080;stroke:#808080;stroke-linecap:round;stroke-width:2;"/>
   </g>
   <g id="line2d_7">
    <path clip-path="url(#peb626f0629)" d="M 104.187344 185.750219 
L 104.986982 185.750219 
L 105.660171 185.750219 
L 106.689385 185.750219 
L 107.204393 185.750219 
L 107.849737 185.750219 
L 108.986555 185.750219 
L 109.366349 185.750219 
L 110.580445 185.750219 
L 110.672429 185.750219 
L 111.92576 185.750219 
L 112.579534 185.750219 
L 113.454681 185.750219 
L 114.126734 185.750219 
L 114.974027 185.750219 
L 115.3178 185.750219 
L 116.294214 185.750219 
L 116.716144 185.750219 
L 117.99219 185.750219 
L 118.846637 185.750219 
L 119.212464 185.750219 
L 120.317696 185.750219 
L 120.648332 185.750219 
L 121.254725 185.750219 
L 122.105884 185.750219 
L 123.394124 185.750219 
L 123.805726 185.750219 
L 124.928866 185.750219 
L 125.054273 185.750219 
L 125.933817 185.750219 
L 127.237398 185.750219 
L 127.458708 185.750219 
L 128.282801 185.750219 
L 129.393391 185.750219 
L 129.766498 185.750219 
L 130.743727 185.750219 
L 131.36863 185.750219 
L 131.829715 185.750219 
L 132.674845 185.750219 
L 133.926288 185.750219 
L 134.608574 185.750219 
L 135.244533 185.750219 
L 135.67467 185.750219 
L 136.788784 185.750219 
L 137.390236 185.750219 
L 138.307992 185.750219 
L 139.078361 185.750219 
L 139.881095 185.750219 
L 140.542851 185.750219 
L 140.971748 185.750219 
L 141.959157 185.750219 
L 142.72033 185.750219 
L 143.601251 185.750219 
L 144.02972 185.750219 
L 144.94761 185.750219 
L 145.952114 185.750219 
L 146.478206 185.750219 
L 147.138525 185.750219 
L 148.033527 185.750219 
L 149.095769 185.750219 
L 149.408817 185.750219 
L 150.107592 185.750219 
L 151.278401 185.750219 
L 151.48381 185.750219 
L 152.953051 185.750219 
L 153.714751 185.750219 
L 154.106971 185.750219 
L 154.903842 185.750219 
L 155.418555 185.750219 
L 156.282914 185.750219 
L 157.413097 185.750219 
L 157.565712 185.750219 
L 158.943669 185.750219 
L 159.152712 185.750219 
L 159.796936 185.750219 
L 160.549829 185.750219 
L 162.022982 185.750219 
L 162.079787 185.750219 
L 163.403733 185.750219 
L 163.605617 185.750219 
L 164.348328 185.750219 
L 165.749488 185.750219 
L 165.860422 185.750219 
L 166.657576 185.750219 
L 167.869808 185.750219 
L 168.102632 185.750219 
L 169.198235 185.750219 
L 169.898941 185.750219 
L 170.934743 185.750219 
L 171.279194 185.750219 
L 172.390108 185.750219 
L 172.954675 185.750219 
L 173.467969 185.750219 
L 174.166734 185.750219 
L 175.072294 185.750219 
L 175.678773 185.750219 
L 176.94451 185.750219 
L 177.177949 185.750219 
L 178.576602 185.750219 
L 179.28201 185.750219 
L 179.345041 185.750219 
L 179.392957 185.750219 
L 179.416914 185.750219 
L 179.428893 185.750219 
" style="fill:none;stroke:#0000ff;stroke-linecap:square;stroke-width:1.5;"/>
   </g>
   <g id="line2d_8">
    <path clip-path="url(#peb626f0629)" d="M 179.440872 35.259906 
L 179.582991 35.259906 
L 180.772874 35.259906 
L 181.50664 35.259906 
L 181.787502 35.259906 
L 183.1042 35.259906 
L 183.884469 35.259906 
L 184.134307 35.259906 
L 185.340722 35.259906 
L 186.075113 35.259906 
L 186.950479 35.259906 
L 187.067997 35.259906 
L 188.464156 35.259906 
L 189.223312 35.259906 
L 189.775901 35.259906 
L 190.398311 35.259906 
L 191.069166 35.259906 
L 192.197437 35.259906 
L 192.753423 35.259906 
L 193.544318 35.259906 
L 194.424956 35.259906 
L 194.644604 35.259906 
L 195.796838 35.259906 
L 196.476724 35.259906 
L 197.299257 35.259906 
L 197.894151 35.259906 
L 198.65424 35.259906 
L 199.811061 35.259906 
L 200.34781 35.259906 
L 201.08723 35.259906 
L 201.499295 35.259906 
L 202.726023 35.259906 
L 202.920748 35.259906 
L 203.64615 35.259906 
L 205.032509 35.259906 
L 205.79287 35.259906 
L 206.591297 35.259906 
L 207.406741 35.259906 
L 207.756803 35.259906 
L 208.200635 35.259906 
L 209.591906 35.259906 
L 210.06009 35.259906 
L 211.135748 35.259906 
L 211.67602 35.259906 
L 212.124884 35.259906 
L 212.999312 35.259906 
L 213.868908 35.259906 
L 214.909683 35.259906 
L 214.987443 35.259906 
L 216.346907 35.259906 
L 217.024155 35.259906 
L 217.611566 35.259906 
L 218.341752 35.259906 
L 219.146364 35.259906 
L 220.211802 35.259906 
L 220.365694 35.259906 
L 221.356811 35.259906 
L 221.953746 35.259906 
L 222.694176 35.259906 
L 223.711063 35.259906 
L 224.630017 35.259906 
L 225.096972 35.259906 
L 225.869096 35.259906 
L 226.863291 35.259906 
L 227.804 35.259906 
L 228.203973 35.259906 
L 228.99152 35.259906 
L 229.662407 35.259906 
L 230.471798 35.259906 
L 231.375006 35.259906 
L 231.727263 35.259906 
L 233.024776 35.259906 
L 233.219329 35.259906 
L 234.285944 35.259906 
L 234.714518 35.259906 
L 235.396778 35.259906 
L 236.739592 35.259906 
L 237.007243 35.259906 
L 238.233376 35.259906 
L 238.94105 35.259906 
L 239.572802 35.259906 
L 240.106655 35.259906 
L 240.981398 35.259906 
L 241.784997 35.259906 
L 242.251796 35.259906 
L 243.490832 35.259906 
L 244.183069 35.259906 
L 244.823063 35.259906 
L 245.45116 35.259906 
L 246.544632 35.259906 
L 247.360661 35.259906 
L 247.619507 35.259906 
L 248.280259 35.259906 
L 249.449614 35.259906 
L 250.201926 35.259906 
L 251.150658 35.259906 
L 251.402533 35.259906 
L 252.459857 35.259906 
L 252.797238 35.259906 
L 253.721211 35.259906 
L 254.677657 35.259906 
" style="fill:none;stroke:#0000ff;stroke-linecap:square;stroke-width:1.5;"/>
   </g>
   <g id="line2d_9"/>
   <g id="line2d_10">
    <path clip-path="url(#peb626f0629)" d="M 16.752472 35.259906 
L 259.342857 35.259906 
" style="fill:none;stroke:#000000;stroke-dasharray:0.5,0.825;stroke-dashoffset:0;stroke-width:0.5;"/>
   </g>
   <g id="line2d_11">
    <path clip-path="url(#peb626f0629)" d="M 16.752472 185.750219 
L 259.342857 185.750219 
" style="fill:none;stroke:#000000;stroke-dasharray:0.5,0.825;stroke-dashoffset:0;stroke-width:0.5;"/>
   </g>
   <g id="line2d_12">
    <path clip-path="url(#peb626f0629)" d="M 179.432501 190.325124 
L 179.432501 30.685 
" style="fill:none;stroke:#000000;stroke-dasharray:0.5,0.825;stroke-dashoffset:0;stroke-width:0.5;"/>
   </g>
   <g id="patch_5">
    <path d="M 28.942187 190.325124 
L 28.942187 30.685 
" style="fill:none;stroke:#000000;stroke-linecap:square;stroke-linejoin:miter;stroke-width:0.8;"/>
   </g>
   <g id="patch_6">
    <path d="M 16.752472 110.505062 
L 259.342857 110.505062 
" style="fill:none;stroke:#000000;stroke-linecap:square;stroke-linejoin:miter;stroke-width:0.8;"/>
   </g>
   <g id="text_8">
    <!-- $y=\dfrac{|x-2|}{x-2}$ -->
    <g style="fill:#0000ff;" transform="translate(77.187344 77.442484)scale(0.12 -0.12)">
     <defs>
      <path d="M 7.515625 13.28125 
Q 6.6875 13.28125 6.140625 13.90625 
Q 5.609375 14.546875 5.609375 15.28125 
Q 5.609375 16.109375 6.140625 16.6875 
Q 6.6875 17.28125 7.515625 17.28125 
L 70.3125 17.28125 
Q 71.046875 17.28125 71.578125 16.6875 
Q 72.125 16.109375 72.125 15.28125 
Q 72.125 14.546875 71.578125 13.90625 
Q 71.046875 13.28125 70.3125 13.28125 
z
M 7.515625 32.71875 
Q 6.6875 32.71875 6.140625 33.296875 
Q 5.609375 33.890625 5.609375 34.71875 
Q 5.609375 35.453125 6.140625 36.078125 
Q 6.6875 36.71875 7.515625 36.71875 
L 70.3125 36.71875 
Q 71.046875 36.71875 71.578125 36.078125 
Q 72.125 35.453125 72.125 34.71875 
Q 72.125 33.890625 71.578125 33.296875 
Q 71.046875 32.71875 70.3125 32.71875 
z
" id="Cmr10-61"/>
      <path d="M 11.921875 -23.1875 
L 11.921875 73.1875 
Q 11.921875 73.96875 12.5 74.484375 
Q 13.09375 75 13.921875 75 
Q 14.65625 75 15.28125 74.484375 
Q 15.921875 73.96875 15.921875 73.1875 
L 15.921875 -23.1875 
Q 15.921875 -23.96875 15.28125 -24.484375 
Q 14.65625 -25 13.921875 -25 
Q 13.09375 -25 12.5 -24.484375 
Q 11.921875 -23.96875 11.921875 -23.1875 
z
" id="Cmsy10-106"/>
      <path d="M 10.203125 23 
Q 9.375 23 8.828125 23.625 
Q 8.296875 24.265625 8.296875 25 
Q 8.296875 25.734375 8.828125 26.359375 
Q 9.375 27 10.203125 27 
L 67.578125 27 
Q 68.359375 27 68.875 26.359375 
Q 69.390625 25.734375 69.390625 25 
Q 69.390625 24.265625 68.875 23.625 
Q 68.359375 23 67.578125 23 
z
" id="Cmsy10-161"/>
      <path d="M 4.984375 0 
L 4.984375 2.6875 
Q 4.984375 2.9375 5.171875 3.21875 
L 20.703125 20.40625 
Q 24.21875 24.21875 26.40625 26.796875 
Q 28.609375 29.390625 30.75 32.765625 
Q 32.90625 36.140625 34.15625 39.625 
Q 35.40625 43.109375 35.40625 47.015625 
Q 35.40625 51.125 33.890625 54.859375 
Q 32.375 58.59375 29.375 60.84375 
Q 26.375 63.09375 22.125 63.09375 
Q 17.78125 63.09375 14.3125 60.46875 
Q 10.84375 57.859375 9.421875 53.71875 
Q 9.8125 53.8125 10.5 53.8125 
Q 12.75 53.8125 14.328125 52.296875 
Q 15.921875 50.78125 15.921875 48.390625 
Q 15.921875 46.09375 14.328125 44.5 
Q 12.75 42.921875 10.5 42.921875 
Q 8.15625 42.921875 6.5625 44.546875 
Q 4.984375 46.1875 4.984375 48.390625 
Q 4.984375 52.15625 6.390625 55.4375 
Q 7.8125 58.734375 10.46875 61.296875 
Q 13.140625 63.875 16.484375 65.234375 
Q 19.828125 66.609375 23.578125 66.609375 
Q 29.296875 66.609375 34.21875 64.1875 
Q 39.15625 61.765625 42.03125 57.34375 
Q 44.921875 52.9375 44.921875 47.015625 
Q 44.921875 42.671875 43.015625 38.765625 
Q 41.109375 34.859375 38.125 31.65625 
Q 35.15625 28.46875 30.515625 24.40625 
Q 25.875 20.359375 24.421875 19 
L 13.09375 8.109375 
L 22.703125 8.109375 
Q 29.78125 8.109375 34.546875 8.21875 
Q 39.3125 8.34375 39.59375 8.59375 
Q 40.765625 9.859375 42 17.828125 
L 44.921875 17.828125 
L 42.09375 0 
z
" id="Cmr10-50"/>
     </defs>
     <use transform="translate(0 0.5)" xlink:href="#Cmmi10-121"/>
     <use transform="translate(66.582031 0.5)" xlink:href="#Cmr10-61"/>
     <use transform="translate(161.826172 63)" xlink:href="#Cmsy10-106"/>
     <use transform="translate(189.511719 63)" xlink:href="#Cmmi10-120"/>
     <use transform="translate(264.150391 63)" xlink:href="#Cmsy10-161"/>
     <use transform="translate(359.394531 63)" xlink:href="#Cmr10-50"/>
     <use transform="translate(409.394531 63)" xlink:href="#Cmsy10-106"/>
     <use transform="translate(189.826172 -59.859375)" xlink:href="#Cmmi10-120"/>
     <use transform="translate(264.464844 -59.859375)" xlink:href="#Cmsy10-161"/>
     <use transform="translate(359.708984 -59.859375)" xlink:href="#Cmr10-50"/>
     <path d="M 161.826172 13 
L 161.826172 19.25 
L 437.080078 19.25 
L 437.080078 13 
L 161.826172 13 
z
"/>
    </g>
   </g>
   <g id="patch_7">
    <path clip-path="url(#peb626f0629)" d="M 179.432501 36.764809 
C 179.831606 36.764809 180.214418 36.606243 180.496628 36.324033 
C 180.778838 36.041823 180.937404 35.65901 180.937404 35.259906 
C 180.937404 34.860801 180.778838 34.477988 180.496628 34.195778 
C 180.214418 33.913568 179.831606 33.755002 179.432501 33.755002 
C 179.033396 33.755002 178.650583 33.913568 178.368373 34.195778 
C 178.086163 34.477988 177.927597 34.860801 177.927597 35.259906 
C 177.927597 35.65901 178.086163 36.041823 178.368373 36.324033 
C 178.650583 36.606243 179.033396 36.764809 179.432501 36.764809 
z
" style="fill:#ffffff;stroke:#0000ff;stroke-linejoin:miter;"/>
   </g>
   <g id="patch_8">
    <path clip-path="url(#peb626f0629)" d="M 179.432501 187.255122 
C 179.831606 187.255122 180.214418 187.096556 180.496628 186.814346 
C 180.778838 186.532136 180.937404 186.149324 180.937404 185.750219 
C 180.937404 185.351114 180.778838 184.968301 180.496628 184.686091 
C 180.214418 184.403882 179.831606 184.245315 179.432501 184.245315 
C 179.033396 184.245315 178.650583 184.403882 178.368373 184.686091 
C 178.086163 184.968301 177.927597 185.351114 177.927597 185.750219 
C 177.927597 186.149324 178.086163 186.532136 178.368373 186.814346 
C 178.650583 187.096556 179.033396 187.255122 179.432501 187.255122 
z
" style="fill:#ffffff;stroke:#0000ff;stroke-linejoin:miter;"/>
   </g>
  </g>
 </g>
 <defs>
  <clipPath id="peb626f0629">
   <rect height="159.640124" width="242.590385" x="16.752472" y="30.685"/>
  </clipPath>
 </defs>
</svg>
