<?xml version="1.0" encoding="utf-8" standalone="no"?>
<!DOCTYPE svg PUBLIC "-//W3C//DTD SVG 1.1//EN"
  "http://www.w3.org/Graphics/SVG/1.1/DTD/svg11.dtd">
<!-- Created with matplotlib (https://matplotlib.org/) -->
<svg height="287.645pt" version="1.1" viewBox="0 0 274.165437 287.645" width="274.165437pt" xmlns="http://www.w3.org/2000/svg" xmlns:xlink="http://www.w3.org/1999/xlink">
 <metadata>
  <rdf:RDF xmlns:cc="http://creativecommons.org/ns#" xmlns:dc="http://purl.org/dc/elements/1.1/" xmlns:rdf="http://www.w3.org/1999/02/22-rdf-syntax-ns#">
   <cc:Work>
    <dc:type rdf:resource="http://purl.org/dc/dcmitype/StillImage"/>
    <dc:date>2022-02-21T21:25:59.539985</dc:date>
    <dc:format>image/svg+xml</dc:format>
    <dc:creator>
     <cc:Agent>
      <dc:title>Matplotlib v3.3.3, https://matplotlib.org/</dc:title>
     </cc:Agent>
    </dc:creator>
   </cc:Work>
  </rdf:RDF>
 </metadata>
 <defs>
  <style type="text/css">*{stroke-linecap:butt;stroke-linejoin:round;}</style>
 </defs>
 <g id="figure_1">
  <g id="patch_1">
   <path d="M 0 287.645 
L 274.165437 287.645 
L 274.165437 0 
L 0 0 
z
" style="fill:#ffffff;"/>
  </g>
  <g id="axes_1">
   <g id="patch_2">
    <path d="M 7.2 280.445 
L 249.685437 280.445 
L 249.685437 30.685 
L 7.2 30.685 
z
" style="fill:#ffffff;"/>
   </g>
   <g id="matplotlib.axis_1">
    <g id="text_1">
     <!-- $x$ -->
     <g transform="translate(257.685437 155.565)scale(0.16 -0.16)">
      <defs>
       <path d="M 7.8125 2.875 
Q 9.578125 1.515625 12.796875 1.515625 
Q 15.921875 1.515625 18.3125 4.515625 
Q 20.703125 7.515625 21.578125 11.078125 
L 26.125 28.8125 
Q 27.203125 33.640625 27.203125 35.40625 
Q 27.203125 37.890625 25.8125 39.75 
Q 24.421875 41.609375 21.921875 41.609375 
Q 18.75 41.609375 15.96875 39.625 
Q 13.1875 37.640625 11.28125 34.59375 
Q 9.375 31.546875 8.59375 28.421875 
Q 8.40625 27.78125 7.8125 27.78125 
L 6.59375 27.78125 
Q 5.8125 27.78125 5.8125 28.71875 
L 5.8125 29 
Q 6.78125 32.71875 9.125 36.25 
Q 11.46875 39.796875 14.859375 41.984375 
Q 18.265625 44.1875 22.125 44.1875 
Q 25.78125 44.1875 28.734375 42.234375 
Q 31.6875 40.28125 32.90625 36.921875 
Q 34.625 39.984375 37.28125 42.078125 
Q 39.9375 44.1875 43.109375 44.1875 
Q 45.265625 44.1875 47.5 43.421875 
Q 49.75 42.671875 51.171875 41.109375 
Q 52.59375 39.546875 52.59375 37.203125 
Q 52.59375 34.671875 50.953125 32.828125 
Q 49.3125 31 46.78125 31 
Q 45.171875 31 44.09375 32.03125 
Q 43.015625 33.0625 43.015625 34.625 
Q 43.015625 36.71875 44.453125 38.296875 
Q 45.90625 39.890625 47.90625 40.1875 
Q 46.09375 41.609375 42.921875 41.609375 
Q 39.703125 41.609375 37.328125 38.625 
Q 34.96875 35.640625 33.984375 31.984375 
L 29.59375 14.3125 
Q 28.515625 10.296875 28.515625 7.71875 
Q 28.515625 5.171875 29.953125 3.34375 
Q 31.390625 1.515625 33.796875 1.515625 
Q 38.484375 1.515625 42.15625 5.640625 
Q 45.84375 9.765625 47.015625 14.703125 
Q 47.21875 15.28125 47.796875 15.28125 
L 49.03125 15.28125 
Q 49.421875 15.28125 49.65625 15.015625 
Q 49.90625 14.75 49.90625 14.40625 
Q 49.90625 14.3125 49.8125 14.109375 
Q 48.390625 8.15625 43.84375 3.515625 
Q 39.3125 -1.125 33.59375 -1.125 
Q 29.9375 -1.125 26.984375 0.84375 
Q 24.03125 2.828125 22.796875 6.203125 
Q 21.234375 3.265625 18.46875 1.0625 
Q 15.71875 -1.125 12.59375 -1.125 
Q 10.453125 -1.125 8.171875 -0.359375 
Q 5.90625 0.390625 4.484375 1.953125 
Q 3.078125 3.515625 3.078125 5.90625 
Q 3.078125 8.25 4.703125 10.171875 
Q 6.34375 12.109375 8.796875 12.109375 
Q 10.453125 12.109375 11.578125 11.109375 
Q 12.703125 10.109375 12.703125 8.5 
Q 12.703125 6.390625 11.296875 4.828125 
Q 9.90625 3.265625 7.8125 2.875 
z
" id="Cmmi10-120"/>
      </defs>
      <use transform="translate(0 0.8125)" xlink:href="#Cmmi10-120"/>
     </g>
    </g>
   </g>
   <g id="matplotlib.axis_2">
    <g id="ytick_1">
     <g id="line2d_1">
      <defs>
       <path d="M 0 0 
L -3.5 0 
" id="m7b18edd6a2" style="stroke:#000000;stroke-width:0.8;"/>
      </defs>
      <g>
       <use style="stroke:#000000;stroke-width:0.8;" x="128.442718" xlink:href="#m7b18edd6a2" y="272.144537"/>
      </g>
     </g>
     <g id="text_2">
      <!-- −1 -->
      <g transform="translate(106.700531 275.943756)scale(0.1 -0.1)">
       <defs>
        <path d="M 10.59375 35.5 
L 73.1875 35.5 
L 73.1875 27.203125 
L 10.59375 27.203125 
z
" id="DejaVuSans-8722"/>
        <path d="M 12.40625 8.296875 
L 28.515625 8.296875 
L 28.515625 63.921875 
L 10.984375 60.40625 
L 10.984375 69.390625 
L 28.421875 72.90625 
L 38.28125 72.90625 
L 38.28125 8.296875 
L 54.390625 8.296875 
L 54.390625 0 
L 12.40625 0 
z
" id="DejaVuSans-49"/>
       </defs>
       <use xlink:href="#DejaVuSans-8722"/>
       <use x="83.789062" xlink:href="#DejaVuSans-49"/>
      </g>
     </g>
    </g>
    <g id="ytick_2">
     <g id="line2d_2">
      <g>
       <use style="stroke:#000000;stroke-width:0.8;" x="128.442718" xlink:href="#m7b18edd6a2" y="38.985463"/>
      </g>
     </g>
     <g id="text_3">
      <!-- 1 -->
      <g transform="translate(115.080218 42.784682)scale(0.1 -0.1)">
       <use xlink:href="#DejaVuSans-49"/>
      </g>
     </g>
    </g>
    <g id="text_4">
     <!-- $y$ -->
     <g transform="translate(124.442718 19.325)scale(0.16 -0.16)">
      <defs>
       <path d="M 8.40625 -14.3125 
Q 10.5 -17.921875 15.71875 -17.921875 
Q 20.453125 -17.921875 23.921875 -14.59375 
Q 27.390625 -11.28125 29.515625 -6.5625 
Q 31.640625 -1.859375 32.8125 3.078125 
Q 28.375 -1.125 23.1875 -1.125 
Q 19.234375 -1.125 16.453125 0.234375 
Q 13.671875 1.609375 12.125 4.3125 
Q 10.59375 7.03125 10.59375 10.890625 
Q 10.59375 14.15625 11.46875 17.59375 
Q 12.359375 21.046875 13.9375 25.265625 
Q 15.53125 29.5 16.703125 32.625 
Q 18.015625 36.28125 18.015625 38.625 
Q 18.015625 41.609375 15.828125 41.609375 
Q 11.859375 41.609375 9.296875 37.53125 
Q 6.734375 33.453125 5.515625 28.421875 
Q 5.328125 27.78125 4.6875 27.78125 
L 3.515625 27.78125 
Q 2.6875 27.78125 2.6875 28.71875 
L 2.6875 29 
Q 4.296875 34.96875 7.609375 39.578125 
Q 10.9375 44.1875 16.015625 44.1875 
Q 19.578125 44.1875 22.046875 41.84375 
Q 24.515625 39.5 24.515625 35.890625 
Q 24.515625 34.03125 23.6875 31.984375 
Q 23.25 30.765625 21.6875 26.65625 
Q 20.125 22.5625 19.28125 19.875 
Q 18.453125 17.1875 17.921875 14.59375 
Q 17.390625 12.015625 17.390625 9.421875 
Q 17.390625 6.109375 18.796875 3.8125 
Q 20.21875 1.515625 23.296875 1.515625 
Q 29.5 1.515625 34.421875 9.078125 
L 42 39.890625 
Q 42.328125 41.21875 43.546875 42.15625 
Q 44.78125 43.109375 46.1875 43.109375 
Q 47.40625 43.109375 48.3125 42.328125 
Q 49.21875 41.546875 49.21875 40.28125 
Q 49.21875 39.703125 49.125 39.5 
L 39.203125 -0.296875 
Q 37.890625 -5.421875 34.375 -10.109375 
Q 30.859375 -14.796875 25.90625 -17.65625 
Q 20.953125 -20.515625 15.578125 -20.515625 
Q 12.984375 -20.515625 10.4375 -19.5 
Q 7.90625 -18.5 6.34375 -16.5 
Q 4.78125 -14.5 4.78125 -11.8125 
Q 4.78125 -9.078125 6.390625 -7.078125 
Q 8.015625 -5.078125 10.6875 -5.078125 
Q 12.3125 -5.078125 13.40625 -6.078125 
Q 14.5 -7.078125 14.5 -8.6875 
Q 14.5 -10.984375 12.78125 -12.6875 
Q 11.078125 -14.40625 8.796875 -14.40625 
Q 8.6875 -14.359375 8.59375 -14.328125 
Q 8.5 -14.3125 8.40625 -14.3125 
z
" id="Cmmi10-121"/>
      </defs>
      <use transform="translate(0 0.8125)" xlink:href="#Cmmi10-121"/>
     </g>
    </g>
   </g>
   <g id="patch_3">
    <path clip-path="url(#pfb7c8f54c1)" d="M 157.587603 151.679015 
Q 143.598058 151.679015 131.844582 151.679015 
" style="fill:none;stroke:#808080;stroke-linecap:round;stroke-width:2;"/>
    <path clip-path="url(#pfb7c8f54c1)" d="M 135.844582 153.679015 
L 131.844582 151.679015 
L 135.844582 149.679015 
L 135.844582 153.679015 
z
" style="fill:#808080;stroke:#808080;stroke-linecap:round;stroke-width:2;"/>
   </g>
   <g id="patch_4">
    <path clip-path="url(#pfb7c8f54c1)" d="M 99.297834 151.679015 
Q 113.287379 151.679015 125.040855 151.679015 
" style="fill:none;stroke:#808080;stroke-linecap:round;stroke-width:2;"/>
    <path clip-path="url(#pfb7c8f54c1)" d="M 121.040855 149.679015 
L 125.040855 151.679015 
L 121.040855 153.679015 
L 121.040855 149.679015 
z
" style="fill:#808080;stroke:#808080;stroke-linecap:round;stroke-width:2;"/>
   </g>
   <g id="line2d_3">
    <path clip-path="url(#pfb7c8f54c1)" d="M 11.863181 272.144537 
L 12.774544 272.144537 
L 14.188529 272.144537 
L 15.476854 272.144537 
L 16.047632 272.144537 
L 17.303011 272.144537 
L 18.466932 272.144537 
L 19.786418 272.144537 
L 20.9979 272.144537 
L 22.602332 272.144537 
L 23.801725 272.144537 
L 24.218884 272.144537 
L 25.46177 272.144537 
L 27.223126 272.144537 
L 27.961459 272.144537 
L 29.565281 272.144537 
L 30.105306 272.144537 
L 32.352158 272.144537 
L 33.187335 272.144537 
L 33.718514 272.144537 
L 35.366974 272.144537 
L 37.017505 272.144537 
L 38.208218 272.144537 
L 39.309199 272.144537 
L 39.751585 272.144537 
L 40.583554 272.144537 
L 41.997922 272.144537 
L 43.969184 272.144537 
L 45.070632 272.144537 
L 46.219008 272.144537 
L 47.208489 272.144537 
L 48.684607 272.144537 
L 49.470671 272.144537 
L 50.545257 272.144537 
L 51.8113 272.144537 
L 52.829293 272.144537 
L 53.572686 272.144537 
L 55.111058 272.144537 
L 55.919163 272.144537 
L 58.054793 272.144537 
L 59.192556 272.144537 
L 59.676345 272.144537 
L 60.844777 272.144537 
L 61.863155 272.144537 
L 63.202995 272.144537 
L 64.56238 272.144537 
L 65.913158 272.144537 
L 67.129929 272.144537 
L 67.673438 272.144537 
L 68.848256 272.144537 
L 70.048824 272.144537 
L 71.262753 272.144537 
L 73.037274 272.144537 
L 74.502679 272.144537 
L 75.58456 272.144537 
L 75.942803 272.144537 
L 77.0611 272.144537 
L 78.173762 272.144537 
L 80.250851 272.144537 
L 81.150209 272.144537 
L 82.667799 272.144537 
L 82.876583 272.144537 
L 84.027418 272.144537 
L 86.119894 272.144537 
L 86.780628 272.144537 
L 88.299484 272.144537 
L 89.25665 272.144537 
L 90.08316 272.144537 
L 91.524855 272.144537 
L 92.17882 272.144537 
L 94.381255 272.144537 
L 95.200093 272.144537 
L 96.189002 272.144537 
L 97.96153 272.144537 
L 97.991717 272.144537 
L 100.148243 272.144537 
L 101.175161 272.144537 
L 102.385827 272.144537 
L 103.325746 272.144537 
L 104.67419 272.144537 
L 105.113633 272.144537 
L 106.198356 272.144537 
L 108.02249 272.144537 
L 108.762442 272.144537 
L 110.605323 272.144537 
L 110.947775 272.144537 
L 112.440463 272.144537 
L 113.490215 272.144537 
L 114.685585 272.144537 
L 116.159289 272.144537 
L 117.726397 272.144537 
L 118.855082 272.144537 
L 119.207646 272.144537 
L 120.715222 272.144537 
L 121.710845 272.144537 
L 123.692028 272.144537 
L 124.479665 272.144537 
L 125.884031 272.144537 
L 127.019672 272.144537 
L 127.305706 272.144537 
L 128.209559 272.144537 
" style="fill:none;stroke:#0000ff;stroke-linecap:square;stroke-width:1.5;"/>
   </g>
   <g id="line2d_4">
    <path clip-path="url(#pfb7c8f54c1)" d="M 128.470733 38.985463 
L 128.499752 38.985463 
L 128.55779 38.985463 
L 128.673867 38.985463 
L 128.675878 38.985463 
L 129.886637 38.985463 
L 131.602208 38.985463 
L 131.973981 38.985463 
L 133.451797 38.985463 
L 135.237565 38.985463 
L 135.845132 38.985463 
L 137.685647 38.985463 
L 138.55005 38.985463 
L 139.21321 38.985463 
L 140.198219 38.985463 
L 141.600129 38.985463 
L 142.52175 38.985463 
L 143.822067 38.985463 
L 144.913155 38.985463 
L 146.97109 38.985463 
L 147.31315 38.985463 
L 149.365906 38.985463 
L 150.382012 38.985463 
L 151.538585 38.985463 
L 152.02808 38.985463 
L 154.092619 38.985463 
L 154.610189 38.985463 
L 156.316026 38.985463 
L 156.891012 38.985463 
L 158.046157 38.985463 
L 159.166596 38.985463 
L 161.004161 38.985463 
L 162.042832 38.985463 
L 162.681861 38.985463 
L 164.404642 38.985463 
L 165.639613 38.985463 
L 167.021565 38.985463 
L 168.210654 38.985463 
L 168.447255 38.985463 
L 169.659574 38.985463 
L 171.196779 38.985463 
L 171.970463 38.985463 
L 173.687907 38.985463 
L 175.176628 38.985463 
L 175.80518 38.985463 
L 177.599575 38.985463 
L 178.246612 38.985463 
L 178.894867 38.985463 
L 180.9395 38.985463 
L 181.824249 38.985463 
L 182.924175 38.985463 
L 184.162402 38.985463 
L 184.98348 38.985463 
L 186.668129 38.985463 
L 188.107253 38.985463 
L 188.774384 38.985463 
L 190.414104 38.985463 
L 191.665453 38.985463 
L 192.366347 38.985463 
L 193.288407 38.985463 
L 194.958611 38.985463 
L 196.168905 38.985463 
L 197.090981 38.985463 
L 197.889557 38.985463 
L 198.829122 38.985463 
L 200.112689 38.985463 
L 202.026639 38.985463 
L 202.564845 38.985463 
L 203.848159 38.985463 
L 205.241709 38.985463 
L 206.436476 38.985463 
L 207.332179 38.985463 
L 208.19062 38.985463 
L 209.949069 38.985463 
L 211.587205 38.985463 
L 212.34839 38.985463 
L 212.842055 38.985463 
L 214.794497 38.985463 
L 216.288926 38.985463 
L 216.913442 38.985463 
L 218.430403 38.985463 
L 218.956988 38.985463 
L 220.540244 38.985463 
L 221.502484 38.985463 
L 222.301892 38.985463 
L 223.814214 38.985463 
L 225.269098 38.985463 
L 226.606711 38.985463 
L 227.089758 38.985463 
L 228.696572 38.985463 
L 229.535744 38.985463 
L 230.96379 38.985463 
L 232.212477 38.985463 
L 233.204873 38.985463 
L 234.5661 38.985463 
L 235.513215 38.985463 
L 236.996613 38.985463 
L 237.841871 38.985463 
L 238.803893 38.985463 
L 239.987673 38.985463 
L 241.916687 38.985463 
L 243.059084 38.985463 
L 244.199944 38.985463 
L 245.022255 38.985463 
" style="fill:none;stroke:#0000ff;stroke-linecap:square;stroke-width:1.5;"/>
   </g>
   <g id="line2d_5"/>
   <g id="patch_5">
    <path d="M 128.442718 280.445 
L 128.442718 30.685 
" style="fill:none;stroke:#000000;stroke-linecap:square;stroke-linejoin:miter;stroke-width:0.8;"/>
   </g>
   <g id="patch_6">
    <path d="M 7.2 155.565 
L 249.685437 155.565 
" style="fill:none;stroke:#000000;stroke-linecap:square;stroke-linejoin:miter;stroke-width:0.8;"/>
   </g>
   <g id="text_5">
    <!-- $y=\dfrac{|x|}{x}$ -->
    <g style="fill:#0000ff;" transform="translate(227.802255 103.155232)scale(0.12 -0.12)">
     <defs>
      <path d="M 7.515625 13.28125 
Q 6.6875 13.28125 6.140625 13.90625 
Q 5.609375 14.546875 5.609375 15.28125 
Q 5.609375 16.109375 6.140625 16.6875 
Q 6.6875 17.28125 7.515625 17.28125 
L 70.3125 17.28125 
Q 71.046875 17.28125 71.578125 16.6875 
Q 72.125 16.109375 72.125 15.28125 
Q 72.125 14.546875 71.578125 13.90625 
Q 71.046875 13.28125 70.3125 13.28125 
z
M 7.515625 32.71875 
Q 6.6875 32.71875 6.140625 33.296875 
Q 5.609375 33.890625 5.609375 34.71875 
Q 5.609375 35.453125 6.140625 36.078125 
Q 6.6875 36.71875 7.515625 36.71875 
L 70.3125 36.71875 
Q 71.046875 36.71875 71.578125 36.078125 
Q 72.125 35.453125 72.125 34.71875 
Q 72.125 33.890625 71.578125 33.296875 
Q 71.046875 32.71875 70.3125 32.71875 
z
" id="Cmr10-61"/>
      <path d="M 11.921875 -23.1875 
L 11.921875 73.1875 
Q 11.921875 73.96875 12.5 74.484375 
Q 13.09375 75 13.921875 75 
Q 14.65625 75 15.28125 74.484375 
Q 15.921875 73.96875 15.921875 73.1875 
L 15.921875 -23.1875 
Q 15.921875 -23.96875 15.28125 -24.484375 
Q 14.65625 -25 13.921875 -25 
Q 13.09375 -25 12.5 -24.484375 
Q 11.921875 -23.96875 11.921875 -23.1875 
z
" id="Cmsy10-106"/>
     </defs>
     <use transform="translate(0 0.5)" xlink:href="#Cmmi10-121"/>
     <use transform="translate(66.582031 0.5)" xlink:href="#Cmr10-61"/>
     <use transform="translate(161.826172 63)" xlink:href="#Cmsy10-106"/>
     <use transform="translate(189.511719 63)" xlink:href="#Cmmi10-120"/>
     <use transform="translate(246.591797 63)" xlink:href="#Cmsy10-106"/>
     <use transform="translate(189.826172 -37.4375)" xlink:href="#Cmmi10-120"/>
     <path d="M 161.826172 13 
L 161.826172 19.25 
L 274.277344 19.25 
L 274.277344 13 
L 161.826172 13 
z
"/>
    </g>
   </g>
   <g id="patch_7">
    <path clip-path="url(#pfb7c8f54c1)" d="M 128.442718 42.482849 
C 129.370236 42.482849 130.25989 42.114342 130.915744 41.458488 
C 131.571598 40.802634 131.940105 39.912981 131.940105 38.985463 
C 131.940105 38.057945 131.571598 37.168292 130.915744 36.512438 
C 130.25989 35.856584 129.370236 35.488077 128.442718 35.488077 
C 127.515201 35.488077 126.625547 35.856584 125.969693 36.512438 
C 125.313839 37.168292 124.945332 38.057945 124.945332 38.985463 
C 124.945332 39.912981 125.313839 40.802634 125.969693 41.458488 
C 126.625547 42.114342 127.515201 42.482849 128.442718 42.482849 
z
" style="fill:#ffffff;stroke:#0000ff;stroke-linejoin:miter;"/>
   </g>
   <g id="patch_8">
    <path clip-path="url(#pfb7c8f54c1)" d="M 128.442718 275.641923 
C 129.370236 275.641923 130.25989 275.273416 130.915744 274.617562 
C 131.571598 273.961708 131.940105 273.072055 131.940105 272.144537 
C 131.940105 271.217019 131.571598 270.327366 130.915744 269.671512 
C 130.25989 269.015658 129.370236 268.647151 128.442718 268.647151 
C 127.515201 268.647151 126.625547 269.015658 125.969693 269.671512 
C 125.313839 270.327366 124.945332 271.217019 124.945332 272.144537 
C 124.945332 273.072055 125.313839 273.961708 125.969693 274.617562 
C 126.625547 275.273416 127.515201 275.641923 128.442718 275.641923 
z
" style="fill:#ffffff;stroke:#0000ff;stroke-linejoin:miter;"/>
   </g>
  </g>
 </g>
 <defs>
  <clipPath id="pfb7c8f54c1">
   <rect height="249.76" width="242.485437" x="7.2" y="30.685"/>
  </clipPath>
 </defs>
</svg>
