<?xml version="1.0" encoding="utf-8" standalone="no"?>
<!DOCTYPE svg PUBLIC "-//W3C//DTD SVG 1.1//EN"
  "http://www.w3.org/Graphics/SVG/1.1/DTD/svg11.dtd">
<!-- Created with matplotlib (https://matplotlib.org/) -->
<svg height="132.268268pt" version="1.1" viewBox="0 0 284.815 132.268268" width="284.815pt" xmlns="http://www.w3.org/2000/svg" xmlns:xlink="http://www.w3.org/1999/xlink">
 <metadata>
  <rdf:RDF xmlns:cc="http://creativecommons.org/ns#" xmlns:dc="http://purl.org/dc/elements/1.1/" xmlns:rdf="http://www.w3.org/1999/02/22-rdf-syntax-ns#">
   <cc:Work>
    <dc:type rdf:resource="http://purl.org/dc/dcmitype/StillImage"/>
    <dc:date>2022-02-21T21:26:08.995870</dc:date>
    <dc:format>image/svg+xml</dc:format>
    <dc:creator>
     <cc:Agent>
      <dc:title>Matplotlib v3.3.3, https://matplotlib.org/</dc:title>
     </cc:Agent>
    </dc:creator>
   </cc:Work>
  </rdf:RDF>
 </metadata>
 <defs>
  <style type="text/css">*{stroke-linecap:butt;stroke-linejoin:round;}</style>
 </defs>
 <g id="figure_1">
  <g id="patch_1">
   <path d="M 0 132.268268 
L 284.815 132.268268 
L 284.815 0 
L 0 0 
z
" style="fill:#ffffff;"/>
  </g>
  <g id="axes_1">
   <g id="patch_2">
    <path d="M 7.2 116.118063 
L 260.335 116.118063 
L 260.335 30.685 
L 7.2 30.685 
z
" style="fill:#ffffff;"/>
   </g>
   <g id="matplotlib.axis_1">
    <g id="xtick_1">
     <g id="line2d_1">
      <defs>
       <path d="M 0 0 
L 0 3.5 
" id="m4437b9d0d9" style="stroke:#000000;stroke-width:0.8;"/>
      </defs>
      <g>
       <use style="stroke:#000000;stroke-width:0.8;" x="72.91774" xlink:href="#m4437b9d0d9" y="108.390143"/>
      </g>
     </g>
     <g id="text_1">
      <!-- −1 -->
      <g transform="translate(65.546647 122.988581)scale(0.1 -0.1)">
       <defs>
        <path d="M 10.59375 35.5 
L 73.1875 35.5 
L 73.1875 27.203125 
L 10.59375 27.203125 
z
" id="DejaVuSans-8722"/>
        <path d="M 12.40625 8.296875 
L 28.515625 8.296875 
L 28.515625 63.921875 
L 10.984375 60.40625 
L 10.984375 69.390625 
L 28.421875 72.90625 
L 38.28125 72.90625 
L 38.28125 8.296875 
L 54.390625 8.296875 
L 54.390625 0 
L 12.40625 0 
z
" id="DejaVuSans-49"/>
       </defs>
       <use xlink:href="#DejaVuSans-8722"/>
       <use x="83.789062" xlink:href="#DejaVuSans-49"/>
      </g>
     </g>
    </g>
    <g id="xtick_2">
     <g id="line2d_2">
      <g>
       <use style="stroke:#000000;stroke-width:0.8;" x="133.7675" xlink:href="#m4437b9d0d9" y="108.390143"/>
      </g>
     </g>
    </g>
    <g id="xtick_3">
     <g id="line2d_3">
      <g>
       <use style="stroke:#000000;stroke-width:0.8;" x="194.61726" xlink:href="#m4437b9d0d9" y="108.390143"/>
      </g>
     </g>
     <g id="text_2">
      <!-- 1 -->
      <g transform="translate(191.43601 122.988581)scale(0.1 -0.1)">
       <use xlink:href="#DejaVuSans-49"/>
      </g>
     </g>
    </g>
    <g id="text_3">
     <!-- $x$ -->
     <g transform="translate(268.335 108.390143)scale(0.16 -0.16)">
      <defs>
       <path d="M 7.8125 2.875 
Q 9.578125 1.515625 12.796875 1.515625 
Q 15.921875 1.515625 18.3125 4.515625 
Q 20.703125 7.515625 21.578125 11.078125 
L 26.125 28.8125 
Q 27.203125 33.640625 27.203125 35.40625 
Q 27.203125 37.890625 25.8125 39.75 
Q 24.421875 41.609375 21.921875 41.609375 
Q 18.75 41.609375 15.96875 39.625 
Q 13.1875 37.640625 11.28125 34.59375 
Q 9.375 31.546875 8.59375 28.421875 
Q 8.40625 27.78125 7.8125 27.78125 
L 6.59375 27.78125 
Q 5.8125 27.78125 5.8125 28.71875 
L 5.8125 29 
Q 6.78125 32.71875 9.125 36.25 
Q 11.46875 39.796875 14.859375 41.984375 
Q 18.265625 44.1875 22.125 44.1875 
Q 25.78125 44.1875 28.734375 42.234375 
Q 31.6875 40.28125 32.90625 36.921875 
Q 34.625 39.984375 37.28125 42.078125 
Q 39.9375 44.1875 43.109375 44.1875 
Q 45.265625 44.1875 47.5 43.421875 
Q 49.75 42.671875 51.171875 41.109375 
Q 52.59375 39.546875 52.59375 37.203125 
Q 52.59375 34.671875 50.953125 32.828125 
Q 49.3125 31 46.78125 31 
Q 45.171875 31 44.09375 32.03125 
Q 43.015625 33.0625 43.015625 34.625 
Q 43.015625 36.71875 44.453125 38.296875 
Q 45.90625 39.890625 47.90625 40.1875 
Q 46.09375 41.609375 42.921875 41.609375 
Q 39.703125 41.609375 37.328125 38.625 
Q 34.96875 35.640625 33.984375 31.984375 
L 29.59375 14.3125 
Q 28.515625 10.296875 28.515625 7.71875 
Q 28.515625 5.171875 29.953125 3.34375 
Q 31.390625 1.515625 33.796875 1.515625 
Q 38.484375 1.515625 42.15625 5.640625 
Q 45.84375 9.765625 47.015625 14.703125 
Q 47.21875 15.28125 47.796875 15.28125 
L 49.03125 15.28125 
Q 49.421875 15.28125 49.65625 15.015625 
Q 49.90625 14.75 49.90625 14.40625 
Q 49.90625 14.3125 49.8125 14.109375 
Q 48.390625 8.15625 43.84375 3.515625 
Q 39.3125 -1.125 33.59375 -1.125 
Q 29.9375 -1.125 26.984375 0.84375 
Q 24.03125 2.828125 22.796875 6.203125 
Q 21.234375 3.265625 18.46875 1.0625 
Q 15.71875 -1.125 12.59375 -1.125 
Q 10.453125 -1.125 8.171875 -0.359375 
Q 5.90625 0.390625 4.484375 1.953125 
Q 3.078125 3.515625 3.078125 5.90625 
Q 3.078125 8.25 4.703125 10.171875 
Q 6.34375 12.109375 8.796875 12.109375 
Q 10.453125 12.109375 11.578125 11.109375 
Q 12.703125 10.109375 12.703125 8.5 
Q 12.703125 6.390625 11.296875 4.828125 
Q 9.90625 3.265625 7.8125 2.875 
z
" id="Cmmi10-120"/>
      </defs>
      <use transform="translate(0 0.8125)" xlink:href="#Cmmi10-120"/>
     </g>
    </g>
   </g>
   <g id="matplotlib.axis_2">
    <g id="ytick_1">
     <g id="line2d_4">
      <defs>
       <path d="M 0 0 
L -3.5 0 
" id="m0b75643443" style="stroke:#000000;stroke-width:0.8;"/>
      </defs>
      <g>
       <use style="stroke:#000000;stroke-width:0.8;" x="133.7675" xlink:href="#m0b75643443" y="47.540383"/>
      </g>
     </g>
     <g id="text_4">
      <!-- 1 -->
      <g transform="translate(120.405 51.339602)scale(0.1 -0.1)">
       <use xlink:href="#DejaVuSans-49"/>
      </g>
     </g>
    </g>
    <g id="text_5">
     <!-- $y$ -->
     <g transform="translate(129.7675 19.325)scale(0.16 -0.16)">
      <defs>
       <path d="M 8.40625 -14.3125 
Q 10.5 -17.921875 15.71875 -17.921875 
Q 20.453125 -17.921875 23.921875 -14.59375 
Q 27.390625 -11.28125 29.515625 -6.5625 
Q 31.640625 -1.859375 32.8125 3.078125 
Q 28.375 -1.125 23.1875 -1.125 
Q 19.234375 -1.125 16.453125 0.234375 
Q 13.671875 1.609375 12.125 4.3125 
Q 10.59375 7.03125 10.59375 10.890625 
Q 10.59375 14.15625 11.46875 17.59375 
Q 12.359375 21.046875 13.9375 25.265625 
Q 15.53125 29.5 16.703125 32.625 
Q 18.015625 36.28125 18.015625 38.625 
Q 18.015625 41.609375 15.828125 41.609375 
Q 11.859375 41.609375 9.296875 37.53125 
Q 6.734375 33.453125 5.515625 28.421875 
Q 5.328125 27.78125 4.6875 27.78125 
L 3.515625 27.78125 
Q 2.6875 27.78125 2.6875 28.71875 
L 2.6875 29 
Q 4.296875 34.96875 7.609375 39.578125 
Q 10.9375 44.1875 16.015625 44.1875 
Q 19.578125 44.1875 22.046875 41.84375 
Q 24.515625 39.5 24.515625 35.890625 
Q 24.515625 34.03125 23.6875 31.984375 
Q 23.25 30.765625 21.6875 26.65625 
Q 20.125 22.5625 19.28125 19.875 
Q 18.453125 17.1875 17.921875 14.59375 
Q 17.390625 12.015625 17.390625 9.421875 
Q 17.390625 6.109375 18.796875 3.8125 
Q 20.21875 1.515625 23.296875 1.515625 
Q 29.5 1.515625 34.421875 9.078125 
L 42 39.890625 
Q 42.328125 41.21875 43.546875 42.15625 
Q 44.78125 43.109375 46.1875 43.109375 
Q 47.40625 43.109375 48.3125 42.328125 
Q 49.21875 41.546875 49.21875 40.28125 
Q 49.21875 39.703125 49.125 39.5 
L 39.203125 -0.296875 
Q 37.890625 -5.421875 34.375 -10.109375 
Q 30.859375 -14.796875 25.90625 -17.65625 
Q 20.953125 -20.515625 15.578125 -20.515625 
Q 12.984375 -20.515625 10.4375 -19.5 
Q 7.90625 -18.5 6.34375 -16.5 
Q 4.78125 -14.5 4.78125 -11.8125 
Q 4.78125 -9.078125 6.390625 -7.078125 
Q 8.015625 -5.078125 10.6875 -5.078125 
Q 12.3125 -5.078125 13.40625 -6.078125 
Q 14.5 -7.078125 14.5 -8.6875 
Q 14.5 -10.984375 12.78125 -12.6875 
Q 11.078125 -14.40625 8.796875 -14.40625 
Q 8.6875 -14.359375 8.59375 -14.328125 
Q 8.5 -14.3125 8.40625 -14.3125 
z
" id="Cmmi10-121"/>
      </defs>
      <use transform="translate(0 0.8125)" xlink:href="#Cmmi10-121"/>
     </g>
    </g>
   </g>
   <g id="patch_3">
    <path clip-path="url(#p9f44db9b40)" d="M 164.19238 102.305167 
Q 148.97994 102.305167 136.003568 102.305167 
" style="fill:none;stroke:#808080;stroke-linecap:round;stroke-width:2;"/>
    <path clip-path="url(#p9f44db9b40)" d="M 140.003568 104.305167 
L 136.003568 102.305167 
L 140.003568 100.305167 
L 140.003568 104.305167 
z
" style="fill:#808080;stroke:#808080;stroke-linecap:round;stroke-width:2;"/>
   </g>
   <g id="patch_4">
    <path clip-path="url(#p9f44db9b40)" d="M 103.34262 102.305167 
Q 118.55506 102.305167 131.531432 102.305167 
" style="fill:none;stroke:#808080;stroke-linecap:round;stroke-width:2;"/>
    <path clip-path="url(#p9f44db9b40)" d="M 127.531432 100.305167 
L 131.531432 102.305167 
L 127.531432 104.305167 
L 127.531432 100.305167 
z
" style="fill:#808080;stroke:#808080;stroke-linecap:round;stroke-width:2;"/>
   </g>
   <g id="line2d_5">
    <path clip-path="url(#p9f44db9b40)" d="M 12.067981 80.724878 
L 13.88758 79.933217 
L 14.730486 79.566952 
L 16.027505 79.004053 
L 17.135529 78.523931 
L 18.095564 78.108569 
L 19.742392 77.397604 
L 20.865475 76.91399 
L 22.249171 76.319691 
L 22.73281 76.112397 
L 24.457409 75.375169 
L 25.077052 75.111075 
L 26.574854 74.474564 
L 28.239545 73.770425 
L 29.155726 73.384477 
L 30.517258 72.813126 
L 31.991788 72.197497 
L 33.038937 71.762394 
L 33.864998 71.420435 
L 35.641513 70.689027 
L 37.137168 70.077697 
L 37.267542 70.024608 
L 39.587569 69.085489 
L 39.667293 69.053412 
L 41.792828 68.203138 
L 42.087288 68.086117 
L 43.647816 67.469209 
L 44.966213 66.952409 
L 46.917974 66.19503 
L 47.242913 66.069856 
L 48.958257 65.41355 
L 50.403289 64.866676 
L 51.549793 64.436816 
L 52.129263 64.220943 
L 53.29243 63.790495 
L 55.291219 63.059993 
L 56.62911 62.577708 
L 56.785228 62.521786 
L 57.951974 62.106258 
L 59.288602 61.635508 
L 60.625706 61.170359 
L 62.528767 60.518532 
L 63.64289 60.142624 
L 65.228714 59.614992 
L 65.361243 59.571298 
L 67.61539 58.837775 
L 68.138792 58.670099 
L 70.02268 58.075011 
L 71.05388 57.754947 
L 71.94338 57.482141 
L 73.125758 57.124273 
L 74.381955 56.750098 
L 76.207054 56.217738 
L 77.405636 55.875509 
L 78.614764 55.536293 
L 78.85146 55.470604 
L 80.385208 55.050681 
L 82.144293 54.58144 
L 83.515774 54.224909 
L 83.858519 54.137098 
L 86.00276 53.599582 
L 86.847162 53.393567 
L 87.410289 53.257973 
L 88.949822 52.894667 
L 90.443057 52.552734 
L 91.160466 52.392151 
L 93.322943 51.922783 
L 93.927953 51.795444 
L 95.163764 51.540796 
L 96.330491 51.307153 
L 97.861629 51.010603 
L 99.338227 50.735533 
L 100.543577 50.519009 
L 101.218334 50.400965 
L 102.495836 50.183735 
L 103.61168 50.000737 
L 104.977063 49.785423 
L 106.683012 49.529811 
L 107.023054 49.48065 
L 108.244624 49.308977 
L 110.060289 49.06814 
L 110.900141 48.962564 
L 112.096493 48.818568 
L 113.580535 48.650431 
L 115.101941 48.490175 
L 116.436926 48.359705 
L 117.378314 48.273426 
L 117.937878 48.224392 
L 119.909842 48.065002 
L 121.264748 47.967636 
L 122.653145 47.878163 
L 123.194253 47.846123 
L 124.20636 47.79046 
L 126.238872 47.695511 
L 126.763663 47.674652 
L 128.489256 47.616662 
L 128.969647 47.603414 
L 130.447229 47.570574 
L 131.982752 47.549108 
L 132.639785 47.543867 
" style="fill:none;stroke:#0000ff;stroke-linecap:square;stroke-width:1.5;"/>
   </g>
   <g id="line2d_6">
    <path clip-path="url(#p9f44db9b40)" d="M 134.168033 47.540823 
L 135.155909 47.545663 
L 137.126227 47.571277 
L 137.70969 47.582941 
L 139.639016 47.634765 
L 140.393094 47.66055 
L 142.305677 47.73986 
L 143.12992 47.780185 
L 143.953303 47.824157 
L 145.214818 47.898669 
L 146.325914 47.97144 
L 148.348474 48.121036 
L 149.00455 48.174297 
L 150.257832 48.282469 
L 151.197637 48.369107 
L 153.285724 48.578476 
L 154.194945 48.676886 
L 154.737606 48.737708 
L 156.069963 48.893633 
L 158.168171 49.158095 
L 158.578773 49.21254 
L 159.915255 49.395829 
L 161.238083 49.586352 
L 162.617965 49.794689 
L 163.455392 49.925877 
L 165.006709 50.178324 
L 166.635434 50.456447 
L 167.957567 50.691988 
L 169.078884 50.898563 
L 170.343148 51.138913 
L 170.839807 51.235478 
L 172.68369 51.604485 
L 173.555631 51.784703 
L 175.014287 52.094324 
L 175.908543 52.289139 
L 177.320083 52.604305 
L 178.366882 52.844034 
L 179.575212 53.127053 
L 180.74164 53.406598 
L 181.717237 53.645146 
L 183.117477 53.994994 
L 184.541921 54.359818 
L 186.249347 54.808819 
L 187.195473 55.063044 
L 188.602581 55.448189 
L 189.071004 55.578258 
L 190.380228 55.946649 
L 192.050598 56.426916 
L 193.209221 56.766697 
L 194.584958 57.17711 
L 195.130459 57.341912 
L 196.762048 57.841739 
L 198.316903 58.327539 
L 198.950899 58.528238 
L 200.509904 59.028085 
L 201.224422 59.26014 
L 203.024877 59.852988 
L 204.056257 60.19774 
L 205.553665 60.704789 
L 207.044691 61.217194 
L 208.351989 61.672488 
L 209.3081 62.008967 
L 210.265677 62.348864 
L 211.94454 62.951651 
L 212.587174 63.184653 
L 214.162588 63.761039 
L 215.013771 64.075459 
L 216.483287 64.623116 
L 217.985857 65.189254 
L 218.232109 65.282617 
L 220.451352 66.131176 
L 221.50569 66.538714 
L 222.100651 66.7699 
L 223.686918 67.390444 
L 224.828698 67.840748 
L 226.48823 68.500478 
L 227.085094 68.739223 
L 228.569222 69.336123 
L 229.190537 69.587348 
L 231.486344 70.522199 
L 231.797044 70.649481 
L 233.90526 71.517706 
L 234.415022 71.728795 
L 235.94333 72.364216 
L 237.363615 72.958011 
L 238.942287 73.621513 
L 239.367028 73.800625 
L 240.820902 74.415529 
L 242.527819 75.140832 
L 242.773314 75.245431 
L 244.543064 76.001428 
L 245.659508 76.48001 
L 246.741989 76.945161 
L 248.526989 77.714395 
L 249.15227 77.984449 
L 250.901626 78.741429 
L 252.361675 79.374663 
L 253.541317 79.887095 
L 254.826573 80.446097 
L 255.467019 80.724878 
" style="fill:none;stroke:#0000ff;stroke-linecap:square;stroke-width:1.5;"/>
   </g>
   <g id="line2d_7"/>
   <g id="patch_5">
    <path d="M 133.7675 116.118063 
L 133.7675 30.685 
" style="fill:none;stroke:#000000;stroke-linecap:square;stroke-linejoin:miter;stroke-width:0.8;"/>
   </g>
   <g id="patch_6">
    <path d="M 7.2 108.390143 
L 260.335 108.390143 
" style="fill:none;stroke:#000000;stroke-linecap:square;stroke-linejoin:miter;stroke-width:0.8;"/>
   </g>
   <g id="text_6">
    <!-- $y=\dfrac{\sin{x}}{x}$ -->
    <g style="fill:#0000ff;" transform="translate(173.31726 39.330431)scale(0.12 -0.12)">
     <defs>
      <path d="M 7.515625 13.28125 
Q 6.6875 13.28125 6.140625 13.90625 
Q 5.609375 14.546875 5.609375 15.28125 
Q 5.609375 16.109375 6.140625 16.6875 
Q 6.6875 17.28125 7.515625 17.28125 
L 70.3125 17.28125 
Q 71.046875 17.28125 71.578125 16.6875 
Q 72.125 16.109375 72.125 15.28125 
Q 72.125 14.546875 71.578125 13.90625 
Q 71.046875 13.28125 70.3125 13.28125 
z
M 7.515625 32.71875 
Q 6.6875 32.71875 6.140625 33.296875 
Q 5.609375 33.890625 5.609375 34.71875 
Q 5.609375 35.453125 6.140625 36.078125 
Q 6.6875 36.71875 7.515625 36.71875 
L 70.3125 36.71875 
Q 71.046875 36.71875 71.578125 36.078125 
Q 72.125 35.453125 72.125 34.71875 
Q 72.125 33.890625 71.578125 33.296875 
Q 71.046875 32.71875 70.3125 32.71875 
z
" id="Cmr10-61"/>
      <path d="M 3.328125 -0.296875 
L 3.328125 16.015625 
Q 3.328125 16.796875 4.203125 16.796875 
L 5.421875 16.796875 
Q 6 16.796875 6.203125 16.015625 
Q 8.984375 1.515625 19.671875 1.515625 
Q 24.421875 1.515625 27.609375 3.65625 
Q 30.8125 5.8125 30.8125 10.296875 
Q 30.8125 13.53125 28.3125 15.796875 
Q 25.828125 18.0625 22.40625 18.890625 
L 15.71875 20.21875 
Q 12.359375 20.953125 9.59375 22.453125 
Q 6.84375 23.96875 5.078125 26.484375 
Q 3.328125 29 3.328125 32.328125 
Q 3.328125 36.71875 5.640625 39.515625 
Q 7.953125 42.328125 11.65625 43.578125 
Q 15.375 44.828125 19.671875 44.828125 
Q 24.8125 44.828125 28.609375 42.09375 
L 31.5 44.578125 
Q 31.5 44.828125 31.984375 44.828125 
L 32.71875 44.828125 
Q 33.015625 44.828125 33.25 44.546875 
Q 33.5 44.28125 33.5 44 
L 33.5 30.90625 
Q 33.5 29.984375 32.71875 29.984375 
L 31.5 29.984375 
Q 30.609375 29.984375 30.609375 30.90625 
Q 30.609375 36.140625 27.703125 39.3125 
Q 24.8125 42.484375 19.578125 42.484375 
Q 15.09375 42.484375 11.796875 40.8125 
Q 8.5 39.15625 8.5 35.109375 
Q 8.5 32.328125 10.859375 30.546875 
Q 13.234375 28.765625 16.40625 27.984375 
L 23.1875 26.703125 
Q 26.609375 25.921875 29.5625 24.0625 
Q 32.515625 22.21875 34.25 19.375 
Q 35.984375 16.546875 35.984375 12.984375 
Q 35.984375 9.375 34.734375 6.703125 
Q 33.5 4.046875 31.265625 2.28125 
Q 29.046875 0.53125 26.015625 -0.296875 
Q 23 -1.125 19.671875 -1.125 
Q 13.421875 -1.125 8.984375 3.078125 
L 5.328125 -0.875 
Q 5.328125 -1.125 4.78125 -1.125 
L 4.203125 -1.125 
Q 3.328125 -1.125 3.328125 -0.296875 
z
" id="Cmr10-115"/>
      <path d="M 3.078125 0 
L 3.078125 3.515625 
Q 6.5 3.515625 8.6875 4.046875 
Q 10.890625 4.59375 10.890625 6.6875 
L 10.890625 33.984375 
Q 10.890625 37.84375 9.390625 38.71875 
Q 7.90625 39.59375 3.515625 39.59375 
L 3.515625 43.109375 
L 17.921875 44.1875 
L 17.921875 6.6875 
Q 17.921875 4.59375 19.828125 4.046875 
Q 21.734375 3.515625 24.90625 3.515625 
L 24.90625 0 
z
M 7.328125 61.375 
Q 7.328125 63.578125 8.984375 65.234375 
Q 10.640625 66.890625 12.796875 66.890625 
Q 14.203125 66.890625 15.515625 66.15625 
Q 16.84375 65.4375 17.578125 64.109375 
Q 18.3125 62.796875 18.3125 61.375 
Q 18.3125 59.234375 16.640625 57.5625 
Q 14.984375 55.90625 12.796875 55.90625 
Q 10.640625 55.90625 8.984375 57.5625 
Q 7.328125 59.234375 7.328125 61.375 
z
" id="Cmr10-105"/>
      <path d="M 2.984375 0 
L 2.984375 3.515625 
Q 6.390625 3.515625 8.59375 4.046875 
Q 10.796875 4.59375 10.796875 6.6875 
L 10.796875 33.984375 
Q 10.796875 36.671875 9.984375 37.859375 
Q 9.1875 39.0625 7.671875 39.328125 
Q 6.15625 39.59375 2.984375 39.59375 
L 2.984375 43.109375 
L 17.484375 44.1875 
L 17.484375 34.421875 
Q 19.484375 38.71875 23.40625 41.453125 
Q 27.34375 44.1875 31.984375 44.1875 
Q 38.921875 44.1875 42.40625 40.859375 
Q 45.90625 37.546875 45.90625 30.71875 
L 45.90625 6.6875 
Q 45.90625 4.59375 48.09375 4.046875 
Q 50.296875 3.515625 53.71875 3.515625 
L 53.71875 0 
L 30.8125 0 
L 30.8125 3.515625 
Q 34.234375 3.515625 36.421875 4.046875 
Q 38.625 4.59375 38.625 6.6875 
L 38.625 30.421875 
Q 38.625 35.296875 37.203125 38.453125 
Q 35.796875 41.609375 31.390625 41.609375 
Q 25.59375 41.609375 21.84375 36.96875 
Q 18.109375 32.328125 18.109375 26.421875 
L 18.109375 6.6875 
Q 18.109375 4.59375 20.3125 4.046875 
Q 22.515625 3.515625 25.875 3.515625 
L 25.875 0 
z
" id="Cmr10-110"/>
     </defs>
     <use transform="translate(0 0.484375)" xlink:href="#Cmmi10-121"/>
     <use transform="translate(66.582031 0.484375)" xlink:href="#Cmr10-61"/>
     <use transform="translate(161.826172 39.109375)" xlink:href="#Cmr10-115"/>
     <use transform="translate(201.230469 39.109375)" xlink:href="#Cmr10-105"/>
     <use transform="translate(228.916016 39.109375)" xlink:href="#Cmr10-110"/>
     <use transform="translate(284.433594 39.109375)" xlink:href="#Cmmi10-120"/>
     <use transform="translate(222.826172 -37.453125)" xlink:href="#Cmmi10-120"/>
     <path d="M 161.826172 12.984375 
L 161.826172 19.234375 
L 341.513672 19.234375 
L 341.513672 12.984375 
L 161.826172 12.984375 
z
"/>
    </g>
   </g>
   <g id="patch_7">
    <path clip-path="url(#p9f44db9b40)" d="M 133.7675 49.365876 
C 134.251626 49.365876 134.715989 49.173531 135.058318 48.831202 
C 135.400647 48.488873 135.592993 48.02451 135.592993 47.540383 
C 135.592993 47.056257 135.400647 46.591894 135.058318 46.249565 
C 134.715989 45.907236 134.251626 45.714891 133.7675 45.714891 
C 133.283374 45.714891 132.819011 45.907236 132.476682 46.249565 
C 132.134353 46.591894 131.942007 47.056257 131.942007 47.540383 
C 131.942007 48.02451 132.134353 48.488873 132.476682 48.831202 
C 132.819011 49.173531 133.283374 49.365876 133.7675 49.365876 
z
" style="fill:#ffffff;stroke:#0000ff;stroke-linejoin:miter;"/>
   </g>
  </g>
 </g>
 <defs>
  <clipPath id="p9f44db9b40">
   <rect height="85.433063" width="253.135" x="7.2" y="30.685"/>
  </clipPath>
 </defs>
</svg>
